<svg width="281" height="287" viewBox="0 0 281 287" fill="none" xmlns="http://www.w3.org/2000/svg">
<g clip-path="url(#clip0_62_973)">
<path d="M276.447 268.722H0.724315C0.694858 268.722 0.665689 268.716 0.638474 268.704C0.611258 268.692 0.58653 268.675 0.5657 268.654C0.544871 268.632 0.528348 268.606 0.517075 268.578C0.505802 268.55 0.5 268.52 0.5 268.489C0.5 268.459 0.505802 268.429 0.517075 268.4C0.528348 268.372 0.544871 268.347 0.5657 268.325C0.58653 268.303 0.611258 268.286 0.638474 268.275C0.665689 268.263 0.694858 268.257 0.724315 268.257H276.446C276.506 268.257 276.563 268.281 276.605 268.325C276.647 268.369 276.671 268.428 276.671 268.489C276.671 268.551 276.647 268.61 276.605 268.654C276.563 268.697 276.506 268.722 276.446 268.722H276.447Z" fill="#292A2E"/>
<g opacity="0.65">
<path d="M276.447 268.722H0.724315C0.694858 268.722 0.665689 268.716 0.638474 268.704C0.611258 268.692 0.58653 268.675 0.5657 268.654C0.544871 268.632 0.528348 268.606 0.517075 268.578C0.505802 268.55 0.5 268.52 0.5 268.489C0.5 268.459 0.505802 268.429 0.517075 268.4C0.528348 268.372 0.544871 268.347 0.5657 268.325C0.58653 268.303 0.611258 268.286 0.638474 268.275C0.665689 268.263 0.694858 268.257 0.724315 268.257H276.446C276.506 268.257 276.563 268.281 276.605 268.325C276.647 268.369 276.671 268.428 276.671 268.489C276.671 268.551 276.647 268.61 276.605 268.654C276.563 268.697 276.506 268.722 276.446 268.722H276.447Z" fill="#292A2E"/>
</g>
<path d="M19.9203 268.313L19.2909 268.188L29.1274 166.955L29.7568 167.081L19.9203 268.313Z" fill="#494949"/>
<path d="M56.5471 268.313L55.9177 268.188L65.7543 166.955L66.3833 167.081L56.5471 268.313Z" fill="#494949"/>
<path d="M137.508 268.313L138.138 268.188L128.301 166.955L127.672 167.081L137.508 268.313Z" fill="#494949"/>
<path d="M100.882 268.313L101.511 268.188L91.6746 166.955L91.0452 167.081L100.882 268.313Z" fill="#494949"/>
<path d="M87.8366 122.403L87.2014 122.491L92.9477 167.063L93.5829 166.975L87.8366 122.403Z" fill="#494949"/>
<path d="M21.8801 122.403L21.2448 122.49L26.9911 167.062L27.6264 166.975L21.8801 122.403Z" fill="#494949"/>
<path d="M93.5281 163.754H29.015C27.2744 163.754 25.8633 165.215 25.8633 167.018V167.018C25.8633 168.821 27.2744 170.282 29.015 170.282H93.5281C95.2687 170.282 96.6797 168.821 96.6797 167.018V167.018C96.6797 165.215 95.2687 163.754 93.5281 163.754Z" fill="#292A2E"/>
<path opacity="0.8" d="M93.5281 163.754H29.015C27.2744 163.754 25.8633 165.215 25.8633 167.018V167.018C25.8633 168.821 27.2744 170.282 29.015 170.282H93.5281C95.2687 170.282 96.6797 168.821 96.6797 167.018V167.018C96.6797 165.215 95.2687 163.754 93.5281 163.754Z" fill="white"/>
<path d="M93.5268 170.614H29.015C28.0999 170.605 27.2252 170.222 26.5812 169.549C25.9372 168.876 25.5759 167.966 25.5759 167.018C25.5759 166.07 25.9372 165.161 26.5812 164.488C27.2252 163.814 28.0999 163.431 29.015 163.422H93.5268C94.4419 163.431 95.3165 163.814 95.9605 164.488C96.6045 165.161 96.9658 166.07 96.9658 167.018C96.9658 167.966 96.6045 168.876 95.9605 169.549C95.3165 170.222 94.4419 170.605 93.5268 170.614ZM29.015 164.086C28.2693 164.094 27.5568 164.407 27.0323 164.956C26.5078 165.505 26.2136 166.246 26.2136 167.018C26.2136 167.791 26.5078 168.532 27.0323 169.081C27.5568 169.63 28.2693 169.942 29.015 169.951H93.5268C94.2725 169.942 94.9849 169.63 95.5094 169.081C96.034 168.532 96.3281 167.791 96.3281 167.018C96.3281 166.246 96.034 165.505 95.5094 164.956C94.9849 164.407 94.2725 164.094 93.5268 164.086H29.015Z" fill="#292A2E"/>
<path d="M128.936 163.754H64.4232C62.6826 163.754 61.2715 165.215 61.2715 167.018V167.018C61.2715 168.821 62.6826 170.282 64.4232 170.282H128.936C130.677 170.282 132.088 168.821 132.088 167.018V167.018C132.088 165.215 130.677 163.754 128.936 163.754Z" fill="white"/>
<path d="M128.937 170.614H64.4235C63.9647 170.619 63.5096 170.529 63.0844 170.35C62.6593 170.172 62.2726 169.908 61.9466 169.573C61.6206 169.239 61.3618 168.841 61.1852 168.402C61.0087 167.964 60.9177 167.493 60.9177 167.018C60.9177 166.543 61.0087 166.073 61.1852 165.634C61.3618 165.195 61.6206 164.797 61.9466 164.463C62.2726 164.129 62.6593 163.865 63.0844 163.686C63.5096 163.507 63.9647 163.418 64.4235 163.422H128.937C129.395 163.418 129.85 163.507 130.276 163.686C130.701 163.865 131.087 164.129 131.413 164.463C131.739 164.797 131.998 165.195 132.175 165.634C132.351 166.073 132.442 166.543 132.442 167.018C132.442 167.493 132.351 167.964 132.175 168.402C131.998 168.841 131.739 169.239 131.413 169.573C131.087 169.908 130.701 170.172 130.276 170.35C129.85 170.529 129.395 170.619 128.937 170.614ZM64.4235 164.086C64.0491 164.082 63.6777 164.155 63.3307 164.3C62.9837 164.446 62.668 164.661 62.4019 164.934C62.1357 165.206 61.9245 165.531 61.7803 165.889C61.6361 166.247 61.5619 166.63 61.5619 167.018C61.5619 167.406 61.6361 167.79 61.7803 168.148C61.9245 168.505 62.1357 168.83 62.4019 169.103C62.668 169.375 62.9837 169.591 63.3307 169.736C63.6777 169.882 64.0491 169.955 64.4235 169.95H128.937C129.311 169.955 129.682 169.882 130.029 169.736C130.376 169.591 130.692 169.375 130.958 169.103C131.224 168.83 131.436 168.505 131.58 168.148C131.724 167.79 131.798 167.406 131.798 167.018C131.798 166.63 131.724 166.247 131.58 165.889C131.436 165.531 131.224 165.206 130.958 164.934C130.692 164.661 130.376 164.446 130.029 164.3C129.682 164.155 129.311 164.082 128.937 164.086H64.4235Z" fill="#292A2E"/>
<path d="M84.3026 122.446H21.7356C20.7127 122.446 19.7248 122.061 18.9562 121.362C18.1876 120.662 17.6909 119.698 17.5589 118.647L13.4202 85.7318C13.3428 85.1166 13.3931 84.4913 13.5676 83.8977C13.7421 83.3042 14.0369 82.756 14.4322 82.2898C14.8275 81.8236 15.3144 81.4501 15.8602 81.1943C16.406 80.9384 16.9982 80.8061 17.5973 80.8062H80.164C81.1869 80.8062 82.1748 81.1917 82.9434 81.8907C83.712 82.5898 84.2087 83.5546 84.3407 84.6051L88.4794 117.52C88.5567 118.136 88.5064 118.761 88.3319 119.354C88.1574 119.948 87.8627 120.496 87.4674 120.962C87.0721 121.428 86.5853 121.802 86.0396 122.058C85.4938 122.314 84.9017 122.446 84.3026 122.446Z" fill="#292A2E"/>
<path opacity="0.8" d="M84.3026 122.446H21.7356C20.7127 122.446 19.7248 122.061 18.9562 121.362C18.1876 120.662 17.6909 119.698 17.5589 118.647L13.4202 85.7318C13.3428 85.1166 13.3931 84.4913 13.5676 83.8977C13.7421 83.3042 14.0369 82.756 14.4322 82.2898C14.8275 81.8236 15.3144 81.4501 15.8602 81.1943C16.406 80.9384 16.9982 80.8061 17.5973 80.8062H80.164C81.1869 80.8062 82.1748 81.1917 82.9434 81.8907C83.712 82.5898 84.2087 83.5546 84.3407 84.6051L88.4794 117.52C88.5567 118.136 88.5064 118.761 88.3319 119.354C88.1574 119.948 87.8627 120.496 87.4674 120.962C87.0721 121.428 86.5853 121.802 86.0396 122.058C85.4938 122.314 84.9017 122.446 84.3026 122.446Z" fill="white"/>
<path d="M84.3026 122.778H21.7356C20.6357 122.775 19.5739 122.36 18.7474 121.608C17.9209 120.856 17.3856 119.82 17.241 118.691L13.1024 85.7752C13.0191 85.1132 13.0731 84.4403 13.2609 83.8016C13.4487 83.1629 13.7659 82.5731 14.1913 82.0714C14.6167 81.5698 15.1405 81.1679 15.7278 80.8925C16.3151 80.6172 16.9523 80.4748 17.597 80.4749H80.164C81.2641 80.4774 82.326 80.8932 83.1526 81.645C83.9792 82.3969 84.5144 83.4337 84.659 84.5632L88.7976 117.478C88.8807 118.14 88.8266 118.813 88.6388 119.452C88.4509 120.09 88.1337 120.68 87.7083 121.182C87.2829 121.684 86.7591 122.085 86.1718 122.361C85.5845 122.636 84.9473 122.779 84.3026 122.779V122.778ZM17.597 81.1379C17.0435 81.1379 16.4964 81.2602 15.9921 81.4966C15.4879 81.7331 15.0382 82.0781 14.6729 82.5089C14.3077 82.9396 14.0354 83.4461 13.8742 83.9944C13.713 84.5428 13.6666 85.1205 13.7381 85.6889L17.8764 118.604C18.0006 119.574 18.4602 120.464 19.1698 121.109C19.8795 121.755 20.7911 122.112 21.7356 122.114H84.3026C84.8562 122.114 85.4034 121.992 85.9078 121.755C86.4121 121.519 86.8619 121.174 87.2272 120.743C87.5924 120.312 87.8647 119.805 88.0259 119.257C88.1871 118.708 88.2334 118.131 88.1618 117.562L84.0232 84.6472C83.899 83.6776 83.4394 82.7875 82.7297 82.1422C82.02 81.4969 81.1084 81.14 80.164 81.1379H17.597Z" fill="#292A2E"/>
<path d="M87.8407 122.446H25.2737C24.2507 122.446 23.2628 122.061 22.4941 121.362C21.7255 120.663 21.2288 119.698 21.0966 118.647L16.958 85.7318C16.8807 85.1166 16.931 84.4913 17.1056 83.8978C17.2801 83.3043 17.5749 82.7562 17.9702 82.29C18.3655 81.8238 18.8523 81.4503 19.3981 81.1945C19.9438 80.9386 20.536 80.8062 21.1351 80.8062H83.702C84.725 80.8061 85.713 81.1916 86.4816 81.8907C87.2502 82.5898 87.747 83.5546 87.8791 84.6051L92.0177 117.52C92.095 118.136 92.0447 118.761 91.8702 119.354C91.6956 119.948 91.4009 120.496 91.0055 120.962C90.6102 121.428 90.1234 121.802 89.5777 122.058C89.0319 122.314 88.4398 122.446 87.8407 122.446Z" fill="white"/>
<path d="M87.8407 122.778H25.2737C24.1737 122.775 23.112 122.36 22.2854 121.608C21.4589 120.856 20.9237 119.82 20.7791 118.691L16.6404 85.7752C16.5572 85.1132 16.6112 84.4403 16.799 83.8016C16.9868 83.1629 17.304 82.5731 17.7293 82.0714C18.1547 81.5698 18.6786 81.1679 19.2659 80.8925C19.8532 80.6172 20.4904 80.4748 21.1351 80.4749H83.7021C84.8022 80.4774 85.8641 80.8931 86.6906 81.645C87.5172 82.3968 88.0523 83.4337 88.1967 84.5632L92.3353 117.478C92.4186 118.14 92.3646 118.813 92.1768 119.452C91.989 120.09 91.6718 120.68 91.2464 121.182C90.821 121.684 90.2972 122.086 89.7099 122.361C89.1226 122.636 88.4854 122.779 87.8407 122.779V122.778ZM21.1351 81.1379C20.5816 81.138 20.0344 81.2602 19.5302 81.4966C19.0259 81.7331 18.5762 82.0781 18.2109 82.5089C17.8457 82.9396 17.5734 83.446 17.4121 83.9944C17.2509 84.5428 17.2044 85.1205 17.2759 85.6889L21.4145 118.604C21.5386 119.574 21.9981 120.464 22.7078 121.11C23.4175 121.755 24.3292 122.112 25.2737 122.114H87.8407C88.3943 122.114 88.9416 121.992 89.446 121.755C89.9503 121.519 90.4002 121.174 90.7655 120.743C91.1308 120.312 91.4031 119.806 91.5643 119.257C91.7255 118.709 91.7718 118.131 91.7002 117.562L87.5616 84.6472C87.4375 83.6774 86.978 82.7872 86.2683 82.1417C85.5586 81.4961 84.6469 81.1392 83.7024 81.1369L21.1351 81.1379Z" fill="#292A2E"/>
<path d="M176.082 251.382C176.082 251.382 177.8 260.606 186.139 261.12C194.477 261.634 192.669 268.514 192.669 268.514H160.802V252.025L176.082 251.382Z" fill="black"/>
<path d="M115.456 245.558C115.456 245.558 113.067 254.62 120.33 258.894C127.594 263.168 123.039 268.514 123.039 268.514L94.4442 253.945L101.472 239.149L115.456 245.558Z" fill="black"/>
<path d="M89.7964 30.6276C89.7964 30.6276 93.9539 27.3776 94.9842 19.8965C95.7818 14.1039 90.6225 17.8564 90.6225 17.8564C90.6225 17.8564 91.1577 13.6801 88.2192 14.0943C85.2806 14.5085 83.6367 18.8965 83.6367 18.8965" fill="#0C0C0C"/>
<path d="M73.0334 14.583C73.0334 14.583 58.4545 16.2019 63.7246 36.6613L65.0147 36.7506L67.6334 36.9324" fill="#0C0C0C"/>
<path d="M87.3546 58.0281C87.2905 58.0194 86.5791 70.241 72.8683 69.1764C63.3766 68.4403 59.9923 58.0108 59.7747 58.0108C60.7982 57.7855 62.0627 57.4436 62.5655 57.3261C63.6609 57.0628 64.6529 56.4603 65.4095 55.5988C66.1662 54.7373 66.6516 53.6576 66.8012 52.5033C67.0791 50.771 66.609 41.9073 66.7528 40.1543L81.3228 43.5225C81.1193 47.2245 79.6942 55.8072 84.6875 57.3261C85.5197 57.5774 86.4147 57.8084 87.3546 58.0281Z" fill="#E98862"/>
<path opacity="0.52" d="M81.5275 53.8187C81.2993 53.057 81.1523 52.2718 81.0892 51.477C80.9292 49.6631 80.9615 47.8365 81.1853 46.0299C78.2239 45.6159 75.4341 44.35 73.1327 42.376C72.8622 43.4108 71.3744 47.9322 71.7868 48.9159C72.5639 50.7747 76.2225 53.8187 81.5275 53.8187Z" fill="#0C0C0C"/>
<path d="M78.5204 51.3997C72.7722 50.8657 65.8924 47.1046 65.7934 39.0237L65.7037 31.7328C65.6047 23.652 69.6222 17.0474 76.9688 16.9508C84.3151 16.8539 89.8868 23.3324 89.9858 31.4129L90.0256 34.6407C90.0205 35.7493 89.9424 36.8562 89.7919 37.9538C89.4151 40.8577 88.8306 45.2726 86.9281 48.2595C85.131 51.0787 82.1925 51.7408 78.5204 51.3997Z" fill="#E98862"/>
<path d="M81.1872 44.0134C82.3734 44.0691 83.5556 43.8352 84.6385 43.3307C84.6609 43.3208 84.6812 43.3065 84.6982 43.2884C84.7152 43.2704 84.7287 43.2491 84.7377 43.2257C84.7468 43.2023 84.7514 43.1773 84.7511 43.1521C84.7508 43.1269 84.7458 43.102 84.7362 43.0788C84.7267 43.0556 84.7128 43.0346 84.6954 43.017C84.678 42.9993 84.6575 42.9854 84.6349 42.976C84.6123 42.9666 84.5881 42.9619 84.5638 42.9622C84.5395 42.9625 84.5154 42.9677 84.493 42.9776C82.1601 44.0081 80.0416 43.8571 78.367 42.5412C78.3331 42.5135 78.298 42.4877 78.2615 42.4639C78.2194 42.4437 78.1716 42.4405 78.1274 42.4551C78.0832 42.4696 78.0458 42.5008 78.0227 42.5424C77.9996 42.5841 77.9923 42.6332 78.0024 42.6801C78.0125 42.7269 78.0392 42.7682 78.0773 42.7957C78.0907 42.8044 78.1122 42.8219 78.1414 42.8462C79.0218 43.5406 80.0824 43.9471 81.1872 44.0134Z" fill="#0C0C0C"/>
<path d="M81.1318 45.8337C81.3461 45.8476 81.5612 45.8422 81.7746 45.8178C81.8235 45.8124 81.8683 45.7872 81.8992 45.7476C81.9301 45.708 81.9445 45.6573 81.9393 45.6067C81.9341 45.5561 81.9097 45.5097 81.8715 45.4777C81.8333 45.4457 81.7844 45.4308 81.7355 45.4361C80.4515 45.5775 79.8388 44.9682 79.8128 44.942C79.7777 44.9076 79.7311 44.8887 79.6828 44.8894C79.6345 44.8901 79.5884 44.9103 79.5542 44.9456C79.52 44.9809 79.5005 45.0287 79.4998 45.0787C79.4991 45.1287 79.5172 45.1771 79.5504 45.2134C79.9926 45.603 80.5513 45.8221 81.1318 45.8337Z" fill="#0C0C0C"/>
<path d="M87.5597 36.1945C88.0595 36.1945 88.4646 35.7749 88.4646 35.2573C88.4646 34.7397 88.0595 34.3201 87.5597 34.3201C87.0599 34.3201 86.6547 34.7397 86.6547 35.2573C86.6547 35.7749 87.0599 36.1945 87.5597 36.1945Z" fill="#0C0C0C"/>
<path d="M78.7191 35.62C79.2189 35.62 79.6241 35.2004 79.6241 34.6828C79.6241 34.1652 79.2189 33.7456 78.7191 33.7456C78.2193 33.7456 77.8141 34.1652 77.8141 34.6828C77.8141 35.2004 78.2193 35.62 78.7191 35.62Z" fill="#0C0C0C"/>
<path d="M66.2798 41.4795C64.0473 41.5091 62.2072 39.0592 62.1781 36.747C62.1489 34.4348 63.9438 33.1362 66.1763 33.1067L67.3457 34.6406L68.1987 41.4543L66.2798 41.4795Z" fill="#E98862"/>
<path d="M68.4996 37.7643C68.4996 37.7643 69.2537 26.3302 72.6014 25.6243C74.8311 25.1541 80.2381 28.4293 85.2461 27.44C87.4373 27.0086 89.5173 27.5691 89.7288 28.6407C89.8125 29.0652 91.1776 22.9657 87.7465 18.338C85.0147 14.6542 76.0748 13.6121 72.0076 14.8202C60.746 18.1661 65.7156 33.6102 65.7156 33.6102L66.2177 37.5519L68.4996 37.7643Z" fill="#0C0C0C"/>
<path d="M82.5354 41.315C82.5402 41.3153 82.545 41.3153 82.5498 41.315C83.2692 41.3073 84.475 41.2118 84.4702 40.6542C84.4654 40.1922 83.1964 35.2198 83.0513 34.6543C83.0353 34.6102 83.004 34.5738 82.9636 34.5523C82.9232 34.5307 82.8765 34.5255 82.8325 34.5376C82.7886 34.5498 82.7506 34.5784 82.7259 34.6179C82.7012 34.6574 82.6915 34.705 82.6988 34.7515C83.2625 36.9538 84.102 40.3442 84.1056 40.6589C84.036 40.7916 83.2929 40.928 82.5479 40.936C82.5009 40.937 82.4561 40.9567 82.4227 40.991C82.3893 41.0252 82.3699 41.0715 82.3686 41.1201C82.3672 41.1688 82.3838 41.2161 82.4152 41.2524C82.4465 41.2886 82.4901 41.311 82.537 41.315H82.5354Z" fill="#0C0C0C"/>
<path d="M84.9913 30.1756C85.7474 29.96 86.5456 29.96 87.3017 30.1756C87.6732 30.2789 88.0275 30.4396 88.3528 30.6521C88.6744 30.8602 88.9693 31.1095 89.2305 31.3942C89.2806 31.4444 89.3097 31.513 89.3115 31.5851C89.3134 31.6573 89.2879 31.7273 89.2405 31.7802C89.1932 31.8332 89.1276 31.8648 89.058 31.8683C88.9884 31.8718 88.9202 31.847 88.8681 31.7991L88.8518 31.7845C88.6098 31.5526 88.3406 31.3531 88.0506 31.1908C87.7661 31.0293 87.4596 30.9135 87.1415 30.8473C86.5155 30.711 85.8657 30.7485 85.2582 30.9561L85.2326 30.9654C85.1323 31.0021 85.0221 30.9961 84.9262 30.9486C84.8302 30.9012 84.7564 30.8162 84.721 30.7124C84.6855 30.6086 84.6914 30.4944 84.7372 30.395C84.783 30.2957 84.8651 30.2192 84.9653 30.1825L84.9913 30.1756Z" fill="#0C0C0C"/>
<path d="M79.6372 30.646C79.0619 30.3564 78.423 30.2295 77.785 30.2779C77.4613 30.2997 77.1425 30.3723 76.8397 30.493C76.5319 30.6141 76.2399 30.7746 75.9707 30.9709L75.9534 30.9828C75.8956 31.0212 75.8257 31.035 75.7583 31.0215C75.6909 31.0079 75.6312 30.9679 75.5915 30.9099C75.5518 30.8519 75.5352 30.7803 75.5452 30.7099C75.5552 30.6396 75.591 30.5759 75.6451 30.5322C75.9407 30.2861 76.2651 30.0796 76.6106 29.9175C76.9604 29.7521 77.3322 29.6418 77.7136 29.5903C78.0955 29.5347 78.4831 29.5337 78.8653 29.5873C79.2576 29.6378 79.6409 29.7459 80.0038 29.9082C80.1016 29.9523 80.1784 30.0347 80.2175 30.1374C80.2566 30.2401 80.2546 30.3546 80.2121 30.4558C80.1696 30.5571 80.0901 30.6366 79.9909 30.6771C79.8917 30.7176 79.7811 30.7156 79.6834 30.6715C79.676 30.6682 79.6683 30.6646 79.6613 30.6606L79.6372 30.646Z" fill="#0C0C0C"/>
<path d="M83.9154 22.3042C85.568 21.9466 86.4956 19.6147 85.9875 17.0957C85.4793 14.5768 83.7277 12.8246 82.0752 13.1822C80.4226 13.5397 79.495 15.8716 80.0031 18.3906C80.5113 20.9096 82.2629 22.6618 83.9154 22.3042Z" fill="#0C0C0C"/>
<path d="M97.7459 242.999L121.859 164.215H78.15C69.3697 164.215 65.7095 156.504 65.7095 147.411C65.7095 138.318 74.3411 130.348 83.1208 130.348H142.113C147.468 130.348 153.472 133.739 156.411 138.376C159.351 143.012 158.556 150.196 156.426 155.285L117.812 252.414" fill="#262626"/>
<path opacity="0.8" d="M97.7459 242.999L121.859 164.215H78.15C69.3697 164.215 65.7095 156.504 65.7095 147.411C65.7095 138.318 74.3411 130.348 83.1208 130.348H142.113C147.468 130.348 153.472 133.739 156.411 138.376C159.351 143.012 158.556 150.196 156.426 155.285L117.812 252.414" fill="#0A0A0A"/>
<path d="M158.97 259.948L118.65 164.215L65.7089 164.211C53.3039 163.204 47.6226 156.163 47.8034 147.073C47.9815 138.097 52.3698 129.232 60.9973 129.232H132.353C138.736 129.368 143.758 136.673 146.126 142.814L179.645 254.087" fill="#262626"/>
<path d="M44.1925 129.342C44.1925 129.342 41.8414 145.221 45.5682 154.049C50.2208 165.07 67.6623 164.212 67.6623 164.212L66.6795 129.232L44.1925 129.342Z" fill="#262626"/>
<path d="M147.643 129.029L110.247 121.004C108.688 120.67 107.237 119.934 106.026 118.864C104.815 117.794 103.884 116.426 103.32 114.885L88.6111 74.7437C88.1632 73.539 87.9495 72.2545 87.9824 70.9641C88.0153 69.6736 88.294 68.4026 88.8026 67.224C89.3112 66.0454 90.0396 64.9825 90.946 64.0964C91.8524 63.2102 92.9189 62.5182 94.0843 62.0602C95.2497 61.6022 96.491 61.3871 97.7369 61.4274C98.9827 61.4676 100.209 61.7624 101.344 62.2948C102.48 62.8272 103.503 63.5867 104.354 64.5297C105.205 65.4726 105.868 66.5805 106.305 67.7896L119.171 102.902L151.484 109.836C151.484 109.836 148.292 129.168 147.643 129.029Z" fill="#1F68BE"/>
<path d="M104.39 84.9388C103.958 90.1933 100.897 122.975 100.481 129.447H44.2172C43.8938 123.61 42.4422 98.085 41.2165 86.6685C40.0462 75.7761 38.4058 70.8192 39.7536 67.4341C42.1307 61.464 49.6972 58.7977 54.8212 58.0795C57.9497 57.6408 62.6556 57.3262 62.6556 57.3262C62.6556 57.3262 63.0542 65.6738 72.5549 66.1384C85.488 66.769 84.6244 57.3262 84.6884 57.3262C86.7836 57.3262 98.1884 58.9042 101.04 60.8291C105.068 63.5481 106.258 67.2532 106.305 70.6576C106.36 74.577 104.88 78.978 104.39 84.9388Z" fill="#1F68BE"/>
<path d="M102.179 111.723H102.165C102.145 111.722 102.124 111.716 102.105 111.706C102.087 111.696 102.07 111.682 102.056 111.665C102.043 111.649 102.033 111.629 102.026 111.609C102.02 111.588 102.017 111.566 102.019 111.544L103.48 93.3728C103.481 93.3509 103.486 93.3295 103.496 93.3098C103.505 93.2902 103.518 93.2727 103.535 93.2586C103.551 93.2444 103.569 93.2337 103.59 93.2273C103.61 93.2209 103.631 93.2188 103.652 93.2212C103.673 93.223 103.694 93.229 103.713 93.239C103.731 93.249 103.748 93.2627 103.761 93.2793C103.775 93.296 103.785 93.3152 103.792 93.336C103.798 93.3568 103.801 93.3787 103.799 93.4004L102.338 111.572C102.335 111.613 102.317 111.652 102.287 111.68C102.258 111.708 102.219 111.723 102.179 111.723Z" fill="#0C0C0C"/>
<path d="M111.224 125.843L123.569 86.5417C123.786 85.851 124.209 85.2492 124.776 84.8225C125.344 84.3957 126.027 84.1658 126.728 84.1658H177.023C177.548 84.1657 178.065 84.2943 178.532 84.5408C178.999 84.7873 179.403 85.1449 179.711 85.5842C180.019 86.0236 180.222 86.5322 180.304 87.0685C180.386 87.6049 180.344 88.1536 180.182 88.67L167.837 127.972C167.62 128.662 167.198 129.264 166.63 129.691C166.063 130.118 165.38 130.347 164.678 130.347H114.383C113.859 130.347 113.342 130.219 112.875 129.972C112.408 129.726 112.003 129.368 111.695 128.929C111.387 128.49 111.184 127.981 111.102 127.445C111.02 126.908 111.062 126.36 111.224 125.843Z" fill="#292A2E"/>
<path opacity="0.2" d="M111.224 125.843L123.569 86.5417C123.786 85.851 124.209 85.2492 124.776 84.8225C125.344 84.3957 126.027 84.1658 126.728 84.1658H177.023C177.548 84.1657 178.065 84.2943 178.532 84.5408C178.999 84.7873 179.403 85.1449 179.711 85.5842C180.019 86.0236 180.222 86.5322 180.304 87.0685C180.386 87.6049 180.344 88.1536 180.182 88.67L167.837 127.972C167.62 128.662 167.198 129.264 166.63 129.691C166.063 130.118 165.38 130.347 164.678 130.347H114.383C113.859 130.347 113.342 130.219 112.875 129.972C112.408 129.726 112.003 129.368 111.695 128.929C111.387 128.49 111.184 127.981 111.102 127.445C111.02 126.908 111.062 126.36 111.224 125.843Z" fill="white"/>
<path d="M121.295 127.161H87.627C86.7881 127.161 86.108 127.865 86.108 128.734V128.774C86.108 129.643 86.7881 130.347 87.627 130.347H121.295C122.134 130.347 122.814 129.643 122.814 128.774V128.734C122.814 127.865 122.134 127.161 121.295 127.161Z" fill="#292A2E"/>
<path opacity="0.2" d="M121.295 127.161H87.627C86.7881 127.161 86.108 127.865 86.108 128.734V128.774C86.108 129.643 86.7881 130.347 87.627 130.347H121.295C122.134 130.347 122.814 129.643 122.814 128.774V128.734C122.814 127.865 122.134 127.161 121.295 127.161Z" fill="white"/>
<path d="M145.703 114.637C148.616 114.637 150.978 112.191 150.978 109.174C150.978 106.157 148.616 103.711 145.703 103.711C142.79 103.711 140.428 106.157 140.428 109.174C140.428 112.191 142.79 114.637 145.703 114.637Z" fill="white"/>
<path d="M104.9 77.613H91.5259V94.5997H104.9V77.613Z" fill="white"/>
<path d="M91.5259 91.7782C90.4427 91.7782 89.3838 91.4456 88.4831 90.8223C87.5825 90.199 86.8805 89.3132 86.466 88.2768C86.0514 87.2403 85.943 86.0999 86.1543 84.9996C86.3656 83.8993 86.8872 82.8886 87.6532 82.0954C88.4191 81.3021 89.395 80.7619 90.4574 80.5431C91.5198 80.3242 92.621 80.4365 93.6218 80.8658C94.6225 81.2952 95.4779 82.0222 96.0797 82.9549C96.6815 83.8877 97.0027 84.9843 97.0027 86.1061C97.0011 87.61 96.4236 89.0517 95.3968 90.1151C94.3701 91.1784 92.9779 91.7765 91.5259 91.7782ZM91.5259 82.7575C90.8863 82.7575 90.2611 82.954 89.7293 83.322C89.1976 83.69 88.7831 84.213 88.5383 84.825C88.2936 85.4369 88.2296 86.1103 88.3544 86.76C88.4792 87.4096 88.7872 88.0063 89.2395 88.4747C89.6917 88.943 90.2679 89.2619 90.8952 89.3911C91.5225 89.5203 92.1727 89.4539 92.7636 89.2004C93.3545 88.9469 93.8595 88.5176 94.2147 87.9668C94.57 87.416 94.7596 86.7685 94.7596 86.1061C94.7587 85.2183 94.4177 84.367 93.8115 83.7392C93.2052 83.1114 92.3832 82.7583 91.5259 82.7575Z" fill="white"/>
<path d="M92.2972 88.6227C92.1754 88.2946 91.9459 88.0214 91.649 87.851C91.3521 87.6805 91.0068 87.6237 90.6735 87.6905C90.6798 87.6746 90.6832 87.6576 90.6835 87.6404L91.1321 87.4326C91.4464 87.2942 91.7048 87.0476 91.8637 86.7345C92.0226 86.4214 92.0722 86.0611 92.004 85.7145C91.9569 85.4981 91.864 85.2952 91.732 85.1205C91.6001 84.9458 91.4323 84.8036 91.2408 84.7041C91.0494 84.6046 90.839 84.5504 90.6249 84.5453C90.4107 84.5403 90.1982 84.5845 90.0025 84.6747L88.9444 85.1649C88.9444 85.1606 88.9444 85.1563 88.9421 85.152C88.938 85.1432 88.9328 85.1349 88.9267 85.1274C89.1874 84.9239 89.3739 84.6349 89.4556 84.3076C89.5374 83.9803 89.5097 83.6339 89.377 83.325C89.0831 82.5016 88.0417 82.4359 87.353 82.7542L84.5862 83.9101L85.4213 83.0329C85.683 82.7469 85.83 82.3687 85.8327 81.9748C85.8355 81.5808 85.6937 81.2005 85.4361 80.9106C85.2979 80.7658 85.1328 80.6518 84.9506 80.5753C84.7685 80.4988 84.5733 80.4616 84.3768 80.4659C84.1803 80.4702 83.9867 80.5159 83.8079 80.6002C83.629 80.6846 83.4686 80.8058 83.3365 80.9564L73.4987 92.0835L76.8634 95.4394C77.9082 96.4818 79.2297 97.1773 80.6587 97.4367C82.0876 97.6961 83.5588 97.5076 84.8836 96.8953L90.8799 94.1112C91.1942 93.9729 91.4527 93.7263 91.6116 93.4132C91.7705 93.1001 91.8201 92.7397 91.7518 92.3931C91.6837 92.082 91.5215 91.8016 91.2887 91.5926C91.056 91.3837 90.7649 91.2572 90.4579 91.2316C90.4613 91.2143 90.4613 91.1966 90.458 91.1793C90.4548 91.1621 90.4482 91.1457 90.4387 91.1311C90.4293 91.1165 90.4171 91.104 90.403 91.0943C90.3888 91.0846 90.3729 91.0779 90.3563 91.0746L91.4634 90.5628C91.814 90.4091 92.0951 90.1233 92.2499 89.7631C92.4047 89.4029 92.4216 88.9953 92.2972 88.6227Z" fill="#E98862"/>
<path opacity="0.2" d="M86.9438 86.1064C86.9121 86.1066 86.8813 86.0952 86.8568 86.0743C86.8323 86.0534 86.8156 86.0243 86.8097 85.9921C86.8038 85.9598 86.8089 85.9264 86.8243 85.8976C86.8397 85.8689 86.8642 85.8466 86.8938 85.8346L88.7652 85.0713C88.7818 85.0645 88.7996 85.0612 88.8174 85.0615C88.8352 85.0619 88.8529 85.0658 88.8692 85.0732C88.8856 85.0805 88.9004 85.0912 88.9128 85.1045C88.9252 85.1178 88.9349 85.1334 88.9415 85.1506C88.948 85.1678 88.9512 85.1862 88.9509 85.2047C88.9506 85.2232 88.9468 85.2414 88.9397 85.2583C88.9326 85.2753 88.9223 85.2906 88.9095 85.3035C88.8966 85.3163 88.8815 85.3264 88.8649 85.3332L86.9935 86.0965C86.9776 86.103 86.9608 86.1063 86.9438 86.1064Z" fill="#0C0C0C"/>
<path opacity="0.2" d="M87.9882 88.8471C87.9567 88.847 87.9262 88.8356 87.9019 88.8148C87.8777 88.794 87.8611 88.7651 87.8551 88.7331C87.8492 88.7011 87.8541 88.6679 87.8691 88.6392C87.8842 88.6106 87.9083 88.5882 87.9375 88.576L90.4973 87.5096C90.5303 87.4976 90.5665 87.4993 90.5984 87.5143C90.6302 87.5292 90.6553 87.5563 90.6683 87.5899C90.6814 87.6235 90.6814 87.6611 90.6684 87.6947C90.6554 87.7283 90.6304 87.7555 90.5986 87.7705L88.0391 88.8371C88.0229 88.8437 88.0056 88.847 87.9882 88.8471Z" fill="#0C0C0C"/>
<path opacity="0.2" d="M89.1046 91.8227C89.0728 91.8227 89.0419 91.8111 89.0175 91.79C88.9931 91.7689 88.9766 91.7395 88.9709 91.7071C88.9652 91.6747 88.9707 91.6412 88.9864 91.6125C89.0021 91.5839 89.027 91.5618 89.0569 91.5502L90.2771 91.076C90.3109 91.0628 90.3483 91.064 90.3812 91.0794C90.414 91.0947 90.4397 91.123 90.4524 91.158C90.4652 91.1929 90.464 91.2317 90.4491 91.2657C90.4343 91.2997 90.407 91.3263 90.3733 91.3395L89.153 91.8137C89.1375 91.8197 89.1211 91.8227 89.1046 91.8227Z" fill="#0C0C0C"/>
<path d="M95.1428 66.8082C95.0838 66.8083 95.0259 66.7915 94.9755 66.7596C94.9252 66.7277 94.8842 66.6821 94.8573 66.6277C94.1277 65.1545 93.2198 63.3205 93.3224 61.398C93.4038 59.8691 94.0959 58.5107 94.7644 57.1988C95.1964 56.4058 95.5645 55.5773 95.8651 54.7217C96.2319 53.541 96.3244 52.2874 96.1351 51.0628C95.9458 49.8381 95.48 48.677 94.7756 47.674C94.7492 47.6391 94.7299 47.599 94.7187 47.5562C94.7075 47.5134 94.7047 47.4687 94.7105 47.4248C94.7163 47.3808 94.7305 47.3385 94.7524 47.3004C94.7742 47.2622 94.8032 47.229 94.8376 47.2026C94.8721 47.1763 94.9112 47.1574 94.9529 47.147C94.9945 47.1366 95.0377 47.1349 95.08 47.1421C95.1222 47.1493 95.1627 47.1652 95.1989 47.1888C95.2351 47.2124 95.2664 47.2434 95.2909 47.2797C96.056 48.3682 96.5622 49.6284 96.7682 50.9577C96.9743 52.2871 96.8743 53.648 96.4766 54.9298C96.1653 55.8207 95.7831 56.6834 95.3338 57.5088C94.6673 58.816 94.0379 60.0506 93.9642 61.4348C93.8713 63.1775 94.6993 64.8498 95.4296 66.325C95.4547 66.3756 95.4667 66.4319 95.4647 66.4887C95.4626 66.5455 95.4465 66.6008 95.418 66.6493C95.3894 66.6978 95.3492 66.7379 95.3014 66.7657C95.2536 66.7935 95.1996 66.8082 95.1448 66.8082H95.1428Z" fill="white"/>
<path d="M100.288 71.9881C100.217 71.9881 100.148 71.9636 100.092 71.9186C100.036 71.8735 99.9958 71.8104 99.9781 71.7392C99.9603 71.6679 99.9659 71.5926 99.994 71.525C100.022 71.4575 100.071 71.4015 100.133 71.3658C101.321 70.6875 101.454 68.7995 100.896 67.3661C100.619 66.7073 100.295 66.0707 99.9272 65.4618C99.435 64.6728 99.0348 63.8261 98.7351 62.9396C98.429 61.8586 98.4098 60.7123 98.6795 59.621C98.9491 58.5298 99.4977 57.5339 100.267 56.7382C100.329 56.6778 100.41 56.6449 100.495 56.6465C100.579 56.6482 100.66 56.6844 100.719 56.7472C100.777 56.81 100.81 56.8943 100.809 56.9818C100.808 57.0693 100.774 57.1529 100.714 57.2144C100.027 57.9241 99.5384 58.8121 99.2979 59.7852C99.0575 60.7583 99.0746 61.7805 99.3475 62.7444C99.6324 63.5808 100.012 64.3794 100.478 65.1233C100.864 65.7605 101.202 66.4272 101.49 67.1175C102.143 68.7958 101.998 71.0585 100.442 71.9466C100.395 71.9737 100.342 71.9879 100.288 71.9881Z" fill="white"/>
<path d="M84.7785 100.917L37.5922 121.141C35.8909 121.863 34.0236 122.055 32.2185 121.695C30.4133 121.335 28.7485 120.439 27.4274 119.115C26.1063 117.791 25.1862 116.097 24.7794 114.24C24.3727 112.384 24.4969 110.445 25.1369 108.66L39.2104 68.8503C41.03 63.7766 46.1556 60.8591 51.0549 62.7438C53.4075 63.6488 55.3166 65.4845 56.3622 67.8472C57.4079 70.2099 57.5045 72.906 56.6308 75.3424L50.2115 94.1846L77.8664 83.1428" fill="#1F68BE"/>
<path d="M84.6635 101.098C84.6384 101.097 84.6138 101.089 84.593 101.075C84.5721 101.06 84.5559 101.04 84.5462 101.016L77.6805 83.3602L50.1183 94.3764C50.0955 94.3856 50.0706 94.3876 50.0466 94.3824C50.0227 94.3772 50.0008 94.3648 49.9835 94.3468C49.9662 94.3289 49.9544 94.3061 49.9494 94.2813C49.9444 94.2565 49.9465 94.2307 49.9555 94.2071L54.2175 82.8783C54.2296 82.846 54.2537 82.8201 54.2843 82.8062C54.3149 82.7923 54.3496 82.7915 54.3808 82.8041C54.4119 82.8167 54.4369 82.8416 54.4504 82.8733C54.4638 82.905 54.4645 82.9409 54.4524 82.9732L50.2942 94.0256L77.7059 83.0694C77.7368 83.0571 77.7711 83.0578 77.8015 83.0715C77.8319 83.0851 77.8559 83.1106 77.8683 83.1424L84.7804 100.918C84.7925 100.95 84.7919 100.986 84.7789 101.018C84.7658 101.05 84.7413 101.075 84.7106 101.088C84.6956 101.094 84.6796 101.098 84.6635 101.098Z" fill="#0C0C0C"/>
<path d="M41.4619 97.882C41.4324 97.8822 41.4038 97.8718 41.3809 97.8524C41.3581 97.833 41.3426 97.8059 41.3371 97.7758C41.3316 97.7458 41.3365 97.7147 41.3509 97.688C41.3652 97.6613 41.3882 97.6407 41.4158 97.6297L50.0484 94.1119C50.0639 94.1053 50.0805 94.1019 50.0972 94.1021C50.114 94.1022 50.1305 94.1057 50.1459 94.1125C50.1613 94.1193 50.1752 94.1292 50.1869 94.1416C50.1986 94.154 50.2078 94.1687 50.2139 94.1848C50.22 94.201 50.223 94.2182 50.2227 94.2355C50.2223 94.2529 50.2187 94.2699 50.2119 94.2858C50.2051 94.3016 50.1953 94.3159 50.1832 94.3278C50.171 94.3397 50.1567 94.349 50.141 94.3551L41.5081 97.873C41.4934 97.8789 41.4777 97.882 41.4619 97.882Z" fill="#0C0C0C"/>
<path d="M43.4724 118.78C43.4432 118.78 43.4148 118.77 43.3921 118.75C43.3695 118.731 43.354 118.704 43.3483 118.675C43.3426 118.645 43.3471 118.614 43.361 118.587C43.3748 118.561 43.3973 118.54 43.4243 118.529L84.6167 100.846C84.632 100.84 84.6483 100.836 84.6649 100.836C84.6814 100.836 84.6978 100.84 84.7131 100.846C84.7284 100.853 84.7423 100.863 84.7539 100.875C84.7656 100.887 84.7749 100.901 84.7812 100.917C84.7875 100.933 84.7908 100.95 84.7907 100.967C84.7907 100.984 84.7874 101.001 84.7811 101.017C84.7747 101.033 84.7654 101.047 84.7537 101.059C84.742 101.071 84.7281 101.081 84.7128 101.088L43.5205 118.77C43.5053 118.776 43.4889 118.78 43.4724 118.78Z" fill="#0C0C0C"/>
<path d="M252.602 225.199C252.517 225.199 252.435 225.164 252.375 225.102C251.924 224.634 251.188 216.055 249.206 190.513C248.394 180.061 247.628 170.19 247.069 164.19C247.029 163.762 246.869 163.712 246.816 163.696C246.051 163.456 243.723 165.357 242.424 167.022C242.37 167.09 242.293 167.134 242.208 167.143C242.124 167.152 242.039 167.127 241.973 167.071C241.907 167.016 241.865 166.936 241.856 166.848C241.847 166.761 241.872 166.673 241.925 166.605C242.785 165.504 245.585 162.619 247 163.06C247.286 163.149 247.641 163.406 247.707 164.126C248.267 170.131 249.033 180.006 249.844 190.46C251.049 205.981 252.414 223.566 252.862 224.674C252.897 224.723 252.917 224.782 252.922 224.843C252.926 224.903 252.914 224.964 252.887 225.019C252.86 225.073 252.819 225.119 252.769 225.151C252.719 225.182 252.661 225.199 252.602 225.199Z" fill="#494949"/>
<path d="M246.246 175.199C251.564 170.784 253.326 163.914 250.183 159.852C247.039 155.791 240.18 156.077 234.863 160.491C229.545 164.906 227.783 171.777 230.926 175.838C234.07 179.899 240.929 179.613 246.246 175.199Z" fill="#1F68BE"/>
<path opacity="0.2" d="M246.246 175.199C251.564 170.784 253.326 163.914 250.183 159.852C247.039 155.791 240.18 156.077 234.863 160.491C229.545 164.906 227.783 171.777 230.926 175.838C234.07 179.899 240.929 179.613 246.246 175.199Z" fill="white"/>
<path d="M232.417 176.871C232.386 176.871 232.356 176.862 232.331 176.845C232.305 176.829 232.285 176.804 232.272 176.776C232.259 176.747 232.254 176.715 232.258 176.684C232.262 176.653 232.274 176.623 232.294 176.599L247.448 157.673C247.461 157.656 247.478 157.641 247.497 157.631C247.515 157.62 247.536 157.614 247.557 157.611C247.578 157.609 247.6 157.611 247.62 157.618C247.64 157.624 247.659 157.635 247.676 157.649C247.692 157.663 247.705 157.68 247.715 157.7C247.725 157.719 247.731 157.741 247.733 157.763C247.735 157.785 247.732 157.807 247.726 157.828C247.719 157.849 247.708 157.868 247.695 157.885L232.54 176.811C232.525 176.83 232.506 176.845 232.485 176.856C232.464 176.866 232.44 176.871 232.417 176.871Z" fill="white"/>
<path d="M255.907 221.142C255.856 221.142 255.806 221.129 255.76 221.105C255.715 221.081 255.676 221.045 255.646 221.002C255.616 220.959 255.597 220.909 255.59 220.857C255.583 220.804 255.588 220.751 255.605 220.701L261.297 203.746C261.465 203.248 261.75 202.801 262.128 202.447C262.505 202.093 262.962 201.842 263.458 201.719C263.953 201.595 264.47 201.602 264.962 201.739C265.454 201.876 265.905 202.138 266.273 202.502L269.283 205.48C269.344 205.541 269.38 205.624 269.382 205.712C269.384 205.8 269.352 205.886 269.293 205.949C269.234 206.013 269.153 206.05 269.068 206.052C268.983 206.054 268.901 206.021 268.84 205.96L265.83 202.983C265.539 202.695 265.184 202.488 264.795 202.38C264.407 202.272 263.999 202.266 263.608 202.364C263.217 202.462 262.856 202.659 262.558 202.939C262.26 203.219 262.035 203.571 261.902 203.964L256.21 220.919C256.188 220.984 256.147 221.04 256.093 221.08C256.039 221.12 255.974 221.142 255.907 221.142Z" fill="#494949"/>
<path d="M277.691 214.867C281.632 211.637 281.398 204.531 277.168 198.997C272.938 193.463 266.315 191.596 262.374 194.826C258.433 198.057 258.668 205.162 262.897 210.696C267.127 216.23 273.75 218.097 277.691 214.867Z" fill="#1F68BE"/>
<path d="M250.016 224.118C249.944 224.118 249.874 224.093 249.817 224.046C249.761 224 249.721 223.936 249.704 223.863L240.152 182.497C240.086 182.215 239.947 181.957 239.75 181.752C239.552 181.546 239.304 181.401 239.032 181.333C238.759 181.264 238.474 181.275 238.208 181.363C237.941 181.451 237.703 181.614 237.52 181.833L234.575 185.357C234.548 185.39 234.514 185.417 234.477 185.437C234.439 185.456 234.398 185.468 234.356 185.471C234.314 185.474 234.272 185.469 234.232 185.455C234.192 185.441 234.155 185.42 234.123 185.391C234.091 185.363 234.065 185.328 234.046 185.289C234.027 185.25 234.016 185.208 234.013 185.164C234.01 185.121 234.015 185.077 234.029 185.036C234.042 184.994 234.063 184.956 234.09 184.923L237.035 181.399C237.296 181.088 237.634 180.857 238.013 180.732C238.392 180.607 238.797 180.592 239.183 180.69C239.569 180.787 239.922 180.994 240.203 181.285C240.484 181.577 240.681 181.943 240.774 182.344L250.326 223.71C250.346 223.796 250.332 223.886 250.288 223.961C250.243 224.036 250.172 224.09 250.089 224.11C250.065 224.116 250.041 224.118 250.016 224.118Z" fill="#494949"/>
<path d="M246.493 194.547C247.654 187.592 244.58 181.235 239.628 180.348C234.676 179.461 229.72 184.38 228.558 191.335C227.397 198.29 230.47 204.646 235.423 205.533C240.375 206.42 245.331 201.501 246.493 194.547Z" fill="#1F68BE"/>
<path d="M252.603 225.199C252.589 225.199 252.576 225.198 252.563 225.197C252.478 225.186 252.402 225.141 252.349 225.072C252.297 225.002 252.273 224.914 252.284 224.827L258.384 173.533C258.45 172.974 258.671 172.447 259.02 172.015C259.369 171.583 259.831 171.264 260.35 171.098C260.87 170.931 261.425 170.923 261.948 171.076C262.472 171.228 262.942 171.534 263.301 171.956L270.274 180.135C270.33 180.201 270.359 180.287 270.353 180.375C270.348 180.463 270.309 180.545 270.246 180.603C270.182 180.662 270.098 180.691 270.014 180.686C269.929 180.68 269.849 180.64 269.793 180.574L262.821 172.395C262.543 172.069 262.179 171.833 261.775 171.715C261.37 171.597 260.941 171.603 260.539 171.732C260.138 171.861 259.781 172.107 259.511 172.442C259.242 172.776 259.071 173.183 259.02 173.616L252.919 224.908C252.909 224.988 252.872 225.062 252.814 225.115C252.756 225.169 252.68 225.199 252.603 225.199Z" fill="#494949"/>
<path d="M277.424 184.679C279.856 180.124 276.994 173.663 271.031 170.247C265.067 166.83 258.261 167.753 255.828 172.308C253.395 176.863 256.258 183.324 262.221 186.74C268.184 190.157 274.991 189.234 277.424 184.679Z" fill="#1F68BE"/>
<path opacity="0.2" d="M277.691 214.867C281.632 211.637 281.398 204.531 277.168 198.997C272.938 193.463 266.315 191.596 262.374 194.826C258.433 198.057 258.668 205.162 262.897 210.696C267.127 216.23 273.75 218.098 277.691 214.867Z" fill="white"/>
<path opacity="0.5" d="M246.493 194.547C247.654 187.592 244.58 181.235 239.628 180.348C234.676 179.461 229.72 184.38 228.558 191.335C227.397 198.29 230.47 204.646 235.423 205.533C240.375 206.42 245.331 201.501 246.493 194.547Z" fill="white"/>
<path opacity="0.5" d="M277.424 184.679C279.856 180.124 276.994 173.663 271.031 170.247C265.067 166.83 258.261 167.753 255.828 172.308C253.395 176.863 256.258 183.324 262.221 186.74C268.184 190.157 274.991 189.234 277.424 184.679Z" fill="white"/>
<path d="M260.404 268.721H244.8L242.214 217.014H262.99L260.404 268.721Z" fill="#292A2E"/>
<path opacity="0.3" d="M260.404 268.721H244.8L242.214 217.014H262.99L260.404 268.721Z" fill="white"/>
<path d="M277.691 215.031C277.667 215.031 277.643 215.025 277.621 215.014C277.599 215.004 277.58 214.988 277.565 214.968L262.248 194.927C262.221 194.893 262.209 194.849 262.214 194.805C262.219 194.761 262.241 194.721 262.274 194.694C262.307 194.667 262.35 194.654 262.392 194.659C262.434 194.664 262.473 194.687 262.499 194.721L277.817 214.762C277.835 214.786 277.847 214.816 277.85 214.847C277.854 214.878 277.848 214.909 277.835 214.937C277.822 214.965 277.802 214.989 277.776 215.005C277.751 215.022 277.721 215.031 277.691 215.031Z" fill="white"/>
<path d="M276.405 186.285C276.371 186.285 276.338 186.273 276.311 186.252L256.71 171.431C256.693 171.418 256.678 171.402 256.667 171.383C256.656 171.364 256.649 171.344 256.646 171.322C256.643 171.301 256.644 171.279 256.648 171.257C256.653 171.236 256.662 171.216 256.675 171.199C256.687 171.181 256.703 171.166 256.721 171.155C256.739 171.143 256.759 171.136 256.78 171.132C256.8 171.129 256.822 171.13 256.842 171.135C256.863 171.14 256.882 171.15 256.899 171.162L276.499 185.985C276.526 186.006 276.546 186.035 276.556 186.068C276.566 186.101 276.566 186.136 276.556 186.169C276.545 186.202 276.525 186.231 276.498 186.252C276.471 186.272 276.438 186.283 276.405 186.284V186.285Z" fill="white"/>
<path d="M234.626 205.317C234.612 205.317 234.598 205.315 234.585 205.312C234.544 205.3 234.509 205.272 234.488 205.234C234.466 205.196 234.46 205.151 234.471 205.109L240.711 180.897C240.716 180.876 240.726 180.856 240.738 180.838C240.751 180.821 240.767 180.806 240.785 180.794C240.804 180.783 240.824 180.776 240.845 180.773C240.866 180.77 240.888 180.771 240.908 180.777C240.929 180.783 240.948 180.793 240.965 180.806C240.982 180.82 240.996 180.836 241.006 180.856C241.017 180.875 241.023 180.896 241.026 180.918C241.028 180.94 241.027 180.962 241.021 180.983L234.781 205.194C234.772 205.23 234.752 205.261 234.724 205.283C234.696 205.305 234.662 205.317 234.626 205.317Z" fill="white"/>
</g>
<defs>
<clipPath id="clip0_62_973">
<rect width="280" height="286" fill="white" transform="translate(0.5 0.5)"/>
</clipPath>
</defs>
</svg>
