<svg width="360" height="339" viewBox="0 0 360 339" fill="none" xmlns="http://www.w3.org/2000/svg">
<path d="M360 297.908H0V298.135H360V297.908Z" fill="#EBEBEB"/>
<path d="M323.928 312.549H300.082V312.776H323.928V312.549Z" fill="#EBEBEB"/>
<path d="M238.478 315.023H232.222V315.251H238.478V315.023Z" fill="#EBEBEB"/>
<path d="M299.362 304.104H285.545V304.332H299.362V304.104Z" fill="#EBEBEB"/>
<path d="M68.868 305.633H37.7712V305.861H68.868V305.633Z" fill="#EBEBEB"/>
<path d="M79.8408 305.633H75.2832V305.861H79.8408V305.633Z" fill="#EBEBEB"/>
<path d="M162.108 309.473H94.6584V309.701H162.108V309.473Z" fill="#EBEBEB"/>
<path d="M170.64 257.326H31.6152C30.5261 257.323 29.4823 256.775 28.7128 255.801C27.9434 254.826 27.5112 253.506 27.5112 252.13V5.15015C27.5207 3.78165 27.957 2.47314 28.7255 1.50885C29.4939 0.544549 30.5323 0.00234431 31.6152 0H170.64C171.73 0 172.776 0.547397 173.547 1.52177C174.318 2.49614 174.751 3.81767 174.751 5.19565V252.13C174.751 253.508 174.318 254.829 173.547 255.804C172.776 256.778 171.73 257.326 170.64 257.326ZM31.6152 0.181985C30.5739 0.184395 29.5758 0.708887 28.8401 1.64034C28.1044 2.57179 27.6912 3.83409 27.6912 5.15015V252.13C27.6912 253.446 28.1044 254.708 28.8401 255.64C29.5758 256.571 30.5739 257.096 31.6152 257.098H170.64C171.682 257.096 172.681 256.571 173.418 255.64C174.155 254.709 174.569 253.447 174.571 252.13V5.15015C174.569 3.83325 174.155 2.57097 173.418 1.63978C172.681 0.708592 171.682 0.18439 170.64 0.181985H31.6152Z" fill="#EBEBEB"/>
<path d="M326.383 257.326H187.351C186.261 257.323 185.217 256.775 184.446 255.801C183.676 254.827 183.242 253.507 183.24 252.13V5.15015C183.251 3.78082 183.689 2.47232 184.459 1.50828C185.228 0.544231 186.268 0.00231874 187.351 0H326.383C327.465 0.00473568 328.501 0.547999 329.268 1.51204C330.035 2.47608 330.471 3.78322 330.48 5.15015V252.13C330.48 253.505 330.049 254.823 329.281 255.797C328.513 256.771 327.471 257.321 326.383 257.326ZM187.351 0.181985C186.309 0.18439 185.31 0.708592 184.574 1.63978C183.837 2.57097 183.422 3.83325 183.42 5.15015V252.13C183.422 253.447 183.837 254.709 184.574 255.64C185.31 256.571 186.309 257.096 187.351 257.098H326.383C327.425 257.096 328.424 256.571 329.161 255.64C329.898 254.709 330.312 253.447 330.314 252.13V5.15015C330.312 3.83325 329.898 2.57097 329.161 1.63978C328.424 0.708592 327.425 0.18439 326.383 0.181985H187.351Z" fill="#EBEBEB"/>
<path d="M74.628 287.908H38.88C37.2019 287.908 35.8416 289.627 35.8416 291.748V316.461C35.8416 318.582 37.2019 320.301 38.88 320.301H74.628C76.306 320.301 77.6664 318.582 77.6664 316.461V291.748C77.6664 289.627 76.306 287.908 74.628 287.908Z" fill="#EBEBEB"/>
<path d="M48.744 300.783H39.5352C39.3786 300.783 39.2285 300.705 39.1177 300.565C39.007 300.425 38.9448 300.235 38.9448 300.037C38.9448 299.838 39.0068 299.648 39.1173 299.506C39.2278 299.365 39.378 299.284 39.5352 299.282H48.744C48.9025 299.282 49.0545 299.362 49.1666 299.503C49.2787 299.645 49.3416 299.837 49.3416 300.037C49.3397 300.236 49.2759 300.426 49.1641 300.565C49.0522 300.705 48.9013 300.783 48.744 300.783Z" fill="#FAFAFA"/>
<path d="M74.8152 292.84H65.6064C65.4491 292.837 65.299 292.757 65.1885 292.615C65.078 292.474 65.016 292.283 65.016 292.085C65.016 291.886 65.078 291.695 65.1885 291.554C65.299 291.412 65.4491 291.332 65.6064 291.329H74.8152C74.9737 291.329 75.1257 291.409 75.2378 291.551C75.3498 291.692 75.4128 291.884 75.4128 292.085C75.4128 292.285 75.3498 292.477 75.2378 292.619C75.1257 292.76 74.9737 292.84 74.8152 292.84Z" fill="#FAFAFA"/>
<path d="M48.744 316.652H39.5352C39.378 316.65 39.2278 316.569 39.1173 316.428C39.0068 316.287 38.9448 316.096 38.9448 315.897C38.9448 315.698 39.0068 315.508 39.1173 315.366C39.2278 315.225 39.378 315.144 39.5352 315.142H48.744C48.9025 315.142 49.0545 315.221 49.1666 315.363C49.2787 315.505 49.3416 315.697 49.3416 315.897C49.3416 316.097 49.2787 316.289 49.1666 316.431C49.0545 316.573 48.9025 316.652 48.744 316.652Z" fill="#FAFAFA"/>
<path d="M41.9616 304.505H39.5352C39.378 304.502 39.2278 304.422 39.1173 304.28C39.0068 304.139 38.9448 303.948 38.9448 303.75C38.9448 303.552 39.007 303.362 39.1177 303.222C39.2285 303.082 39.3786 303.003 39.5352 303.003H41.9616C42.1182 303.003 42.2684 303.082 42.3791 303.222C42.4898 303.362 42.552 303.552 42.552 303.75C42.552 303.948 42.4901 304.139 42.3795 304.28C42.269 304.422 42.1189 304.502 41.9616 304.505Z" fill="#FAFAFA"/>
<path d="M74.0304 308.891H66.3912C65.7113 308.891 65.16 309.587 65.16 310.447V316.47C65.16 317.33 65.7113 318.026 66.3912 318.026H74.0304C74.7104 318.026 75.2616 317.33 75.2616 316.47V310.447C75.2616 309.587 74.7104 308.891 74.0304 308.891Z" fill="#E0E0E0"/>
<path d="M110.426 28.7351H61.6392C59.9612 28.7351 58.6008 30.4543 58.6008 32.575V67.3885C58.6008 69.5092 59.9612 71.2284 61.6392 71.2284H110.426C112.104 71.2284 113.465 69.5092 113.465 67.3885V32.575C113.465 30.4543 112.104 28.7351 110.426 28.7351Z" fill="#EBEBEB"/>
<path d="M75.528 45.6323H63.4536C63.3488 45.6372 63.2442 45.6154 63.1461 45.5683C63.048 45.5212 62.9584 45.4498 62.8825 45.3582C62.8067 45.2665 62.7461 45.1566 62.7045 45.0349C62.6628 44.9132 62.6409 44.7822 62.64 44.6496C62.6419 44.5178 62.6645 44.3877 62.7066 44.2671C62.7486 44.1464 62.8093 44.0376 62.8851 43.9469C62.9608 43.8563 63.0501 43.7856 63.1478 43.7391C63.2454 43.6926 63.3494 43.6711 63.4536 43.676H75.528C75.7362 43.676 75.9358 43.7805 76.083 43.9665C76.2301 44.1525 76.3128 44.4047 76.3128 44.6678C76.3072 44.9261 76.222 45.1714 76.0755 45.3515C75.9289 45.5317 75.7325 45.6324 75.528 45.6323Z" fill="#FAFAFA"/>
<path d="M109.735 35.205H97.6536C97.5509 35.205 97.4492 35.1793 97.3544 35.1293C97.2596 35.0794 97.1735 35.0062 97.1012 34.914C97.0289 34.8217 96.9718 34.7123 96.9331 34.5921C96.8945 34.4718 96.8751 34.343 96.876 34.2132C96.876 33.9526 96.9579 33.7026 97.1038 33.5183C97.2496 33.334 97.4474 33.2305 97.6536 33.2305H109.735C109.941 33.2305 110.139 33.334 110.285 33.5183C110.431 33.7026 110.513 33.9526 110.513 34.2132C110.514 34.343 110.494 34.4718 110.456 34.5921C110.417 34.7123 110.36 34.8217 110.288 34.914C110.215 35.0062 110.129 35.0794 110.034 35.1293C109.94 35.1793 109.838 35.205 109.735 35.205Z" fill="#FAFAFA"/>
<path d="M75.744 64.4587H63.2376C62.9235 64.4587 62.6688 64.7806 62.6688 65.1776V65.7144C62.6688 66.1114 62.9235 66.4333 63.2376 66.4333H75.744C76.0582 66.4333 76.3128 66.1114 76.3128 65.7144V65.1776C76.3128 64.7806 76.0582 64.4587 75.744 64.4587Z" fill="#FAFAFA"/>
<path d="M66.6288 50.5097H63.4536C63.3482 50.5146 63.243 50.4925 63.1444 50.4449C63.0459 50.3973 62.9559 50.325 62.88 50.2324C62.804 50.1398 62.7436 50.0288 62.7024 49.906C62.6612 49.7833 62.6399 49.6512 62.64 49.5179C62.6419 49.2564 62.7254 49.0065 62.8724 48.8224C63.0194 48.6384 63.2179 48.5351 63.4248 48.5352H66.6C66.8062 48.5352 67.004 48.6387 67.1499 48.823C67.2957 49.0073 67.3776 49.2572 67.3776 49.5179C67.3796 49.7739 67.3025 50.0208 67.1627 50.206C67.0228 50.3913 66.8313 50.5002 66.6288 50.5097Z" fill="#FAFAFA"/>
<path d="M109.087 56.2693H98.3016C97.6217 56.2693 97.0704 56.9659 97.0704 57.8253V66.697C97.0704 67.5563 97.6217 68.2529 98.3016 68.2529H109.087C109.767 68.2529 110.318 67.5563 110.318 66.697V57.8253C110.318 56.9659 109.767 56.2693 109.087 56.2693Z" fill="#E0E0E0"/>
<path d="M219.514 54.7681V59.6908H216.634V54.8136C213.228 54.5497 209.93 53.1485 208.123 51.1739L209.686 46.7426C211.704 48.6651 214.114 49.8232 216.634 50.082V41.3013C212.774 40.1093 208.642 38.5715 208.642 32.4296C208.642 27.9528 211.212 24.0401 216.634 23.385V18.4077H219.514V23.2849C222.003 23.4183 224.427 24.338 226.562 25.9601L225.122 30.4005C223.4 29.1218 221.484 28.3128 219.499 28.0256V36.8973C223.351 38.0802 227.556 39.6271 227.556 45.7235C227.57 50.2003 224.964 54.0675 219.514 54.7681ZM216.634 35.9783V28.2076C214.164 28.6898 213.127 30.264 213.127 32.2021C213.156 34.2585 214.646 35.2321 216.662 35.9783H216.634ZM223.114 46.1148C223.114 43.9674 221.58 42.9574 219.514 42.2112V49.9819C222.048 49.4997 223.128 48.0074 223.128 46.1148H223.114Z" fill="#E0E0E0"/>
<path d="M309.686 266.871V270.62H307.526V266.898C304.934 266.698 302.414 265.624 301.046 264.123L302.234 260.738C303.774 262.204 305.612 263.088 307.534 263.286V256.598C304.596 255.688 301.442 254.487 301.442 249.837C301.442 246.425 303.401 243.467 307.534 242.94V239.164H309.694V242.876C311.592 242.981 313.441 243.682 315.072 244.914L313.985 248.299C312.661 247.317 311.19 246.697 309.665 246.479V253.24C312.602 254.15 315.806 255.315 315.806 259.973C315.828 263.386 313.841 266.334 309.686 266.871ZM307.526 252.539V246.589C305.647 246.962 304.855 248.163 304.855 249.637C304.841 251.238 306 251.975 307.512 252.539H307.526ZM312.451 260.274C312.451 258.636 311.292 257.862 309.701 257.289V263.222C311.616 262.849 312.437 261.711 312.437 260.237L312.451 260.274Z" fill="#E0E0E0"/>
<path d="M38.6209 229.873C38.1264 229.212 37.7437 228.431 37.4962 227.576C37.2486 226.722 37.1413 225.813 37.1809 224.905C37.1552 223.641 37.3831 222.389 37.8433 221.265C38.2562 220.28 38.8898 219.469 39.6649 218.936C40.4784 218.415 41.3774 218.144 42.2893 218.144C43.2011 218.144 44.1001 218.415 44.9137 218.936C45.6893 219.471 46.3248 220.281 46.7425 221.265C47.1969 222.391 47.4221 223.642 47.3977 224.905C47.4359 225.813 47.3281 226.722 47.0806 227.576C46.833 228.43 46.451 229.211 45.9577 229.873C44.9521 231.033 43.6399 231.676 42.2785 231.676C40.917 231.676 39.6048 231.033 38.5993 229.873H38.6209ZM53.5825 218.49H58.2265L45.1009 242.776H40.4569L53.5825 218.49ZM43.2001 227.216C43.6514 225.731 43.6514 224.088 43.2001 222.603C43.1252 222.391 43.0034 222.212 42.8494 222.085C42.6955 221.959 42.5159 221.892 42.3325 221.892C42.149 221.892 41.9694 221.959 41.8155 222.085C41.6615 222.212 41.5398 222.391 41.4649 222.603C41.0136 224.088 41.0136 225.731 41.4649 227.216C41.5398 227.428 41.6615 227.608 41.8155 227.734C41.9694 227.86 42.149 227.927 42.3325 227.927C42.5159 227.927 42.6955 227.86 42.8494 227.734C43.0034 227.608 43.1252 227.428 43.2001 227.216ZM52.7401 241.32C52.2469 240.66 51.8649 239.88 51.6174 239.027C51.3699 238.175 51.2619 237.268 51.3001 236.361C51.2734 235.097 51.4987 233.846 51.9553 232.721C52.3692 231.736 53.0058 230.928 53.7841 230.401C54.5955 229.877 55.4937 229.604 56.4049 229.604C57.316 229.604 58.2142 229.877 59.0257 230.401C59.8039 230.928 60.4405 231.736 60.8545 232.721C61.3135 233.845 61.5413 235.097 61.5169 236.361C61.5546 237.268 61.4464 238.175 61.1989 239.027C60.9514 239.879 60.5697 240.659 60.0769 241.32C59.0728 242.484 57.76 243.129 56.3977 243.129C55.0353 243.129 53.7225 242.484 52.7185 241.32H52.7401ZM57.2833 238.663C57.7443 237.181 57.7443 235.532 57.2833 234.05C57.2097 233.838 57.0888 233.657 56.9354 233.53C56.7819 233.403 56.6026 233.336 56.4193 233.336C56.2359 233.336 56.0566 233.403 55.9031 233.53C55.7497 233.657 55.6288 233.838 55.5553 234.05C55.0942 235.532 55.0942 237.181 55.5553 238.663C55.6288 238.875 55.7497 239.056 55.9031 239.183C56.0566 239.309 56.2359 239.377 56.4193 239.377C56.6026 239.377 56.7819 239.309 56.9354 239.183C57.0888 239.056 57.2097 238.875 57.2833 238.663Z" fill="#E0E0E0"/>
<path d="M273.946 93.8129C273.25 92.8721 272.712 91.7632 272.364 90.5528C272.017 89.3425 271.866 88.0558 271.922 86.7701C271.883 84.972 272.205 83.1907 272.858 81.5926C273.445 80.1944 274.347 79.048 275.45 78.2987C276.603 77.5572 277.879 77.1707 279.173 77.1707C280.467 77.1707 281.742 77.5572 282.895 78.2987C283.995 79.0532 284.896 80.1983 285.487 81.5926C286.134 83.1931 286.454 84.9732 286.416 86.7701C286.475 88.0553 286.326 89.3423 285.98 90.5529C285.633 91.7635 285.096 92.8726 284.4 93.8129C282.972 95.458 281.109 96.3699 279.176 96.3699C277.244 96.3699 275.381 95.458 273.953 93.8129H273.946ZM295.2 77.6527H301.788L283.162 112.13H276.574L295.2 77.6527ZM280.397 90.0822C281.049 87.9763 281.049 85.6367 280.397 83.5308C280.293 83.2288 280.121 82.9718 279.903 82.7913C279.685 82.6108 279.43 82.5147 279.169 82.5147C278.908 82.5147 278.653 82.6108 278.435 82.7913C278.217 82.9718 278.046 83.2288 277.942 83.5308C277.298 85.6388 277.298 87.9741 277.942 90.0822C278.046 90.3841 278.217 90.6411 278.435 90.8216C278.653 91.0021 278.908 91.0982 279.169 91.0982C279.43 91.0982 279.685 91.0021 279.903 90.8216C280.121 90.6411 280.293 90.3841 280.397 90.0822ZM293.94 110.1C293.244 109.16 292.706 108.051 292.359 106.84C292.011 105.63 291.861 104.343 291.917 103.058C291.877 101.262 292.199 99.4841 292.853 97.8893C293.437 96.4867 294.34 95.3366 295.445 94.5863C296.597 93.8448 297.871 93.4583 299.164 93.4583C300.456 93.4583 301.73 93.8448 302.882 94.5863C303.987 95.3366 304.89 96.4867 305.474 97.8893C306.128 99.4841 306.45 101.262 306.41 103.058C306.468 104.344 306.319 105.631 305.971 106.841C305.623 108.052 305.084 109.161 304.387 110.1C302.961 111.751 301.097 112.667 299.164 112.667C297.23 112.667 295.366 111.751 293.94 110.1ZM300.42 106.333C301.073 104.227 301.073 101.888 300.42 99.7819C300.316 99.48 300.144 99.223 299.926 99.0425C299.708 98.862 299.453 98.7659 299.192 98.7659C298.932 98.7659 298.677 98.862 298.459 99.0425C298.241 99.223 298.069 99.48 297.965 99.7819C297.312 101.888 297.312 104.227 297.965 106.333C298.069 106.635 298.241 106.892 298.459 107.073C298.677 107.253 298.932 107.349 299.192 107.349C299.453 107.349 299.708 107.253 299.926 107.073C300.144 106.892 300.316 106.635 300.42 106.333Z" fill="#E0E0E0"/>
<path d="M180 339C257.099 339 319.601 334.388 319.601 328.7C319.601 323.011 257.099 318.399 180 318.399C102.901 318.399 40.3992 323.011 40.3992 328.7C40.3992 334.388 102.901 339 180 339Z" fill="#F5F5F5"/>
<path d="M295.56 108.226H67.1472C64.6247 108.226 62.2054 109.492 60.4218 111.747C58.6381 114.001 57.636 117.058 57.636 120.246V303.14C57.636 306.329 58.6378 309.387 60.4213 311.643C62.2048 313.898 64.624 315.167 67.1472 315.169H97.4664V309.309C97.4664 308.482 97.7266 307.688 98.1897 307.103C98.6528 306.517 99.281 306.188 99.936 306.188H262.8C263.125 306.187 263.446 306.267 263.746 306.423C264.046 306.58 264.319 306.81 264.548 307.1C264.778 307.39 264.96 307.734 265.084 308.114C265.207 308.493 265.271 308.899 265.27 309.309V315.169H295.56C296.81 315.169 298.047 314.858 299.201 314.253C300.356 313.649 301.405 312.763 302.288 311.645C303.171 310.528 303.872 309.202 304.349 307.743C304.827 306.283 305.072 304.719 305.071 303.14V120.246C305.072 118.667 304.827 117.104 304.349 115.645C303.871 114.186 303.171 112.86 302.288 111.744C301.404 110.628 300.355 109.742 299.201 109.139C298.046 108.535 296.809 108.225 295.56 108.226Z" fill="#263238"/>
<path opacity="0.2" d="M295.56 108.226H67.1472C64.6247 108.226 62.2054 109.492 60.4218 111.747C58.6381 114.001 57.636 117.058 57.636 120.246V303.14C57.636 306.329 58.6378 309.387 60.4213 311.643C62.2048 313.898 64.624 315.167 67.1472 315.169H97.4664V309.309C97.4664 308.482 97.7266 307.688 98.1897 307.103C98.6528 306.517 99.281 306.188 99.936 306.188H262.8C263.125 306.187 263.446 306.267 263.746 306.423C264.046 306.58 264.319 306.81 264.548 307.1C264.778 307.39 264.96 307.734 265.084 308.114C265.207 308.493 265.271 308.899 265.27 309.309V315.169H295.56C296.81 315.169 298.047 314.858 299.201 314.253C300.356 313.649 301.405 312.763 302.288 311.645C303.171 310.528 303.872 309.202 304.349 307.743C304.827 306.283 305.072 304.719 305.071 303.14V120.246C305.072 118.667 304.827 117.104 304.349 115.645C303.871 114.186 303.171 112.86 302.288 111.744C301.404 110.628 300.355 109.742 299.201 109.139C298.046 108.535 296.809 108.225 295.56 108.226Z" fill="white"/>
<path d="M183.355 116.097C183.355 116.597 183.238 117.086 183.018 117.502C182.798 117.918 182.485 118.242 182.12 118.434C181.754 118.625 181.351 118.675 180.963 118.578C180.575 118.48 180.218 118.239 179.938 117.885C179.658 117.532 179.468 117.081 179.391 116.59C179.313 116.1 179.353 115.591 179.504 115.129C179.656 114.666 179.912 114.271 180.242 113.993C180.571 113.716 180.958 113.567 181.354 113.567C181.617 113.566 181.877 113.631 182.121 113.757C182.364 113.884 182.585 114.07 182.771 114.305C182.957 114.541 183.105 114.82 183.205 115.127C183.305 115.435 183.356 115.764 183.355 116.097Z" fill="#1F68BE"/>
<path d="M323.77 310.674H38.9448V319.682H323.77V310.674Z" fill="#263238"/>
<path opacity="0.5" d="M323.77 310.674H38.9448V319.682H323.77V310.674Z" fill="white"/>
<path d="M38.9448 319.682L43.3512 324.141C46.2574 327.086 49.8715 328.691 53.5968 328.691H309.11C312.836 328.691 316.45 327.086 319.356 324.141L323.77 319.682H38.9448Z" fill="#263238"/>
<path opacity="0.3" d="M38.9448 319.682L43.3512 324.141C46.2574 327.086 49.8715 328.691 53.5968 328.691H309.11C312.836 328.691 316.45 327.086 319.356 324.141L323.77 319.682H38.9448Z" fill="white"/>
<path opacity="0.4" d="M153.986 310.965C153.986 311.518 154.071 312.066 154.238 312.577C154.404 313.088 154.649 313.552 154.958 313.944C155.267 314.335 155.634 314.645 156.038 314.857C156.442 315.069 156.875 315.178 157.313 315.178H205.394C205.832 315.178 206.265 315.069 206.669 314.857C207.073 314.645 207.44 314.335 207.749 313.944C208.058 313.552 208.303 313.088 208.47 312.577C208.636 312.066 208.722 311.518 208.721 310.965C208.721 310.865 208.721 310.774 208.721 310.674H154.001C154.001 310.774 153.986 310.865 153.986 310.965Z" fill="white"/>
<path d="M293.947 126.634H68.1049V289.073H293.947V126.634Z" fill="#1F68BE"/>
<g opacity="0.9">
<path d="M293.947 126.634H68.1049V289.073H293.947V126.634Z" fill="white"/>
</g>
<path d="M261.338 152.612H98.1432V159.436H261.338V152.612Z" fill="#1F68BE"/>
<g opacity="0.8">
<path d="M261.338 152.612H98.1432V159.436H261.338V152.612Z" fill="white"/>
</g>
<path d="M267.178 152.612H261.331V159.436H267.178V152.612Z" fill="#1F68BE"/>
<g opacity="0.5">
<path d="M267.178 152.612H261.331V159.436H267.178V152.612Z" fill="white"/>
</g>
<path d="M293.947 126.634H68.1049V134.35H293.947V126.634Z" fill="#1F68BE"/>
<path d="M277.711 130.492C277.713 130.932 277.611 131.362 277.418 131.729C277.226 132.095 276.951 132.381 276.63 132.55C276.309 132.72 275.955 132.764 275.613 132.679C275.272 132.594 274.958 132.382 274.712 132.071C274.466 131.76 274.299 131.363 274.231 130.932C274.163 130.5 274.199 130.053 274.333 129.647C274.467 129.241 274.693 128.894 274.983 128.651C275.273 128.408 275.614 128.279 275.962 128.281C276.426 128.281 276.871 128.514 277.199 128.928C277.527 129.343 277.711 129.905 277.711 130.492Z" fill="white"/>
<path d="M284.436 130.492C284.437 130.931 284.336 131.362 284.143 131.728C283.951 132.094 283.677 132.38 283.356 132.55C283.036 132.719 282.682 132.764 282.341 132.68C282 132.595 281.686 132.384 281.439 132.074C281.193 131.764 281.025 131.368 280.957 130.937C280.888 130.507 280.923 130.06 281.055 129.653C281.188 129.247 281.413 128.9 281.702 128.656C281.991 128.411 282.331 128.281 282.679 128.281C282.909 128.28 283.138 128.336 283.351 128.446C283.564 128.557 283.758 128.72 283.921 128.925C284.084 129.131 284.214 129.375 284.302 129.644C284.39 129.912 284.436 130.201 284.436 130.492Z" fill="white"/>
<path d="M291.154 130.492C291.156 130.932 291.055 131.363 290.863 131.73C290.671 132.097 290.397 132.383 290.075 132.551C289.754 132.72 289.399 132.764 289.058 132.677C288.717 132.59 288.404 132.376 288.159 132.063C287.915 131.75 287.749 131.352 287.685 130.919C287.62 130.487 287.659 130.04 287.797 129.636C287.934 129.232 288.164 128.889 288.457 128.65C288.75 128.412 289.092 128.29 289.44 128.299C289.895 128.311 290.329 128.546 290.649 128.956C290.969 129.365 291.15 129.916 291.154 130.492Z" fill="white"/>
<path d="M73.1592 158.872C72.8496 158.787 72.553 158.64 72.2808 158.435L72.7704 157.025C72.9969 157.19 73.2387 157.318 73.4904 157.407C73.7402 157.502 73.9997 157.552 74.2608 157.553C74.4171 157.565 74.5738 157.537 74.7216 157.471C74.7603 157.456 74.7943 157.426 74.8188 157.385C74.8433 157.344 74.8572 157.295 74.8584 157.243C74.8564 157.179 74.8377 157.118 74.8051 157.068C74.7726 157.019 74.728 156.984 74.6784 156.97C74.4862 156.883 74.2888 156.816 74.088 156.77C73.7898 156.697 73.4962 156.597 73.2096 156.47C72.9769 156.364 72.769 156.185 72.6048 155.951C72.423 155.673 72.3305 155.319 72.3456 154.959C72.3423 154.609 72.4253 154.265 72.5832 153.977C72.7623 153.657 73.0131 153.413 73.3032 153.276C73.6716 153.091 74.0662 153.005 74.4624 153.021C74.7699 153.023 75.0764 153.065 75.3768 153.149C75.6565 153.222 75.9259 153.347 76.176 153.522L75.7152 154.923C75.3244 154.659 74.8908 154.513 74.448 154.495C74.052 154.495 73.8576 154.623 73.8576 154.859C73.8576 155.096 73.9152 155.06 74.0304 155.114C74.2168 155.202 74.4098 155.266 74.6064 155.305C74.9046 155.37 75.1983 155.464 75.4848 155.587C75.7213 155.694 75.9337 155.872 76.104 156.106C76.2872 156.38 76.3823 156.73 76.3704 157.089C76.3745 157.441 76.2887 157.786 76.1256 158.071C75.9437 158.387 75.6937 158.631 75.4056 158.772C75.0366 158.954 74.6424 159.041 74.2464 159.027C73.8806 159.025 73.516 158.973 73.1592 158.872Z" fill="#263238"/>
<path d="M77.76 154.686H76.428V153.176H80.64V154.686H79.3152V158.927H77.76V154.686Z" fill="#263238"/>
<path d="M82.0081 158.645C81.6328 158.397 81.317 158.026 81.0937 157.571C80.8767 157.102 80.7623 156.568 80.7623 156.024C80.7623 155.481 80.8767 154.947 81.0937 154.477C81.317 154.022 81.6328 153.652 82.0081 153.404C82.4189 153.152 82.8693 153.022 83.3257 153.022C83.7821 153.022 84.2325 153.152 84.6433 153.404C85.0262 153.649 85.3478 154.024 85.5724 154.487C85.7971 154.949 85.916 155.481 85.916 156.024C85.916 156.567 85.7971 157.099 85.5724 157.562C85.3478 158.024 85.0262 158.399 84.6433 158.645C84.2325 158.896 83.7821 159.027 83.3257 159.027C82.8693 159.027 82.4189 158.896 82.0081 158.645ZM83.8441 157.28C83.9993 157.161 84.1261 156.991 84.2113 156.788C84.3068 156.552 84.3539 156.289 84.3481 156.024C84.3549 155.762 84.3077 155.501 84.2113 155.269C84.1263 155.064 83.9995 154.891 83.8441 154.768C83.6888 154.65 83.5108 154.587 83.3293 154.587C83.1478 154.587 82.9697 154.65 82.8145 154.768C82.6556 154.886 82.5278 155.06 82.4473 155.269C82.3508 155.501 82.3037 155.762 82.3105 156.024C82.3047 156.289 82.3517 156.552 82.4473 156.788C82.5282 156.995 82.6561 157.166 82.8145 157.28C82.9697 157.399 83.1478 157.462 83.3293 157.462C83.5108 157.462 83.6888 157.399 83.8441 157.28Z" fill="#263238"/>
<path d="M88.4016 157.416H87.984V158.863H86.4504V153.112H88.6104C88.9858 153.103 89.3585 153.193 89.7048 153.376C90.0017 153.532 90.2542 153.799 90.429 154.14C90.6038 154.481 90.6927 154.881 90.684 155.287C90.6972 155.663 90.6231 156.036 90.4709 156.359C90.3187 156.682 90.0949 156.942 89.8272 157.107L90.7776 158.881H89.1432L88.4016 157.416ZM89.0064 154.787C88.8712 154.689 88.7135 154.654 88.56 154.687H88.0056V156.033H88.56C88.7285 156.049 88.8955 155.984 89.028 155.851C89.082 155.79 89.1243 155.714 89.1518 155.629C89.1792 155.543 89.191 155.452 89.1864 155.36C89.1937 155.259 89.181 155.157 89.1496 155.063C89.1182 154.969 89.069 154.887 89.0064 154.823V154.787Z" fill="#263238"/>
<path d="M95.04 157.416V158.881H91.26V153.131H94.9536V154.596H92.7936V155.269H94.716V156.661H92.7936V157.416H95.04Z" fill="#263238"/>
<path d="M272.88 159.427C272.88 159.622 272.834 159.812 272.749 159.973C272.664 160.135 272.542 160.261 272.4 160.335C272.258 160.41 272.102 160.429 271.951 160.391C271.8 160.353 271.661 160.26 271.553 160.122C271.444 159.985 271.37 159.81 271.34 159.619C271.31 159.428 271.325 159.231 271.384 159.051C271.443 158.872 271.543 158.718 271.67 158.61C271.798 158.502 271.949 158.445 272.102 158.445C272.309 158.445 272.506 158.548 272.652 158.732C272.798 158.917 272.88 159.167 272.88 159.427Z" fill="#263238"/>
<path d="M277.711 159.427C277.713 159.624 277.668 159.817 277.582 159.982C277.496 160.146 277.374 160.275 277.23 160.351C277.086 160.427 276.928 160.448 276.775 160.41C276.622 160.372 276.482 160.277 276.371 160.138C276.261 159.998 276.186 159.821 276.156 159.628C276.126 159.434 276.142 159.234 276.203 159.053C276.263 158.871 276.365 158.716 276.495 158.608C276.625 158.5 276.778 158.443 276.934 158.445C277.139 158.447 277.336 158.551 277.481 158.735C277.627 158.919 277.709 159.167 277.711 159.427Z" fill="#263238"/>
<path d="M271.44 152.457L270.914 150.328H268.942V151.047H270.518L272.002 157.125H277.178L277.639 153.103L271.44 152.457ZM276.775 156.597L272.362 156.534L271.526 152.994L277.135 153.513L276.775 156.597Z" fill="#263238"/>
<path d="M293.947 134.35H68.1049V149.018H293.947V134.35Z" fill="#1F68BE"/>
<g opacity="0.7">
<path d="M293.947 134.35H68.1049V149.018H293.947V134.35Z" fill="white"/>
</g>
<path d="M216.403 137.662H85.2335C83.8895 137.662 82.7999 139.039 82.7999 140.737V142.621C82.7999 144.32 83.8895 145.696 85.2335 145.696H216.403C217.747 145.696 218.837 144.32 218.837 142.621V140.737C218.837 139.039 217.747 137.662 216.403 137.662Z" fill="#263238"/>
<path opacity="0.7" d="M216.403 137.662H85.2335C83.8895 137.662 82.7999 139.039 82.7999 140.737V142.621C82.7999 144.32 83.8895 145.696 85.2335 145.696H216.403C217.747 145.696 218.837 144.32 218.837 142.621V140.737C218.837 139.039 217.747 137.662 216.403 137.662Z" fill="white"/>
<path d="M214.646 138.599L215.438 140.628L217.21 140.956L215.928 142.53L216.23 144.759L214.646 143.713L213.062 144.759L213.365 142.53L212.083 140.956L213.854 140.628L214.646 138.599Z" fill="#1F68BE"/>
<path d="M76.3848 137.471L72.8856 141.893H73.908V145.888H78.8616V141.893H79.884L76.3848 137.471Z" fill="#1F68BE"/>
<path d="M204.386 191.083H206.323C206.725 191.074 207.123 191.176 207.49 191.384C207.815 191.582 208.086 191.899 208.267 192.294C208.46 192.69 208.557 193.148 208.548 193.613C208.556 194.081 208.459 194.541 208.267 194.941C208.08 195.317 207.81 195.615 207.49 195.797C207.125 196.012 206.726 196.118 206.323 196.106H204.386V191.083ZM206.273 194.723C206.459 194.717 206.64 194.643 206.794 194.51C206.948 194.377 207.068 194.19 207.139 193.972C207.211 193.755 207.231 193.516 207.197 193.284C207.164 193.052 207.078 192.838 206.95 192.667C206.764 192.458 206.521 192.35 206.273 192.366H205.711V194.723H206.273Z" fill="#1F68BE"/>
<path d="M212.249 194.441H210.089C210.13 194.583 210.209 194.702 210.312 194.778C210.432 194.864 210.57 194.906 210.708 194.896C210.823 194.902 210.938 194.881 211.046 194.832C211.154 194.777 211.256 194.703 211.349 194.614L212.011 195.46C211.836 195.679 211.626 195.848 211.395 195.955C211.164 196.062 210.917 196.104 210.672 196.079C210.334 196.09 209.999 196.003 209.693 195.824C209.426 195.666 209.199 195.417 209.038 195.105C208.887 194.791 208.807 194.431 208.807 194.063C208.807 193.696 208.887 193.336 209.038 193.022C209.189 192.718 209.403 192.473 209.657 192.312C209.933 192.134 210.24 192.044 210.55 192.048C210.846 192.045 211.138 192.126 211.406 192.285C211.657 192.439 211.869 192.678 212.018 192.976C212.174 193.305 212.252 193.684 212.242 194.068C212.242 194.068 212.263 194.214 212.249 194.441ZM210.24 193.286C210.154 193.388 210.097 193.521 210.074 193.668H211.068C211.046 193.519 210.985 193.384 210.895 193.286C210.804 193.192 210.689 193.144 210.571 193.149C210.452 193.144 210.334 193.192 210.24 193.286Z" fill="#1F68BE"/>
<path d="M212.666 190.738H213.934V196.015H212.666V190.738Z" fill="#1F68BE"/>
<path d="M214.56 191.584C214.492 191.512 214.438 191.421 214.401 191.319C214.365 191.216 214.348 191.105 214.351 190.993C214.348 190.882 214.365 190.771 214.402 190.67C214.438 190.569 214.492 190.48 214.56 190.41C214.715 190.246 214.913 190.162 215.114 190.174C215.314 190.16 215.511 190.238 215.669 190.392C215.735 190.462 215.789 190.549 215.825 190.649C215.861 190.748 215.879 190.856 215.878 190.965C215.879 191.08 215.862 191.194 215.826 191.299C215.79 191.404 215.736 191.498 215.669 191.575C215.514 191.739 215.316 191.823 215.114 191.811C214.914 191.821 214.717 191.741 214.56 191.584ZM214.481 192.121H215.748V196.015H214.481V192.121Z" fill="#1F68BE"/>
<path d="M219.758 192.121L218.52 196.015H217.202L216 192.121H217.303L217.922 194.204L218.585 192.121H219.758Z" fill="#1F68BE"/>
<path d="M223.128 194.441H220.968C221.009 194.583 221.088 194.702 221.191 194.778C221.311 194.864 221.449 194.906 221.587 194.896C221.702 194.902 221.817 194.881 221.926 194.832C222.034 194.777 222.135 194.703 222.228 194.614L222.89 195.46C222.716 195.68 222.506 195.849 222.275 195.956C222.043 196.063 221.797 196.105 221.551 196.079C221.214 196.09 220.879 196.003 220.572 195.824C220.305 195.666 220.078 195.417 219.917 195.105C219.766 194.791 219.687 194.431 219.687 194.063C219.687 193.696 219.766 193.336 219.917 193.022C220.068 192.718 220.282 192.473 220.536 192.312C220.812 192.134 221.119 192.044 221.429 192.048C221.725 192.044 222.018 192.125 222.286 192.285C222.537 192.439 222.749 192.678 222.898 192.976C223.054 193.305 223.131 193.684 223.121 194.068C223.121 194.068 223.142 194.214 223.128 194.441ZM221.141 193.286C221.051 193.384 220.99 193.519 220.968 193.668H221.962C221.94 193.519 221.879 193.384 221.789 193.286C221.695 193.197 221.582 193.149 221.465 193.149C221.348 193.149 221.234 193.197 221.141 193.286Z" fill="#1F68BE"/>
<path d="M225.749 192.048V193.477H225.468C225.379 193.461 225.287 193.472 225.202 193.509C225.116 193.546 225.039 193.607 224.975 193.689C224.912 193.77 224.864 193.869 224.836 193.977C224.808 194.085 224.8 194.201 224.813 194.314V196.043H223.546V192.148H224.755V192.567C224.879 192.391 225.033 192.254 225.205 192.164C225.377 192.074 225.563 192.035 225.749 192.048Z" fill="#1F68BE"/>
<path d="M229.622 192.121L228.355 196.088C228.246 196.513 228.035 196.885 227.75 197.152C227.49 197.368 227.183 197.476 226.872 197.462C226.694 197.464 226.516 197.43 226.346 197.362C226.199 197.313 226.059 197.23 225.936 197.116L226.361 196.015C226.426 196.078 226.499 196.127 226.577 196.161C226.651 196.195 226.729 196.213 226.807 196.215C226.866 196.221 226.925 196.211 226.98 196.184C227.035 196.157 227.084 196.115 227.124 196.061L225.828 192.121H227.131L227.772 194.204L228.413 192.121H229.622Z" fill="#1F68BE"/>
<path d="M234.23 195.142H232.733L232.466 196.051H231.12L232.841 191.074H234.144L235.865 196.051H234.49L234.23 195.142ZM233.863 193.94L233.482 192.685L233.1 193.94H233.863Z" fill="#1F68BE"/>
<path d="M239.414 190.738V196.015H238.205V195.688C238.095 195.826 237.963 195.932 237.818 196C237.672 196.067 237.517 196.094 237.362 196.079C237.111 196.074 236.864 195.993 236.642 195.842C236.414 195.673 236.227 195.427 236.102 195.132C235.967 194.804 235.898 194.438 235.901 194.068C235.896 193.697 235.965 193.331 236.102 193.003C236.227 192.708 236.414 192.463 236.642 192.294C236.862 192.136 237.11 192.051 237.362 192.048C237.647 192.026 237.926 192.147 238.14 192.385V190.738H239.414ZM238.025 194.632C238.126 194.472 238.177 194.272 238.169 194.068C238.179 193.864 238.128 193.662 238.025 193.504C237.979 193.441 237.923 193.391 237.861 193.356C237.799 193.322 237.733 193.304 237.665 193.304C237.597 193.304 237.53 193.322 237.468 193.356C237.406 193.391 237.351 193.441 237.305 193.504C237.202 193.662 237.151 193.864 237.161 194.068C237.153 194.272 237.204 194.472 237.305 194.632C237.351 194.695 237.406 194.745 237.468 194.779C237.53 194.814 237.597 194.831 237.665 194.831C237.733 194.831 237.799 194.814 237.861 194.779C237.923 194.745 237.979 194.695 238.025 194.632Z" fill="#1F68BE"/>
<path d="M243.36 190.738V196.015H242.15V195.688C242.041 195.826 241.909 195.932 241.763 196C241.618 196.067 241.462 196.094 241.308 196.079C241.056 196.074 240.809 195.993 240.588 195.842C240.36 195.673 240.173 195.427 240.048 195.132C239.912 194.804 239.843 194.438 239.846 194.068C239.841 193.697 239.911 193.331 240.048 193.003C240.173 192.708 240.36 192.463 240.588 192.294C240.808 192.136 241.055 192.051 241.308 192.048C241.592 192.026 241.872 192.147 242.086 192.385V190.738H243.36ZM241.97 194.632C242.069 194.471 242.117 194.271 242.107 194.068C242.119 193.865 242.071 193.663 241.97 193.504C241.926 193.438 241.871 193.386 241.809 193.352C241.746 193.317 241.679 193.301 241.61 193.304C241.542 193.3 241.474 193.316 241.412 193.351C241.35 193.386 241.294 193.438 241.25 193.504C241.148 193.662 241.096 193.864 241.106 194.068C241.098 194.272 241.15 194.472 241.25 194.632C241.294 194.698 241.35 194.75 241.412 194.785C241.474 194.82 241.542 194.836 241.61 194.832C241.682 194.839 241.754 194.825 241.82 194.79C241.887 194.755 241.946 194.701 241.992 194.632H241.97Z" fill="#1F68BE"/>
<path d="M246.146 192.048V193.477H245.866C245.776 193.461 245.685 193.472 245.599 193.509C245.514 193.546 245.436 193.607 245.373 193.689C245.309 193.77 245.262 193.869 245.233 193.977C245.205 194.085 245.197 194.201 245.21 194.314V196.043H243.943V192.148H245.153V192.567C245.277 192.391 245.431 192.254 245.603 192.164C245.775 192.074 245.961 192.035 246.146 192.048Z" fill="#1F68BE"/>
<path d="M249.739 194.441H247.579C247.618 194.584 247.698 194.704 247.802 194.778C247.923 194.864 248.06 194.906 248.198 194.896C248.313 194.901 248.428 194.879 248.537 194.832C248.645 194.777 248.746 194.703 248.839 194.614L249.502 195.46C249.325 195.679 249.114 195.847 248.882 195.954C248.649 196.061 248.402 196.103 248.155 196.079C247.818 196.089 247.483 196.002 247.176 195.824C246.911 195.666 246.686 195.417 246.528 195.105C246.37 194.797 246.29 194.435 246.298 194.068C246.289 193.703 246.365 193.342 246.516 193.03C246.667 192.718 246.886 192.469 247.147 192.312C247.424 192.134 247.73 192.044 248.04 192.048C248.334 192.045 248.624 192.126 248.89 192.285C249.142 192.435 249.355 192.675 249.502 192.976C249.66 193.304 249.74 193.684 249.732 194.068C249.732 194.068 249.746 194.214 249.739 194.441ZM247.745 193.286C247.654 193.383 247.595 193.519 247.579 193.668H248.566C248.547 193.52 248.488 193.385 248.4 193.286C248.306 193.191 248.189 193.142 248.069 193.149C247.951 193.144 247.836 193.192 247.745 193.286Z" fill="#1F68BE"/>
<path d="M250.56 195.979C250.343 195.926 250.134 195.831 249.941 195.697L250.286 194.641C250.446 194.758 250.618 194.844 250.798 194.896C250.981 194.957 251.17 194.987 251.359 194.987C251.464 194.993 251.568 194.978 251.669 194.942C251.693 194.934 251.714 194.916 251.73 194.892C251.746 194.867 251.754 194.837 251.755 194.805C251.755 194.741 251.719 194.696 251.647 194.678C251.529 194.644 251.408 194.62 251.287 194.605C251.071 194.573 250.857 194.525 250.646 194.459C250.471 194.399 250.312 194.279 250.186 194.114C250.115 194.016 250.061 193.901 250.026 193.776C249.991 193.651 249.977 193.518 249.984 193.386C249.981 193.139 250.044 192.898 250.164 192.703C250.307 192.487 250.493 192.323 250.704 192.23C250.978 192.102 251.269 192.04 251.561 192.048C251.79 192.048 252.019 192.075 252.245 192.13C252.443 192.174 252.635 192.257 252.814 192.376L252.468 193.431C252.195 193.241 251.887 193.144 251.575 193.149C251.302 193.149 251.158 193.213 251.158 193.331C251.158 193.449 251.201 193.44 251.273 193.468L251.626 193.54C251.842 193.567 252.056 193.615 252.266 193.686C252.44 193.752 252.598 193.871 252.727 194.032C252.868 194.235 252.94 194.499 252.929 194.769C252.926 195.009 252.863 195.241 252.749 195.433C252.604 195.647 252.418 195.81 252.209 195.906C251.929 196.03 251.634 196.089 251.338 196.079C251.076 196.083 250.815 196.049 250.56 195.979Z" fill="#1F68BE"/>
<path d="M253.757 195.979C253.54 195.925 253.332 195.83 253.138 195.697L253.49 194.641C253.648 194.756 253.818 194.842 253.994 194.896C254.18 194.957 254.371 194.988 254.563 194.987C254.668 194.992 254.772 194.976 254.873 194.941C254.897 194.934 254.918 194.916 254.934 194.891C254.95 194.867 254.958 194.836 254.959 194.805C254.959 194.741 254.923 194.696 254.844 194.678C254.728 194.644 254.61 194.619 254.491 194.605C254.275 194.574 254.061 194.525 253.85 194.459C253.673 194.398 253.511 194.279 253.382 194.113C253.245 193.912 253.175 193.651 253.188 193.386C253.185 193.139 253.248 192.898 253.368 192.703C253.506 192.485 253.691 192.321 253.901 192.23C254.175 192.102 254.466 192.041 254.758 192.048C254.987 192.047 255.216 192.075 255.442 192.13C255.642 192.174 255.837 192.257 256.018 192.376L255.665 193.431C255.394 193.241 255.089 193.144 254.779 193.149C254.498 193.149 254.362 193.213 254.362 193.331C254.362 193.449 254.398 193.44 254.47 193.467L254.83 193.54C255.044 193.566 255.256 193.615 255.463 193.686C255.638 193.748 255.797 193.867 255.924 194.032C255.995 194.131 256.05 194.247 256.085 194.374C256.119 194.501 256.133 194.635 256.126 194.769C256.127 195.009 256.063 195.244 255.946 195.433C255.802 195.649 255.616 195.812 255.406 195.906C255.126 196.031 254.831 196.09 254.534 196.079C254.273 196.081 254.012 196.048 253.757 195.979Z" fill="#1F68BE"/>
<path d="M245.506 209.155H204.113V212.276H245.506V209.155Z" fill="#1F68BE"/>
<path d="M237.031 214.168H204.113V217.289H237.031V214.168Z" fill="#1F68BE"/>
<path d="M249.581 219.182H204.113V222.303H249.581V219.182Z" fill="#1F68BE"/>
<path d="M242.287 224.195H204.113V227.316H242.287V224.195Z" fill="#1F68BE"/>
<path d="M257.702 241.539H208.483C206.32 241.539 204.566 243.755 204.566 246.489V248.518C204.566 251.251 206.32 253.468 208.483 253.468H257.702C259.866 253.468 261.619 251.251 261.619 248.518V246.489C261.619 243.755 259.866 241.539 257.702 241.539Z" fill="#1F68BE"/>
<path d="M213.264 245.378C213.414 245.468 213.548 245.596 213.656 245.755C213.764 245.914 213.845 246.1 213.892 246.301C213.94 246.502 213.953 246.713 213.932 246.921C213.91 247.129 213.855 247.329 213.768 247.507C213.642 247.739 213.467 247.922 213.264 248.035C213.022 248.161 212.762 248.223 212.501 248.217H212.04V249.2H210.96V245.196H212.486C212.753 245.188 213.018 245.25 213.264 245.378ZM212.76 247.053C212.797 247.008 212.825 246.954 212.844 246.895C212.862 246.835 212.871 246.771 212.868 246.707C212.871 246.643 212.863 246.578 212.845 246.519C212.826 246.459 212.797 246.405 212.76 246.361C212.666 246.269 212.548 246.224 212.429 246.234H212.04V247.143H212.4C212.525 247.173 212.654 247.141 212.76 247.053Z" fill="white"/>
<path d="M216.338 246.379C216.464 246.518 216.564 246.691 216.63 246.884C216.696 247.078 216.727 247.288 216.72 247.499V249.182H215.77V248.772C215.7 248.932 215.594 249.061 215.466 249.144C215.338 249.227 215.193 249.259 215.05 249.237C214.876 249.242 214.704 249.198 214.546 249.109C214.418 249.035 214.311 248.915 214.237 248.765C214.163 248.614 214.125 248.44 214.128 248.263C214.123 248.125 214.146 247.988 214.195 247.865C214.244 247.743 214.318 247.638 214.409 247.562C214.667 247.379 214.963 247.297 215.258 247.326H215.669C215.669 247.08 215.482 246.953 215.208 246.953C215.093 246.955 214.979 246.979 214.87 247.025C214.763 247.059 214.663 247.118 214.574 247.198L214.243 246.352C214.405 246.232 214.579 246.143 214.762 246.088C214.957 246.027 215.158 245.996 215.359 245.997C215.711 245.975 216.058 246.11 216.338 246.379ZM215.532 248.408C215.594 248.357 215.639 248.28 215.662 248.19V247.972H215.41C215.201 247.972 215.1 248.063 215.1 248.236C215.099 248.27 215.105 248.305 215.116 248.336C215.127 248.368 215.144 248.395 215.165 248.418C215.214 248.467 215.275 248.493 215.338 248.49C215.408 248.494 215.477 248.465 215.532 248.408Z" fill="white"/>
<path d="M219.838 246.07L218.822 249.264C218.73 249.604 218.559 249.901 218.333 250.119C218.119 250.294 217.867 250.38 217.613 250.365C217.472 250.363 217.331 250.339 217.195 250.292C217.075 250.251 216.962 250.18 216.864 250.083L217.202 249.173C217.255 249.223 217.313 249.263 217.375 249.291C217.435 249.319 217.499 249.334 217.562 249.337C217.609 249.34 217.656 249.33 217.699 249.308C217.743 249.286 217.782 249.252 217.814 249.209L216.778 246.043H217.822L218.333 247.717L218.858 246.043L219.838 246.07Z" fill="white"/>
<path d="M223.992 246.361C224.187 246.655 224.283 247.034 224.258 247.416V249.236H223.236V247.671C223.236 247.316 223.142 247.134 222.962 247.134C222.917 247.133 222.872 247.144 222.831 247.168C222.79 247.191 222.753 247.227 222.725 247.271C222.659 247.4 222.628 247.554 222.638 247.708V249.236H221.616V247.671C221.616 247.316 221.522 247.134 221.342 247.134C221.297 247.133 221.252 247.144 221.211 247.168C221.17 247.191 221.133 247.227 221.105 247.271C221.039 247.4 221.008 247.554 221.018 247.708V249.236H219.996V246.106H220.968V246.397C221.063 246.281 221.176 246.19 221.3 246.13C221.424 246.071 221.556 246.044 221.688 246.052C221.842 246.048 221.995 246.088 222.134 246.17C222.268 246.244 222.381 246.368 222.458 246.525C222.556 246.374 222.679 246.253 222.818 246.17C222.966 246.089 223.125 246.048 223.286 246.052C223.414 246.042 223.543 246.064 223.664 246.117C223.785 246.17 223.896 246.253 223.992 246.361Z" fill="white"/>
<path d="M227.369 247.935H225.648C225.681 248.05 225.744 248.147 225.828 248.208C225.925 248.273 226.035 248.305 226.145 248.299C226.238 248.304 226.331 248.285 226.418 248.245C226.507 248.205 226.59 248.146 226.663 248.072L227.196 248.754C227.055 248.93 226.885 249.066 226.699 249.152C226.513 249.239 226.314 249.274 226.116 249.255C225.843 249.261 225.572 249.189 225.324 249.045C225.109 248.92 224.929 248.718 224.806 248.463C224.678 248.217 224.613 247.929 224.618 247.635C224.615 247.341 224.677 247.051 224.798 246.8C224.919 246.549 225.094 246.346 225.302 246.216C225.526 246.077 225.773 246.008 226.022 246.015C226.258 246.014 226.491 246.076 226.706 246.197C226.906 246.324 227.075 246.516 227.196 246.752C227.328 247.026 227.393 247.342 227.383 247.662C227.383 247.662 227.376 247.753 227.369 247.935ZM225.763 247.025C225.692 247.106 225.647 247.216 225.634 247.335H226.426C226.41 247.217 226.361 247.111 226.289 247.035C226.216 246.96 226.124 246.921 226.03 246.925C225.937 246.914 225.844 246.939 225.763 246.998V247.025Z" fill="white"/>
<path d="M230.155 246.361C230.256 246.504 230.333 246.671 230.381 246.853C230.429 247.034 230.448 247.226 230.436 247.417V249.236H229.414V247.671C229.414 247.316 229.313 247.134 229.111 247.134C229.058 247.133 229.006 247.146 228.958 247.173C228.909 247.2 228.866 247.239 228.83 247.289C228.749 247.424 228.711 247.593 228.722 247.762V249.236H227.7V246.106H228.672V246.416C228.77 246.298 228.885 246.205 229.01 246.143C229.142 246.08 229.281 246.049 229.421 246.052C229.688 246.028 229.952 246.139 230.155 246.361Z" fill="white"/>
<path d="M232.704 249.091C232.507 249.211 232.289 249.267 232.07 249.255C231.782 249.277 231.497 249.164 231.271 248.936C231.177 248.818 231.103 248.676 231.054 248.519C231.006 248.362 230.984 248.194 230.99 248.026V247.226H230.652V246.316H230.99V245.406H232.013V246.316H232.56V247.226H232.049V248.008C232.045 248.09 232.066 248.171 232.106 248.236C232.127 248.263 232.151 248.284 232.179 248.298C232.206 248.312 232.235 248.319 232.265 248.317C232.347 248.316 232.427 248.285 232.495 248.226L232.704 249.091Z" fill="white"/>
<path d="M237.175 249.2V247.38L236.455 248.845H235.987L235.267 247.444V249.209H234.295V245.206H235.166L236.203 247.335L237.204 245.206H238.082V249.209L237.175 249.2Z" fill="white"/>
<path d="M241.25 247.935H239.537C239.569 248.05 239.633 248.147 239.717 248.208C239.814 248.275 239.923 248.306 240.034 248.299C240.127 248.304 240.22 248.285 240.307 248.245C240.393 248.204 240.474 248.146 240.545 248.072L241.085 248.754C240.942 248.931 240.772 249.067 240.584 249.153C240.397 249.24 240.197 249.274 239.998 249.255C239.727 249.26 239.459 249.189 239.213 249.045C238.996 248.92 238.814 248.718 238.687 248.463C238.596 248.276 238.536 248.067 238.512 247.85C238.488 247.632 238.5 247.41 238.548 247.199C238.595 246.988 238.677 246.791 238.788 246.622C238.898 246.452 239.036 246.314 239.191 246.216C239.415 246.075 239.662 246.007 239.911 246.015C240.147 246.012 240.38 246.074 240.595 246.197C240.798 246.321 240.97 246.513 241.092 246.752C241.222 247.026 241.285 247.343 241.272 247.662C241.272 247.662 241.265 247.753 241.25 247.935ZM239.652 247.025C239.58 247.106 239.531 247.215 239.515 247.335H240.314C240.299 247.217 240.25 247.111 240.178 247.034C240.102 246.96 240.007 246.921 239.911 246.925C239.821 246.915 239.73 246.941 239.652 246.998V247.025Z" fill="white"/>
<path d="M243.41 249.091C243.216 249.212 243 249.269 242.784 249.255C242.496 249.277 242.211 249.164 241.985 248.936C241.89 248.818 241.816 248.676 241.768 248.519C241.72 248.362 241.698 248.194 241.704 248.026V247.226H241.366V246.316H241.704V245.406H242.726V246.316H243.23V247.226H242.726V248.008C242.723 248.049 242.727 248.09 242.737 248.129C242.746 248.169 242.763 248.205 242.784 248.236C242.803 248.263 242.826 248.284 242.852 248.299C242.878 248.313 242.907 248.319 242.935 248.317C243.017 248.316 243.098 248.285 243.166 248.226L243.41 249.091Z" fill="white"/>
<path d="M246.125 246.361C246.225 246.504 246.302 246.671 246.35 246.853C246.399 247.034 246.417 247.226 246.406 247.417V249.236H245.383V247.671C245.383 247.316 245.282 247.134 245.081 247.134C245.028 247.133 244.975 247.146 244.927 247.173C244.879 247.2 244.835 247.239 244.8 247.289C244.719 247.424 244.68 247.593 244.692 247.762V249.236H243.67V244.951H244.692V246.325C244.894 246.111 245.149 245.995 245.412 245.995C245.675 245.995 245.93 246.111 246.132 246.325L246.125 246.361Z" fill="white"/>
<path d="M247.457 249.045C247.248 248.918 247.071 248.719 246.946 248.472C246.821 248.221 246.756 247.931 246.758 247.635C246.759 247.336 246.827 247.044 246.954 246.792C247.082 246.541 247.264 246.341 247.478 246.215C247.713 246.083 247.967 246.015 248.224 246.015C248.48 246.015 248.734 246.083 248.969 246.215C249.18 246.343 249.357 246.546 249.48 246.798C249.603 247.049 249.666 247.34 249.66 247.635C249.665 247.93 249.602 248.221 249.48 248.472C249.355 248.719 249.178 248.918 248.969 249.045C248.736 249.183 248.481 249.255 248.224 249.255C247.966 249.255 247.712 249.183 247.478 249.045H247.457ZM248.486 248.09C248.569 247.962 248.61 247.8 248.602 247.635C248.611 247.47 248.57 247.307 248.486 247.18C248.451 247.128 248.406 247.086 248.357 247.058C248.307 247.029 248.253 247.014 248.198 247.014C248.144 247.014 248.09 247.029 248.04 247.058C247.99 247.086 247.946 247.128 247.91 247.18C247.827 247.307 247.785 247.47 247.795 247.635C247.787 247.8 247.828 247.962 247.91 248.09C247.948 248.138 247.993 248.177 248.042 248.203C248.092 248.229 248.145 248.243 248.198 248.243C248.252 248.243 248.305 248.229 248.355 248.203C248.404 248.177 248.449 248.138 248.486 248.09Z" fill="white"/>
<path d="M252.72 244.951V249.2H251.748V248.936C251.66 249.05 251.553 249.138 251.434 249.193C251.316 249.248 251.19 249.269 251.064 249.255C250.854 249.258 250.647 249.189 250.466 249.054C250.283 248.921 250.134 248.726 250.034 248.49C249.922 248.228 249.865 247.933 249.869 247.635C249.865 247.337 249.922 247.042 250.034 246.78C250.135 246.543 250.284 246.345 250.466 246.206C250.649 246.079 250.855 246.013 251.064 246.015C251.294 245.995 251.522 246.09 251.698 246.279V244.951H252.72ZM251.604 248.09C251.681 247.959 251.72 247.798 251.712 247.635C251.72 247.472 251.682 247.31 251.604 247.18C251.568 247.127 251.522 247.084 251.471 247.056C251.42 247.028 251.365 247.014 251.309 247.016C251.254 247.015 251.2 247.03 251.151 247.058C251.101 247.086 251.057 247.128 251.021 247.18C250.94 247.309 250.899 247.471 250.906 247.635C250.901 247.799 250.941 247.96 251.021 248.09C251.058 248.139 251.102 248.179 251.152 248.205C251.202 248.232 251.255 248.245 251.309 248.245C251.413 248.24 251.511 248.185 251.582 248.09H251.604Z" fill="white"/>
<path d="M199.534 172.921H128.635V177.489H199.534V172.921Z" fill="#1F68BE"/>
<path d="M144.194 179.273H128.635V183.841H144.194V179.273Z" fill="#1F68BE"/>
<path d="M150.012 185.633H128.635V190.201H150.012V185.633Z" fill="#1F68BE"/>
<path d="M146.29 191.993H128.858V196.561H146.29V191.993Z" fill="#1F68BE"/>
<path d="M122.083 172.921H108.972C107.425 172.921 106.171 174.506 106.171 176.461V193.031C106.171 194.986 107.425 196.57 108.972 196.57H122.083C123.63 196.57 124.884 194.986 124.884 193.031V176.461C124.884 174.506 123.63 172.921 122.083 172.921Z" fill="#1F68BE"/>
<path opacity="0.2" d="M118.843 179.627H112.205C111.803 179.627 111.478 180.039 111.478 180.546V188.936C111.478 189.443 111.803 189.855 112.205 189.855H118.843C119.245 189.855 119.57 189.443 119.57 188.936V180.546C119.57 180.039 119.245 179.627 118.843 179.627Z" fill="white"/>
<path opacity="0.2" d="M117.95 180.601H115.222C114.876 180.601 114.595 180.956 114.595 181.393V184.841C114.595 185.279 114.876 185.633 115.222 185.633H117.95C118.296 185.633 118.577 185.279 118.577 184.841V181.393C118.577 180.956 118.296 180.601 117.95 180.601Z" fill="white"/>
<path d="M96.5448 179.273H89.7048V187.917H96.5448V179.273Z" fill="#1F68BE"/>
<path d="M90.4176 184.232L92.3472 186.989L96.2064 180.192L92.0808 185.251L90.4176 184.232Z" fill="white"/>
<path d="M199.534 208.708H128.635V213.276H199.534V208.708Z" fill="#1F68BE"/>
<path d="M144.194 215.069H128.635V219.637H144.194V215.069Z" fill="#1F68BE"/>
<path d="M150.012 221.429H128.635V225.997H150.012V221.429Z" fill="#1F68BE"/>
<path d="M146.29 227.781H128.858V232.348H146.29V227.781Z" fill="#1F68BE"/>
<path d="M122.083 208.708H108.972C107.425 208.708 106.171 210.293 106.171 212.248V228.818C106.171 230.773 107.425 232.357 108.972 232.357H122.083C123.63 232.357 124.884 230.773 124.884 228.818V212.248C124.884 210.293 123.63 208.708 122.083 208.708Z" fill="#1F68BE"/>
<path opacity="0.2" d="M118.843 215.415H112.205C111.803 215.415 111.478 215.826 111.478 216.334V224.723C111.478 225.231 111.803 225.642 112.205 225.642H118.843C119.245 225.642 119.57 225.231 119.57 224.723V216.334C119.57 215.826 119.245 215.415 118.843 215.415Z" fill="white"/>
<path opacity="0.2" d="M117.95 216.397H115.222C114.876 216.397 114.595 216.752 114.595 217.189V220.638C114.595 221.075 114.876 221.429 115.222 221.429H117.95C118.296 221.429 118.577 221.075 118.577 220.638V217.189C118.577 216.752 118.296 216.397 117.95 216.397Z" fill="white"/>
<path d="M96.5448 215.069H89.7048V223.713H96.5448V215.069Z" fill="#1F68BE"/>
<path d="M90.4176 220.028L92.3472 222.785L96.2064 215.988L92.0808 221.038L90.4176 220.028Z" fill="white"/>
<path d="M199.534 244.505H128.635V249.073H199.534V244.505Z" fill="#1F68BE"/>
<path d="M144.194 250.856H128.635V255.424H144.194V250.856Z" fill="#1F68BE"/>
<path d="M150.012 257.217H128.635V261.784H150.012V257.217Z" fill="#1F68BE"/>
<path d="M146.29 263.577H128.858V268.144H146.29V263.577Z" fill="#1F68BE"/>
<path d="M122.083 244.505H108.972C107.425 244.505 106.171 246.09 106.171 248.044V264.614C106.171 266.569 107.425 268.154 108.972 268.154H122.083C123.63 268.154 124.884 266.569 124.884 264.614V248.044C124.884 246.09 123.63 244.505 122.083 244.505Z" fill="#1F68BE"/>
<path opacity="0.2" d="M118.843 251.211H112.205C111.803 251.211 111.478 251.622 111.478 252.13V260.519C111.478 261.027 111.803 261.438 112.205 261.438H118.843C119.245 261.438 119.57 261.027 119.57 260.519V252.13C119.57 251.622 119.245 251.211 118.843 251.211Z" fill="white"/>
<path opacity="0.2" d="M117.95 252.185H115.222C114.876 252.185 114.595 252.539 114.595 252.976V256.425C114.595 256.862 114.876 257.216 115.222 257.216H117.95C118.296 257.216 118.577 256.862 118.577 256.425V252.976C118.577 252.539 118.296 252.185 117.95 252.185Z" fill="white"/>
<path d="M96.5448 250.856H89.7048V259.5H96.5448V250.856Z" fill="#1F68BE"/>
<path d="M90.4176 255.815L92.3472 258.572L96.2064 251.775L92.0808 256.834L90.4176 255.815Z" fill="white"/>
<g opacity="0.2">
<path d="M191.959 30.3005H115.034V175.205H191.959V30.3005Z" fill="black"/>
</g>
<path d="M186.566 22.6116H109.642V167.516H186.566V22.6116Z" fill="#1F68BE"/>
<g opacity="0.5">
<path d="M186.566 22.6116H109.642V167.516H186.566V22.6116Z" fill="white"/>
</g>
<path d="M186.574 22.6116H109.634V32.3113H186.574V22.6116Z" fill="#1F68BE"/>
<path d="M184.09 27.4159C184.095 27.9879 183.966 28.5491 183.719 29.0282C183.472 29.5073 183.117 29.8827 182.701 30.1066C182.284 30.3305 181.825 30.3929 181.38 30.2857C180.935 30.1786 180.526 29.9067 180.204 29.5048C179.882 29.1029 179.661 28.5891 179.571 28.0286C179.481 27.4681 179.524 26.8863 179.696 26.3571C179.868 25.8279 180.16 25.3752 180.536 25.0566C180.912 24.738 181.355 24.5679 181.807 24.5679C182.408 24.5678 182.984 24.8667 183.411 25.3998C183.838 25.9329 184.082 26.6572 184.09 27.4159Z" fill="white"/>
<path d="M172.987 157.134H124.07C122.983 157.135 121.907 156.866 120.902 156.341C119.898 155.816 118.985 155.046 118.216 154.075C117.447 153.104 116.837 151.951 116.421 150.682C116.005 149.413 115.79 148.053 115.79 146.679C115.79 145.305 116.005 143.945 116.421 142.676C116.837 141.407 117.447 140.254 118.216 139.283C118.985 138.312 119.898 137.542 120.902 137.017C121.907 136.492 122.983 136.223 124.07 136.224H172.987C174.074 136.223 175.151 136.492 176.155 137.017C177.16 137.542 178.073 138.312 178.842 139.283C179.611 140.254 180.221 141.407 180.637 142.676C181.053 143.945 181.267 145.305 181.267 146.679C181.267 148.053 181.053 149.413 180.637 150.682C180.221 151.951 179.611 153.104 178.842 154.075C178.073 155.046 177.16 155.816 176.155 156.341C175.151 156.866 174.074 157.135 172.987 157.134Z" fill="#1F68BE"/>
<path d="M122.458 150.328C121.915 149.978 121.461 149.442 121.147 148.781C120.836 148.099 120.672 147.326 120.672 146.538C120.672 145.751 120.836 144.977 121.147 144.295C121.459 143.635 121.914 143.102 122.458 142.757C123.036 142.379 123.679 142.188 124.33 142.202C124.916 142.19 125.498 142.336 126.036 142.63C126.525 142.899 126.952 143.322 127.274 143.858L125.878 145.442C125.716 145.146 125.501 144.904 125.251 144.735C125 144.565 124.722 144.474 124.438 144.468C124.23 144.455 124.023 144.499 123.831 144.596C123.638 144.693 123.464 144.842 123.322 145.032C123.028 145.445 122.875 145.988 122.897 146.543C122.877 147.097 123.03 147.639 123.322 148.053C123.465 148.242 123.639 148.389 123.832 148.485C124.024 148.58 124.231 148.623 124.438 148.608C124.721 148.603 124.999 148.512 125.249 148.345C125.5 148.177 125.715 147.937 125.878 147.644L127.274 149.218C126.952 149.755 126.525 150.178 126.036 150.446C125.464 150.751 124.847 150.899 124.226 150.878C123.605 150.858 122.995 150.67 122.436 150.328H122.458Z" fill="white"/>
<path d="M134.381 142.394V150.683H132.17V147.626H130.126V150.683H127.908V142.394H130.126V145.333H132.17V142.394H134.381Z" fill="white"/>
<path d="M140.904 148.581V150.683H135.446V142.394H140.782V144.505H137.621V145.469H140.4V147.489H137.621V148.581H140.904Z" fill="white"/>
<path d="M143.28 150.328C142.741 149.975 142.29 149.439 141.977 148.781C141.665 148.099 141.501 147.326 141.501 146.538C141.501 145.751 141.665 144.977 141.977 144.295C142.288 143.638 142.74 143.105 143.28 142.758C143.861 142.38 144.506 142.19 145.159 142.203C145.745 142.192 146.327 142.338 146.866 142.63C147.354 142.901 147.78 143.324 148.104 143.859L146.707 145.442C146.546 145.147 146.331 144.904 146.08 144.735C145.83 144.565 145.551 144.474 145.267 144.468C145.061 144.456 144.856 144.501 144.664 144.598C144.473 144.695 144.3 144.843 144.158 145.032C144.011 145.235 143.898 145.474 143.825 145.733C143.752 145.993 143.721 146.268 143.734 146.543C143.722 146.818 143.754 147.092 143.827 147.352C143.9 147.611 144.012 147.849 144.158 148.053C144.301 148.241 144.474 148.387 144.665 148.483C144.856 148.578 145.062 148.621 145.267 148.608C145.55 148.602 145.828 148.511 146.078 148.344C146.329 148.176 146.544 147.936 146.707 147.644L148.104 149.218C147.78 149.753 147.354 150.175 146.866 150.446C146.293 150.75 145.676 150.896 145.056 150.876C144.435 150.855 143.825 150.669 143.266 150.328H143.28Z" fill="white"/>
<path d="M151.402 147.935L150.905 148.636V150.683H148.745V142.394H150.905V145.405L153.065 142.394H155.47L152.849 146.033L155.606 150.674H153.043L151.402 147.935Z" fill="white"/>
<path d="M157.205 150.319C156.798 150.044 156.439 149.667 156.151 149.211C155.863 148.755 155.651 148.23 155.528 147.668C155.404 147.106 155.373 146.518 155.435 145.94C155.496 145.362 155.65 144.805 155.887 144.304C156.206 143.646 156.662 143.111 157.205 142.758C157.797 142.39 158.449 142.198 159.109 142.198C159.769 142.198 160.421 142.39 161.014 142.758C161.557 143.113 162.015 143.647 162.338 144.304C162.582 144.803 162.742 145.361 162.807 145.941C162.872 146.522 162.842 147.113 162.718 147.678C162.593 148.243 162.377 148.769 162.084 149.224C161.791 149.678 161.426 150.051 161.014 150.319C160.421 150.687 159.769 150.878 159.109 150.878C158.449 150.878 157.797 150.687 157.205 150.319ZM159.84 148.317C160.067 148.144 160.251 147.895 160.373 147.598C160.508 147.26 160.574 146.885 160.567 146.506C160.574 146.125 160.508 145.747 160.373 145.405C160.251 145.109 160.067 144.86 159.84 144.687C159.672 144.559 159.485 144.477 159.29 144.444C159.096 144.411 158.898 144.429 158.709 144.497C158.521 144.564 158.345 144.679 158.192 144.836C158.04 144.992 157.915 145.186 157.824 145.405C157.683 145.745 157.614 146.124 157.622 146.506C157.614 146.886 157.683 147.263 157.824 147.598C157.915 147.818 158.04 148.012 158.192 148.168C158.345 148.325 158.521 148.44 158.709 148.507C158.898 148.575 159.096 148.592 159.29 148.56C159.485 148.527 159.672 148.445 159.84 148.317Z" fill="white"/>
<path d="M164.405 149.846C164.115 149.463 163.89 149.008 163.745 148.51C163.6 148.012 163.538 147.482 163.562 146.952V142.403H165.773V146.879C165.742 147.346 165.833 147.813 166.032 148.208C166.12 148.34 166.23 148.446 166.355 148.517C166.48 148.588 166.615 148.622 166.752 148.617C166.889 148.623 167.025 148.59 167.15 148.519C167.275 148.448 167.385 148.341 167.472 148.208C167.671 147.813 167.762 147.346 167.731 146.879V142.403H169.891V146.952C169.916 147.482 169.854 148.012 169.709 148.51C169.564 149.008 169.339 149.463 169.049 149.846C168.377 150.511 167.548 150.873 166.694 150.873C165.841 150.873 165.012 150.511 164.34 149.846H164.405Z" fill="white"/>
<path d="M172.303 144.559H170.381V142.394H176.436V144.559H174.514V150.683H172.303V144.559Z" fill="white"/>
<path d="M125.489 60.9647H122.609V57.689H131.76V60.9647H128.88V70.2277H125.532L125.489 60.9647Z" fill="#1F68BE"/>
<path d="M133.51 69.7547C132.848 69.3501 132.29 68.7197 131.897 67.9348C131.515 67.1441 131.313 66.2359 131.313 65.3097C131.313 64.3835 131.515 63.4753 131.897 62.6846C132.287 61.8975 132.847 61.2664 133.51 60.8647C134.237 60.4392 135.03 60.2188 135.832 60.2188C136.633 60.2188 137.426 60.4392 138.154 60.8647C138.642 61.1732 139.074 61.6063 139.423 62.1366C139.771 62.6669 140.03 63.2828 140.18 63.9456C140.331 64.6083 140.372 65.3034 140.299 65.9869C140.227 66.6704 140.043 67.3275 139.759 67.9166C139.371 68.7031 138.814 69.3342 138.154 69.7365C137.427 70.1681 136.634 70.3919 135.832 70.3919C135.029 70.3919 134.236 70.1681 133.51 69.7365V69.7547ZM136.735 66.7519C136.985 66.3446 137.11 65.8376 137.088 65.3233C137.112 64.8143 136.987 64.3119 136.735 63.913C136.619 63.7551 136.478 63.6292 136.321 63.5431C136.164 63.457 135.995 63.4126 135.824 63.4126C135.654 63.4126 135.485 63.457 135.328 63.5431C135.171 63.6292 135.03 63.7551 134.914 63.913C134.662 64.3119 134.537 64.8143 134.561 65.3233C134.539 65.8376 134.664 66.3446 134.914 66.7519C135.029 66.9123 135.17 67.0404 135.326 67.128C135.483 67.2157 135.653 67.2609 135.824 67.2609C135.996 67.2609 136.165 67.2157 136.322 67.128C136.479 67.0404 136.62 66.9123 136.735 66.7519Z" fill="#1F68BE"/>
<path d="M147.053 69.8909C146.441 70.2736 145.762 70.4521 145.08 70.4096C144.176 70.4894 143.281 70.1352 142.574 69.4178C142.264 69.0298 142.025 68.5608 141.873 68.0437C141.722 67.5266 141.661 66.9739 141.696 66.4241V63.9219H140.63V60.9646H141.696V58.2349H144.9V60.9646H146.484V63.9219H144.9V66.4241C144.886 66.6784 144.95 66.9296 145.08 67.1248C145.142 67.2073 145.217 67.2725 145.3 67.3164C145.383 67.3603 145.472 67.3818 145.562 67.3796C145.819 67.3839 146.07 67.2886 146.282 67.1066L147.053 69.8909Z" fill="#1F68BE"/>
<path d="M154.454 61.4106C154.831 61.8653 155.122 62.4209 155.307 63.0366C155.491 63.6523 155.564 64.3124 155.52 64.9684V70.2369H152.546V68.9448C152.346 69.4368 152.032 69.8404 151.647 70.102C151.261 70.3636 150.821 70.471 150.386 70.4097C149.846 70.4327 149.308 70.2956 148.817 70.0094C148.415 69.7694 148.076 69.3909 147.838 68.9175C147.615 68.4513 147.5 67.9153 147.506 67.3706C147.489 66.9376 147.561 66.5063 147.715 66.1189C147.869 65.7314 148.1 65.4009 148.385 65.1595C149.197 64.5905 150.122 64.3313 151.049 64.4134H152.338C152.237 63.649 151.747 63.2669 150.898 63.2669C150.537 63.2672 150.177 63.3346 149.832 63.4671C149.501 63.5862 149.189 63.7771 148.91 64.0312L147.888 61.3651C148.389 60.9899 148.933 60.7137 149.501 60.5462C150.116 60.3554 150.747 60.2576 151.38 60.255C152.48 60.1705 153.569 60.5798 154.454 61.4106ZM151.927 67.7801C152.118 67.6096 152.257 67.3627 152.323 67.0794V66.397H151.531C150.883 66.397 150.552 66.6791 150.552 67.225C150.551 67.3329 150.569 67.4398 150.605 67.5376C150.641 67.6353 150.694 67.7214 150.761 67.7892C150.92 67.9473 151.12 68.028 151.322 68.0167C151.539 68.0058 151.748 67.9104 151.92 67.7437L151.927 67.7801Z" fill="#1F68BE"/>
<path d="M156.917 56.9429H160.121V70.2368H156.917V56.9429Z" fill="#1F68BE"/>
<path d="M141.53 88.8445H118.994V91.9746H141.53V88.8445Z" fill="#1F68BE"/>
<path d="M135.36 81.1467H118.994V84.2769H135.36V81.1467Z" fill="#263238"/>
<path d="M145.771 97.1978H118.994V100.328H145.771V97.1978Z" fill="#1F68BE"/>
<path d="M175.961 97.1978H163.562V100.328H175.961V97.1978Z" fill="#1F68BE"/>
<path d="M138.002 109.827H118.994V112.958H138.002V109.827Z" fill="#1F68BE"/>
<path d="M70.4953 125.642C68.1913 125.642 65.9809 128.272 64.6273 133.158C63.2737 138.044 64.2457 145.142 64.4329 148.49C64.6201 151.839 63.2665 156.679 63.2665 156.679C66.3985 153.449 68.5297 149.4 68.8897 143.822C69.2159 146.057 69.1072 148.359 68.5729 150.528C70.4302 148.47 71.8906 145.902 72.8425 143.022C74.5705 138.017 74.3761 130.911 74.3761 130.911C74.3761 130.911 72.8065 125.642 70.4953 125.642Z" fill="#263238"/>
<path d="M68.832 131.593C68.7384 134.15 69.552 138.872 74.52 134.641C79.488 130.41 73.656 127.862 71.2728 128.463C70.6435 128.551 70.0573 128.91 69.6128 129.48C69.1684 130.05 68.8927 130.796 68.832 131.593Z" fill="#1F68BE"/>
<path d="M71.2224 131.857C70.5888 137.089 72.5688 141.866 73.7712 148.126C74.9736 154.386 73.9584 155.769 73.9584 155.769C73.9584 155.769 84.4992 153.677 89.9856 141.374C95.472 129.072 85.572 120.974 79.4736 123.376C76.4712 121.474 71.8488 126.761 71.2224 131.857Z" fill="#263238"/>
<path d="M96.8328 161.875C96.8904 162.575 96.9768 163.431 97.056 164.222C97.1352 165.014 97.2432 165.842 97.344 166.643C97.56 168.262 97.7976 169.873 98.064 171.474C98.3304 173.076 98.6544 174.65 98.9928 176.215C99.3312 177.78 99.7128 179.318 100.188 180.81L100.354 181.365L100.44 181.647L100.505 181.848C100.545 181.982 100.593 182.113 100.649 182.239C100.698 182.384 100.756 182.524 100.822 182.657C101.105 183.289 101.42 183.897 101.765 184.477C102.543 185.731 103.377 186.928 104.263 188.062C106.07 190.41 108.058 192.712 110.023 194.923L108.461 197.88C105.964 196.241 103.588 194.322 101.362 192.148C100.204 191.019 99.1144 189.784 98.1 188.454C97.5479 187.73 97.04 186.954 96.5808 186.133C96.4541 185.913 96.3364 185.686 96.228 185.451C96.106 185.214 95.9954 184.968 95.8968 184.714L95.7384 184.332L95.6232 184.022L95.3928 183.394C94.1949 180.096 93.2451 176.663 92.556 173.14C92.2104 171.393 91.908 169.636 91.6776 167.871C91.5624 166.961 91.4544 166.097 91.3608 165.196C91.2672 164.295 91.2024 163.44 91.1448 162.466L96.8328 161.875Z" fill="#FFB573"/>
<path d="M94.8672 155.169C96.7824 155.778 98.1216 165.742 98.1216 165.742L92.844 170.292C92.844 170.292 87.804 160.282 89.244 157.553C90.684 154.823 92.0736 154.268 94.8672 155.169Z" fill="#1F68BE"/>
<g opacity="0.5">
<path d="M94.8672 155.169C96.7824 155.778 98.1216 165.742 98.1216 165.742L92.844 170.292C92.844 170.292 87.804 160.282 89.244 157.553C90.684 154.823 92.0736 154.268 94.8672 155.169Z" fill="white"/>
</g>
<path opacity="0.2" d="M94.6944 157.416L96.1344 167.425L95.4144 168.071V168.699C95.3118 172.485 94.9456 176.251 94.32 179.955L93.1176 175.906L92.052 170.637L93.2328 169.964L94.6944 157.416Z" fill="black"/>
<path d="M110.93 195.032L114.53 196.798L110.484 199.882C110.484 199.882 107.899 197.99 107.964 195.551L108.36 195.269C108.748 194.992 109.18 194.827 109.624 194.786C110.069 194.746 110.515 194.83 110.93 195.032Z" fill="#FFB573"/>
<path d="M116.741 200.137L113.695 203.34L110.47 199.882L114.516 196.798L116.741 200.137Z" fill="#FFB573"/>
<path d="M94.8672 155.169C94.8672 155.169 97.0776 156.152 92.6424 190.601H73.7784C74.0952 180.892 74.16 174.905 70.4952 154.987C73.1065 154.304 75.7534 153.86 78.4152 153.658C81.2677 153.403 84.1308 153.403 86.9832 153.658C90.72 154.086 94.8672 155.169 94.8672 155.169Z" fill="#1F68BE"/>
<g opacity="0.4">
<path d="M94.8672 155.169C94.8672 155.169 97.0776 156.152 92.6424 190.601H73.7784C74.0952 180.892 74.16 174.905 70.4952 154.987C73.1065 154.304 75.7534 153.86 78.4152 153.658C81.2677 153.403 84.1308 153.403 86.9832 153.658C90.72 154.086 94.8672 155.169 94.8672 155.169Z" fill="white"/>
</g>
<path opacity="0.2" d="M72.576 167.225L74.3328 167.871L74.9376 166.252C74.9376 166.252 84.7296 170.528 88.992 168.472C91.7424 167.143 92.7144 165.806 92.7144 165.806L72.036 163.886L72.576 167.225Z" fill="black"/>
<path d="M79.9417 322.758H84.5928L86.4936 309.164H81.8497L79.9417 322.758Z" fill="#FFB573"/>
<path d="M84.96 322.112H79.74C79.6496 322.109 79.5613 322.148 79.4922 322.222C79.4231 322.296 79.378 322.399 79.3656 322.512L78.7752 327.726C78.7596 327.857 78.7665 327.99 78.7956 328.116C78.8247 328.243 78.8753 328.36 78.9438 328.46C79.0123 328.559 79.0971 328.639 79.1923 328.693C79.2875 328.747 79.3909 328.774 79.4952 328.773C81.3168 328.773 82.1952 328.6 84.4848 328.6C85.9248 328.6 89.9568 328.782 91.908 328.782C93.8592 328.782 93.96 326.352 93.1464 326.125C89.5032 325.142 86.94 323.777 85.7088 322.485C85.4997 322.258 85.2358 322.126 84.96 322.112Z" fill="#263238"/>
<g opacity="0.2">
<path d="M86.4936 309.173L85.5144 316.179H80.8632L81.8424 309.173H86.4936Z" fill="black"/>
</g>
<path d="M78.48 153.667C81.3298 153.403 84.191 153.403 87.0408 153.667L87.6024 153.731C88.3224 155.369 88.4592 157.889 86.8176 161.584C86.8176 161.584 79.308 157.762 77.3496 153.758C77.6952 153.722 78.0696 153.686 78.48 153.667Z" fill="#FFB573"/>
<path d="M92.6424 190.601C92.6424 190.601 96.3072 235.824 96.0048 253.731C95.688 272.348 86.5224 314.833 86.5224 314.833H80.244C80.244 314.833 85.0032 273.449 84.4488 255.16C83.844 235.224 78.8328 190.61 78.8328 190.61L92.6424 190.601Z" fill="#263238"/>
<path opacity="0.3" d="M92.6424 190.601C92.6424 190.601 96.3072 235.824 96.0048 253.731C95.688 272.348 86.5224 314.833 86.5224 314.833H80.244C80.244 314.833 85.0032 273.449 84.4488 255.16C83.844 235.224 78.8328 190.61 78.8328 190.61L92.6424 190.601Z" fill="#263238"/>
<path d="M79.6968 315.105H87.0696L87.6096 312.139L79.3584 311.775L79.6968 315.105Z" fill="#263238"/>
<path opacity="0.2" d="M84.5064 201.848C89.1432 213.631 85.4352 235.124 83.7864 243.122C82.944 231.111 81.5256 216.434 80.424 205.651C81.1368 199.555 82.368 196.425 84.5064 201.848Z" fill="black"/>
<path d="M39.4633 270.256L41.0329 275.779L51.7321 273.231L50.1697 267.699L39.4633 270.256Z" fill="#FFB573"/>
<path d="M42.2928 275.961L41.9256 269.382C41.9218 269.262 41.8852 269.148 41.8222 269.058C41.7592 268.969 41.6736 268.909 41.58 268.891L37.3824 267.826C37.2808 267.799 37.1754 267.802 37.0752 267.837C36.9751 267.872 36.883 267.937 36.8067 268.026C36.7305 268.115 36.6724 268.226 36.6372 268.35C36.6021 268.473 36.5909 268.606 36.6048 268.736C36.7632 271.038 36.936 272.148 37.0944 275.042C37.1952 276.861 37.3248 281.921 37.4616 284.386C37.5984 286.852 39.5496 287.116 39.6648 286.106C40.2048 281.557 41.1048 278.417 42.0624 276.952C42.2384 276.672 42.3211 276.317 42.2928 275.961Z" fill="#263238"/>
<g opacity="0.2">
<path d="M51.732 273.222L46.2168 274.541L44.6472 269.018L50.1624 267.699L51.732 273.222Z" fill="black"/>
</g>
<path d="M87.4296 190.601C87.4296 190.601 82.2744 237.271 78.7896 254.832C75.1896 273.094 48.06 274.65 48.06 274.65L45.2952 267.517C45.2952 267.517 61.1352 262.203 67.9392 250.183C70.8984 230.51 73.6128 190.601 73.6128 190.601H87.4296Z" fill="#263238"/>
<path opacity="0.3" d="M87.4296 190.601C87.4296 190.601 82.2744 237.271 78.7896 254.832C75.1896 273.094 48.06 274.65 48.06 274.65L45.2952 267.517C45.2952 267.517 61.1352 262.203 67.9392 250.183C70.8984 230.51 73.6128 190.601 73.6128 190.601H87.4296Z" fill="#263238"/>
<path d="M44.9784 266.852L47.3976 275.651L49.896 275.688L47.4696 265.76L44.9784 266.852Z" fill="#263238"/>
<path d="M41.5943 278.099C41.5942 278.615 41.7227 279.118 41.9615 279.537C42.0319 279.633 42.1179 279.709 42.2136 279.759C42.3093 279.809 42.4124 279.833 42.5159 279.828C42.5734 279.828 42.6298 279.809 42.6793 279.772C42.7287 279.736 42.7693 279.682 42.7967 279.619C43.0703 278.918 41.9903 276.516 41.8679 276.243C41.8563 276.217 41.8395 276.196 41.8192 276.182C41.799 276.168 41.776 276.16 41.7527 276.161C41.7306 276.162 41.7094 276.173 41.6925 276.191C41.6756 276.209 41.6639 276.234 41.6591 276.261C41.5952 276.87 41.5735 277.485 41.5943 278.099ZM42.6239 279.209C42.6449 279.292 42.6449 279.381 42.6239 279.464C42.6137 279.491 42.5972 279.513 42.5766 279.528C42.5559 279.542 42.5323 279.549 42.5087 279.546C42.4418 279.552 42.3746 279.538 42.3123 279.507C42.25 279.475 42.1941 279.426 42.1487 279.364C41.8157 278.555 41.7188 277.624 41.8751 276.734C42.2269 277.504 42.4797 278.339 42.6239 279.209Z" fill="#1F68BE"/>
<path d="M41.6592 276.288C41.6583 276.31 41.6583 276.331 41.6592 276.352C41.9544 277.062 43.0344 278.527 43.56 278.454C43.6824 278.454 43.8336 278.336 43.8408 277.954C43.849 277.664 43.7662 277.383 43.6104 277.171C43.0835 276.616 42.4409 276.265 41.76 276.161C41.7458 276.16 41.7315 276.162 41.7181 276.168C41.7046 276.174 41.6921 276.183 41.6814 276.194C41.6707 276.206 41.662 276.221 41.6557 276.237C41.6494 276.253 41.6457 276.27 41.6448 276.288H41.6592ZM43.632 277.826C43.6355 277.853 43.6355 277.881 43.632 277.908C43.632 278.163 43.5456 278.172 43.5168 278.181C43.2 278.181 42.3576 277.226 41.976 276.489C42.5229 276.591 43.0365 276.884 43.4592 277.335C43.558 277.47 43.6187 277.643 43.632 277.826Z" fill="#1F68BE"/>
<path d="M86.6952 323.113C87.0916 323.159 87.4883 323.03 87.8184 322.749C87.8937 322.665 87.9516 322.559 87.9867 322.44C88.0219 322.321 88.0333 322.192 88.02 322.066C88.0159 321.991 87.9965 321.917 87.9638 321.854C87.931 321.79 87.8859 321.738 87.8328 321.702C87.264 321.302 85.4136 322.503 85.2048 322.612C85.1841 322.626 85.1673 322.647 85.1569 322.673C85.1465 322.699 85.1431 322.729 85.1472 322.758C85.1501 322.786 85.1602 322.811 85.1758 322.831C85.1914 322.851 85.2117 322.863 85.2336 322.867C85.7136 323.007 86.2029 323.089 86.6952 323.113ZM87.5232 321.894C87.593 321.889 87.6626 321.908 87.7248 321.948C87.7481 321.958 87.768 321.978 87.7811 322.005C87.7942 322.031 87.7998 322.063 87.7968 322.094C87.8083 322.175 87.8031 322.259 87.7817 322.337C87.7602 322.415 87.7233 322.485 87.6744 322.54C87.3936 322.858 86.6304 322.913 85.6008 322.703C86.1996 322.295 86.8501 322.021 87.5232 321.894Z" fill="#1F68BE"/>
<path d="M85.2552 322.904H85.2984C85.8528 322.594 86.9472 321.33 86.8608 320.656C86.8608 320.502 86.7528 320.31 86.4504 320.265C86.3405 320.25 86.2293 320.264 86.124 320.307C86.0186 320.349 85.9214 320.418 85.8384 320.511C85.412 321.145 85.1595 321.937 85.1184 322.767C85.114 322.791 85.1159 322.817 85.1237 322.84C85.1314 322.863 85.1447 322.882 85.1616 322.895C85.1758 322.904 85.1915 322.91 85.2076 322.912C85.2237 322.913 85.2399 322.911 85.2552 322.904ZM86.3568 320.52H86.4288C86.6304 320.52 86.6376 320.647 86.6448 320.674C86.6952 321.075 85.9248 322.076 85.3848 322.494C85.4287 321.824 85.6376 321.187 85.9824 320.674C86.0892 320.57 86.2215 320.515 86.3568 320.52Z" fill="#1F68BE"/>
<path d="M79.2937 141.474C79.8337 144.95 80.3737 151.338 78.4441 153.658C78.4441 153.658 79.1641 157.198 84.3193 157.198C89.9569 157.198 87.0121 153.658 87.0121 153.658C83.9377 152.748 84.0169 149.855 84.5569 147.143L79.2937 141.474Z" fill="#FFB573"/>
<path opacity="0.2" d="M81.4392 143.768L84.5496 147.125C84.4185 147.754 84.3318 148.397 84.2904 149.045C83.1168 148.836 81.4968 147.225 81.4104 145.651C81.3316 145.026 81.3414 144.388 81.4392 143.768Z" fill="black"/>
<path d="M76.3201 135.433C77.3713 141.111 77.7601 143.54 80.4097 145.988C84.4489 149.673 89.7337 146.798 90.0505 140.847C90.3313 135.487 88.5601 127.107 83.8153 125.778C82.7695 125.48 81.6808 125.525 80.6525 125.908C79.6242 126.291 78.6903 127 77.9395 127.967C77.1887 128.934 76.6459 130.127 76.3625 131.434C76.079 132.741 76.0644 134.117 76.3201 135.433Z" fill="#FFB573"/>
<path d="M78.1776 130.319C79.8048 131.893 79.092 137.598 77.076 139.354C73.9224 138.399 73.3248 125.614 78.1776 130.319Z" fill="#263238"/>
<path d="M83.8584 124.659C85.68 125.059 87.9912 128.481 88.4808 129.873C85.7448 129.236 78.2064 132.184 78.2064 132.184C78.2064 132.184 74.8368 131.711 76.7304 128.426C78.624 125.141 83.8584 124.659 83.8584 124.659Z" fill="#263238"/>
<path d="M84.24 135.396C84.3048 135.869 84.5496 136.206 84.7944 136.151C85.0392 136.097 85.1832 135.678 85.1184 135.242C85.0536 134.805 84.8088 134.432 84.564 134.486C84.3192 134.541 84.1536 134.932 84.24 135.396Z" fill="#263238"/>
<path d="M88.3872 134.504C88.452 134.968 88.6968 135.305 88.9416 135.251C89.1864 135.196 89.3232 134.777 89.2656 134.341C89.208 133.904 88.956 133.54 88.7112 133.585C88.4664 133.631 88.3224 134.031 88.3872 134.504Z" fill="#263238"/>
<path d="M88.6104 133.613L89.4528 133.094C89.4528 133.094 89.1144 134.068 88.6104 133.613Z" fill="#263238"/>
<path d="M86.76 135.624C87.231 136.63 87.8101 137.548 88.4808 138.354C88.3158 138.564 88.116 138.727 87.8958 138.829C87.6755 138.931 87.4402 138.971 87.2064 138.945L86.76 135.624Z" fill="#ED893E"/>
<path d="M85.4352 141.174C85.6208 141.166 85.8058 141.145 85.9896 141.111C86.0176 141.102 86.042 141.08 86.058 141.05C86.074 141.02 86.0804 140.983 86.076 140.947C86.0707 140.911 86.0553 140.88 86.0327 140.858C86.0101 140.836 85.9819 140.826 85.9536 140.829C85.4965 140.943 85.0243 140.921 84.5754 140.763C84.1264 140.605 83.7131 140.316 83.3688 139.919C83.3593 139.905 83.3477 139.894 83.3347 139.887C83.3216 139.879 83.3075 139.875 83.2932 139.875C83.2789 139.875 83.2647 139.879 83.2517 139.887C83.2387 139.894 83.227 139.905 83.2176 139.919C83.1973 139.946 83.186 139.981 83.186 140.019C83.186 140.056 83.1973 140.092 83.2176 140.119C83.514 140.471 83.8625 140.745 84.2431 140.926C84.6237 141.107 85.0288 141.192 85.4352 141.174Z" fill="#263238"/>
<path d="M75.8016 140.956C76.2503 141.929 76.9853 142.639 77.8464 142.93C78.9912 143.294 79.5384 142.02 79.2 140.646C78.8976 139.436 77.9328 137.78 76.7952 138.008C76.5471 138.063 76.3138 138.195 76.1164 138.393C75.9191 138.591 75.7641 138.848 75.6654 139.141C75.5666 139.434 75.5274 139.753 75.5512 140.07C75.575 140.387 75.6611 140.692 75.8016 140.956Z" fill="#FFB573"/>
<path d="M81.9433 134.668C81.9894 134.667 82.0338 134.646 82.0701 134.61C82.1064 134.574 82.1326 134.524 82.1449 134.468C82.2956 134.055 82.5122 133.686 82.7811 133.384C83.0499 133.082 83.3652 132.853 83.7073 132.712C83.7623 132.687 83.8074 132.636 83.833 132.57C83.8586 132.504 83.8625 132.427 83.8441 132.357C83.8351 132.323 83.8209 132.292 83.8023 132.264C83.7837 132.237 83.7611 132.215 83.7357 132.199C83.7103 132.183 83.6826 132.173 83.6542 132.171C83.6259 132.168 83.5974 132.173 83.5705 132.184C83.161 132.35 82.7846 132.625 82.4666 132.991C82.1486 133.357 81.8965 133.805 81.7273 134.304C81.7092 134.376 81.7141 134.453 81.7411 134.52C81.7681 134.586 81.815 134.636 81.8713 134.659L81.9433 134.668Z" fill="#263238"/>
<path d="M88.8623 131.793C88.9093 131.789 88.9543 131.767 88.9907 131.73C89.0272 131.692 89.0532 131.641 89.0652 131.583C89.0772 131.526 89.0745 131.465 89.0574 131.409C89.0404 131.354 89.0099 131.307 88.9703 131.274C88.6714 131.047 88.334 130.913 87.986 130.883C87.638 130.853 87.2894 130.928 86.9687 131.101C86.9421 131.118 86.9182 131.141 86.8987 131.169C86.8791 131.197 86.8642 131.23 86.8548 131.266C86.8455 131.301 86.8418 131.339 86.844 131.376C86.8463 131.414 86.8544 131.45 86.8679 131.484C86.8967 131.546 86.9429 131.593 86.9975 131.615C87.052 131.637 87.1111 131.632 87.1631 131.602C87.418 131.467 87.6945 131.411 87.9699 131.438C88.2453 131.465 88.5117 131.574 88.7471 131.757C88.7824 131.781 88.8221 131.794 88.8623 131.793Z" fill="#263238"/>
<path d="M84.4344 134.514L85.2769 133.995C85.2769 133.995 84.96 134.968 84.4344 134.514Z" fill="#263238"/>
<path d="M73.4977 189.2L73.0153 191.338C72.9505 191.502 73.1017 191.666 73.3177 191.666H92.7577C92.9305 191.666 93.0745 191.566 93.0817 191.429L93.2545 189.291C93.2545 189.145 93.1177 189.018 92.9305 189.018H73.8001C73.7415 189.012 73.6828 189.026 73.6298 189.058C73.5768 189.09 73.5312 189.139 73.4977 189.2Z" fill="#FAFAFA"/>
<path d="M76.0608 191.902H75.5496C75.4488 191.902 75.3696 191.83 75.3768 191.757L75.6144 188.982C75.6144 188.9 75.7152 188.836 75.816 188.836H76.32C76.4208 188.836 76.5 188.9 76.4928 188.982L76.2552 191.757C76.2552 191.83 76.1616 191.902 76.0608 191.902Z" fill="#1F68BE"/>
<g opacity="0.3">
<path d="M76.0608 191.902H75.5496C75.4488 191.902 75.3696 191.83 75.3768 191.757L75.6144 188.982C75.6144 188.9 75.7152 188.836 75.816 188.836H76.32C76.4208 188.836 76.5 188.9 76.4928 188.982L76.2552 191.757C76.2552 191.83 76.1616 191.902 76.0608 191.902Z" fill="black"/>
</g>
<path d="M91.3031 191.902H90.7919C90.6839 191.902 90.6119 191.83 90.6191 191.757L90.8567 188.982C90.8567 188.9 90.9503 188.836 91.0583 188.836H91.5695C91.6703 188.836 91.7423 188.9 91.7423 188.982L91.4975 191.757C91.4903 191.83 91.4399 191.902 91.3031 191.902Z" fill="#1F68BE"/>
<path opacity="0.3" d="M91.3031 191.902H90.7919C90.6839 191.902 90.6119 191.83 90.6191 191.757L90.8567 188.982C90.8567 188.9 90.9503 188.836 91.0583 188.836H91.5695C91.6703 188.836 91.7423 188.9 91.7423 188.982L91.4975 191.757C91.4903 191.83 91.4399 191.902 91.3031 191.902Z" fill="black"/>
<path d="M83.6784 191.902H83.1672C83.0664 191.902 82.9872 191.83 82.9944 191.757L83.2392 188.982C83.2392 188.9 83.3328 188.836 83.4336 188.836H83.9448C84.0456 188.836 84.1248 188.9 84.1176 188.982L83.88 191.757C83.8728 191.83 83.7864 191.902 83.6784 191.902Z" fill="#1F68BE"/>
<path opacity="0.3" d="M83.6784 191.902H83.1672C83.0664 191.902 82.9872 191.83 82.9944 191.757L83.2392 188.982C83.2392 188.9 83.3328 188.836 83.4336 188.836H83.9448C84.0456 188.836 84.1248 188.9 84.1176 188.982L83.88 191.757C83.8728 191.83 83.7864 191.902 83.6784 191.902Z" fill="black"/>
<path d="M107.806 141.675L104.218 146.149C103.702 146.791 103.697 147.839 104.205 148.49L105.661 150.356C106.169 151.007 106.999 151.014 107.514 150.372L111.102 145.899C111.618 145.257 111.623 144.208 111.115 143.557L109.659 141.691C109.15 141.04 108.321 141.033 107.806 141.675Z" fill="#1F68BE"/>
<path opacity="0.4" d="M106.279 146.888L105.077 148.39C105.067 148.403 105.056 148.414 105.043 148.422C105.03 148.429 105.015 148.433 105.001 148.433C104.987 148.433 104.973 148.429 104.96 148.422C104.947 148.414 104.935 148.403 104.926 148.39C104.905 148.363 104.894 148.327 104.894 148.29C104.894 148.253 104.905 148.217 104.926 148.19L106.128 146.697C106.137 146.684 106.149 146.673 106.162 146.666C106.175 146.658 106.189 146.654 106.204 146.654C106.218 146.654 106.232 146.658 106.245 146.666C106.258 146.673 106.27 146.684 106.279 146.697C106.29 146.709 106.299 146.724 106.304 146.741C106.31 146.757 106.313 146.775 106.313 146.793C106.313 146.811 106.31 146.829 106.304 146.845C106.299 146.862 106.29 146.877 106.279 146.888Z" fill="white"/>
<path opacity="0.4" d="M108.871 141.62L107.669 143.112C107.649 143.137 107.622 143.151 107.593 143.151C107.565 143.151 107.538 143.137 107.518 143.112C107.507 143.1 107.498 143.086 107.492 143.069C107.487 143.053 107.484 143.035 107.484 143.017C107.484 142.999 107.487 142.981 107.492 142.964C107.498 142.948 107.507 142.933 107.518 142.921L108.72 141.42C108.73 141.406 108.741 141.395 108.754 141.388C108.767 141.381 108.781 141.377 108.796 141.377C108.81 141.377 108.824 141.381 108.837 141.388C108.85 141.395 108.862 141.406 108.871 141.42C108.892 141.447 108.903 141.483 108.903 141.52C108.903 141.557 108.892 141.593 108.871 141.62Z" fill="white"/>
<path opacity="0.4" d="M107.892 148.963L106.69 150.455C106.669 150.48 106.642 150.494 106.614 150.494C106.586 150.494 106.559 150.48 106.538 150.455C106.518 150.428 106.507 150.392 106.507 150.355C106.507 150.318 106.518 150.282 106.538 150.255L107.741 148.763C107.761 148.738 107.788 148.724 107.816 148.724C107.845 148.724 107.872 148.738 107.892 148.763C107.912 148.79 107.924 148.826 107.924 148.863C107.924 148.9 107.912 148.936 107.892 148.963Z" fill="white"/>
<path opacity="0.4" d="M105.775 148.481L105.458 148.872C105.437 148.898 105.409 148.912 105.379 148.912C105.35 148.912 105.321 148.898 105.3 148.872C105.28 148.847 105.269 148.812 105.269 148.777C105.269 148.741 105.28 148.707 105.3 148.681L105.61 148.281C105.632 148.257 105.66 148.244 105.689 148.244C105.718 148.244 105.746 148.257 105.768 148.281C105.789 148.307 105.802 148.342 105.803 148.379C105.805 148.416 105.795 148.453 105.775 148.481Z" fill="white"/>
<path opacity="0.2" d="M111.024 145.414L110.65 145.888C110.525 146.042 110.357 146.129 110.182 146.129C110.007 146.129 109.839 146.042 109.714 145.888C109.59 145.731 109.52 145.518 109.52 145.296C109.52 145.074 109.59 144.862 109.714 144.705L110.088 144.231C110.213 144.077 110.381 143.99 110.556 143.99C110.731 143.99 110.899 144.077 111.024 144.231C111.148 144.388 111.218 144.601 111.218 144.823C111.218 145.045 111.148 145.257 111.024 145.414Z" fill="black"/>
<path d="M72.54 156.506C73.656 157.061 74.8872 157.662 76.0824 158.181C77.2776 158.699 78.4944 159.245 79.6824 159.718C82.0341 160.689 84.4411 161.432 86.8824 161.939L87.3288 162.021H87.444C87.5824 162.021 87.7203 162 87.8544 161.957C88.3495 161.8 88.8317 161.583 89.2944 161.311C90.4045 160.663 91.4839 159.933 92.5272 159.127C94.6872 157.48 96.9048 155.633 99.0504 153.804L100.922 156.443C99.1158 159.024 97.1488 161.419 95.04 163.604C93.9342 164.747 92.7622 165.785 91.5336 166.707C90.8355 167.237 90.0975 167.679 89.3304 168.026C88.8341 168.244 88.3194 168.387 87.7968 168.454C87.6312 168.454 87.48 168.454 87.3 168.454H86.9256H86.3856C85.6656 168.408 84.9456 168.29 84.2256 168.19C83.5056 168.09 82.7856 167.935 82.1376 167.753C80.7552 167.444 79.4088 167.016 78.0768 166.561C76.7448 166.106 75.4344 165.578 74.1384 165.014C72.8424 164.45 71.5896 163.849 70.2648 163.112L72.54 156.506Z" fill="#FFB573"/>
<path d="M98.9424 154.104L101.779 148.863L103.039 154.614C103.039 154.614 100.879 157.252 99.0648 156.515L98.9424 154.104Z" fill="#FFB573"/>
<path d="M105.502 147.371L106.351 152.257L103.039 154.614L101.779 148.863L105.502 147.371Z" fill="#FFB573"/>
<path d="M66.5208 164.095C67.896 165.915 73.8648 167.007 73.8648 167.007L77.6376 156.661C77.6376 156.661 72.144 153.713 69.8904 155.278C67.6368 156.843 64.9584 162.048 66.5208 164.095Z" fill="#1F68BE"/>
<g opacity="0.5">
<path d="M66.5208 164.095C67.896 165.915 73.8648 167.007 73.8648 167.007L77.6376 156.661C77.6376 156.661 72.144 153.713 69.8904 155.278C67.6368 156.843 64.9584 162.048 66.5208 164.095Z" fill="white"/>
</g>
<path d="M143.381 216.288L141.271 216.534C138.391 228.272 134.46 228.363 133.286 228.108C131.126 227.626 129.874 224.65 130.5 221.484C131.364 217.116 135.281 215.333 137.736 214.568C136.217 211.666 135.648 206.834 136.562 203.649C136.82 202.51 137.375 201.514 138.137 200.823C138.899 200.132 139.823 199.788 140.76 199.846C141.316 199.8 141.871 199.944 142.366 200.265C142.862 200.585 143.28 201.069 143.575 201.666C145.282 205.196 142.582 212.803 141.71 215.078L143.381 216.288ZM140.004 213.658C141.264 210.219 142.538 205.041 141.624 203.158C141.48 202.858 141.329 202.548 140.587 202.521C140.146 202.474 139.707 202.633 139.352 202.969C138.998 203.304 138.753 203.793 138.665 204.341C137.858 207.171 138.686 211.802 140.004 213.658ZM132.804 221.52C132.768 221.657 132.739 221.793 132.71 221.93C132.35 223.749 133.034 225.287 133.884 225.478C134.734 225.669 137.03 224.086 138.924 216.87C137.189 217.271 133.654 218.445 132.768 221.52H132.804Z" fill="#263238"/>
<path d="M218.786 222.748L204.401 273.049L133.2 240.537L147.535 190.401L218.786 222.748Z" fill="#1F68BE"/>
<path opacity="0.6" d="M218.786 222.748L204.401 273.049L133.2 240.537L147.535 190.401L218.786 222.748Z" fill="white"/>
<path d="M143.906 203.085L142.733 207.18L213.984 239.528L215.15 235.442L143.906 203.085Z" fill="#263238"/>
<path d="M207.281 262.985L206.417 265.988L135.173 233.631L136.03 230.638L207.281 262.985Z" fill="#263238"/>
<path opacity="0.2" d="M210.118 253.067L204.401 273.049L133.2 240.538L138.866 220.71L210.118 253.067Z" fill="black"/>
<path d="M161.784 229.3L161.064 227.253C152.878 227.735 151.704 223.822 151.517 222.576C151.2 220.265 152.705 218.163 154.879 217.881C157.86 217.498 160.106 220.911 161.287 223.158C162.073 221.913 163.055 220.887 164.17 220.144C165.285 219.402 166.51 218.96 167.767 218.845C168.557 218.772 169.344 219.04 169.998 219.606C170.652 220.171 171.135 221 171.367 221.957C171.554 222.505 171.62 223.107 171.556 223.699C171.493 224.291 171.303 224.849 171.007 225.315C169.286 228.044 163.735 227.508 162.065 227.289L161.784 229.3ZM162.504 225.16C165.017 225.442 168.638 225.233 169.553 223.777C169.704 223.54 169.855 223.304 169.654 222.558C169.558 222.101 169.333 221.705 169.02 221.447C168.708 221.188 168.331 221.084 167.962 221.156C166.867 221.274 165.807 221.697 164.859 222.396C163.91 223.095 163.096 224.051 162.475 225.196L162.504 225.16ZM155.462 220.201H155.182C153.95 220.365 153.166 221.493 153.295 222.394C153.425 223.295 155.066 225.124 160.135 224.996C159.401 223.413 157.68 220.201 155.462 220.201Z" fill="#263238"/>
<path d="M179.338 257.053H143.654V226.079H179.222L179.338 257.053Z" fill="#1F68BE"/>
<path opacity="0.4" d="M179.338 257.053H143.654V226.079H179.222L179.338 257.053Z" fill="white"/>
<path d="M170.222 226.079H167.321L167.436 257.053H170.338L170.222 226.079Z" fill="#263238"/>
<path d="M150.797 257.053H148.666L148.55 226.079H150.682L150.797 257.053Z" fill="#263238"/>
<path opacity="0.2" d="M157.838 257.053H143.654V226.079H157.723L157.838 257.053Z" fill="black"/>
<path d="M170.503 262.257C168.257 262.949 160.74 264.987 157.421 261.693C156.877 261.18 156.443 260.503 156.158 259.725C155.872 258.947 155.745 258.091 155.786 257.235C155.851 254.277 157.306 252.567 159.703 252.157C162.835 251.62 167.479 253.595 170.208 256.461C171.079 253.14 173.03 247.999 177.3 247.817C180.403 247.68 183.204 250.174 183.557 253.376C183.744 255.105 183.42 260.656 171.9 261.966L171.547 264.914L170.503 262.257ZM160.265 255.287C159.019 255.497 158.422 256.115 158.393 257.617C158.352 257.928 158.383 258.248 158.481 258.538C158.579 258.828 158.741 259.077 158.947 259.255C160.718 261.002 165.794 260.41 169.193 259.437C167.472 257.116 163.037 254.778 160.265 255.287ZM172.375 258.672C179.46 257.69 181.138 254.951 181.015 253.54C180.878 252.285 179.41 250.938 177.646 251.02C177.514 251.01 177.382 251.01 177.25 251.02C174.19 251.575 172.85 256.334 172.375 258.672Z" fill="#263238"/>
<path d="M192.877 254.89L147.923 262.551L150.139 283.318L195.093 275.657L192.877 254.89Z" fill="#1F68BE"/>
<path opacity="0.4" d="M192.877 254.89L147.923 262.551L150.139 283.318L195.093 275.657L192.877 254.89Z" fill="white"/>
<path opacity="0.2" d="M192.879 254.895L175.019 257.938L177.235 278.706L195.095 275.662L192.879 254.895Z" fill="white"/>
<path d="M162.917 259.994L159.264 260.617L161.48 281.384L165.133 280.762L162.917 259.994Z" fill="#263238"/>
<path d="M186.563 255.965L183.88 256.422L186.096 277.19L188.779 276.732L186.563 255.965Z" fill="#263238"/>
<path d="M132.43 223.149L131.4 224.277C128.268 214.587 124.301 206.989 118.166 204.814L119.196 203.695C125.042 205.642 129.125 213.167 132.43 223.149Z" fill="#263238"/>
<path opacity="0.5" d="M132.43 223.149L131.4 224.277C128.268 214.587 124.301 206.989 118.166 204.814L119.196 203.695C125.042 205.642 129.125 213.167 132.43 223.149Z" fill="white"/>
<path d="M128.419 223.24L126.979 224.532C124.013 216.961 124.373 213.076 116.986 207.244L118.39 205.951C125.777 212.221 125.777 216.097 128.419 223.24Z" fill="#263238"/>
<path opacity="0.5" d="M128.419 223.24L126.979 224.532C124.013 216.961 124.373 213.076 116.986 207.244L118.39 205.951C125.777 212.221 125.777 216.097 128.419 223.24Z" fill="white"/>
<path d="M218.398 223.204H127.066C126.77 223.203 126.479 223.297 126.219 223.476C125.96 223.655 125.74 223.913 125.58 224.228C125.42 224.542 125.325 224.902 125.304 225.275C125.283 225.648 125.337 226.021 125.46 226.361L146.65 285.16C146.811 285.6 147.08 285.962 147.418 286.193C147.755 286.424 148.142 286.512 148.522 286.443L215.28 273.886C215.67 273.811 216.03 273.574 216.301 273.211C216.573 272.848 216.74 272.381 216.778 271.884L220.154 225.66C220.18 225.35 220.153 225.036 220.076 224.739C219.999 224.443 219.874 224.17 219.708 223.938C219.543 223.707 219.34 223.522 219.115 223.395C218.889 223.268 218.645 223.203 218.398 223.204ZM218.153 226.843L214.942 271.156C214.907 271.634 214.746 272.083 214.485 272.432C214.223 272.78 213.877 273.007 213.502 273.076L149.544 285.106C149.18 285.173 148.809 285.09 148.486 284.869C148.162 284.648 147.905 284.299 147.751 283.877L127.44 227.562C127.322 227.237 127.27 226.879 127.29 226.522C127.31 226.165 127.4 225.82 127.552 225.518C127.705 225.217 127.915 224.968 128.163 224.796C128.412 224.624 128.69 224.533 128.974 224.532H216.454C216.691 224.528 216.926 224.588 217.144 224.706C217.362 224.825 217.558 225 217.719 225.221C217.88 225.441 218.003 225.702 218.079 225.986C218.154 226.271 218.182 226.572 218.16 226.871L218.153 226.843Z" fill="#263238"/>
<path d="M153.778 285.133H152.446L130.745 223.204H132.07L153.778 285.133Z" fill="#263238"/>
<path d="M159.754 283.941H158.429L137.671 223.204H139.003L159.754 283.941Z" fill="#263238"/>
<path d="M165.29 282.749H163.966L146.038 223.204H147.37L165.29 282.749Z" fill="#263238"/>
<path d="M171.216 281.493H169.891L153.778 223.204H155.102L171.216 281.493Z" fill="#263238"/>
<path d="M176.587 280.583H175.262L161.863 223.204H163.188L176.587 280.583Z" fill="#263238"/>
<path d="M182.65 279.464H181.325L169.445 223.204H170.777L182.65 279.464Z" fill="#263238"/>
<path d="M188.366 278.136H187.042L177.257 223.204H178.582L188.366 278.136Z" fill="#263238"/>
<path d="M194.364 277.289H193.032L185.17 223.204H186.502L194.364 277.289Z" fill="#263238"/>
<path d="M200.066 276.379H198.734L193.313 223.204H194.638L200.066 276.379Z" fill="#263238"/>
<path d="M205.769 275.051H204.437L201.254 223.204H202.586L205.769 275.051Z" fill="#263238"/>
<path d="M211.637 274.35H210.312L209.477 223.204H210.809L211.637 274.35Z" fill="#263238"/>
<path d="M218.16 240.838V242.512L133.344 247.344V245.66L218.16 240.838Z" fill="#263238"/>
<path d="M217.094 258.417V260.101L141.487 270.538V268.863L217.094 258.417Z" fill="#263238"/>
<path d="M153.778 322.658C153.78 323.852 153.503 325.019 152.979 326.013C152.456 327.007 151.711 327.782 150.839 328.239C149.966 328.697 149.006 328.817 148.08 328.583C147.153 328.35 146.303 327.774 145.636 326.929C144.969 326.084 144.516 325.007 144.334 323.836C144.152 322.664 144.25 321.451 144.615 320.35C144.979 319.249 145.595 318.309 146.383 317.651C147.171 316.993 148.096 316.645 149.04 316.652C150.297 316.66 151.501 317.295 152.389 318.42C153.276 319.546 153.776 321.069 153.778 322.658Z" fill="#1F68BE"/>
<path d="M152.64 322.621C152.43 323.472 152.011 324.215 151.444 324.744C150.877 325.272 150.191 325.558 149.486 325.561C148.814 325.587 148.157 325.303 147.637 324.763C147.118 324.222 146.772 323.461 146.664 322.621L145.181 311.193H157.291L155.851 317.562C155.75 318.006 155.573 318.416 155.333 318.763L152.64 322.621Z" fill="#263238"/>
<path opacity="0.3" d="M152.64 322.621C152.43 323.472 152.011 324.215 151.444 324.744C150.877 325.272 150.191 325.558 149.486 325.561C148.814 325.587 148.157 325.303 147.637 324.763C147.118 324.222 146.772 323.461 146.664 322.621L145.181 311.193H157.291L155.851 317.562C155.75 318.006 155.573 318.416 155.333 318.763L152.64 322.621Z" fill="white"/>
<path d="M199.361 322.658C199.358 323.85 199.635 325.017 200.158 326.01C200.68 327.003 201.424 327.778 202.295 328.237C203.166 328.695 204.125 328.817 205.051 328.586C205.977 328.354 206.827 327.781 207.495 326.939C208.163 326.096 208.618 325.022 208.802 323.852C208.986 322.683 208.892 321.47 208.53 320.369C208.169 319.267 207.557 318.326 206.772 317.664C205.986 317.003 205.064 316.651 204.12 316.652C202.859 316.652 201.65 317.285 200.757 318.411C199.865 319.537 199.363 321.064 199.361 322.658Z" fill="#1F68BE"/>
<path d="M200.491 322.621C200.703 323.472 201.124 324.214 201.692 324.743C202.26 325.271 202.947 325.557 203.652 325.561C204.325 325.587 204.982 325.303 205.501 324.763C206.02 324.222 206.366 323.461 206.474 322.621L207.958 311.193H195.84L197.316 317.562C197.414 318.007 197.592 318.418 197.834 318.763L200.491 322.621Z" fill="#263238"/>
<path opacity="0.3" d="M200.491 322.621C200.703 323.472 201.124 324.214 201.692 324.743C202.26 325.271 202.947 325.557 203.652 325.561C204.325 325.587 204.982 325.303 205.501 324.763C206.02 324.222 206.366 323.461 206.474 322.621L207.958 311.193H195.84L197.316 317.562C197.414 318.007 197.592 318.418 197.834 318.763L200.491 322.621Z" fill="white"/>
<path opacity="0.6" d="M218.398 223.204H127.066C126.77 223.203 126.479 223.297 126.219 223.476C125.96 223.655 125.74 223.913 125.58 224.228C125.42 224.542 125.325 224.902 125.304 225.275C125.283 225.648 125.337 226.021 125.46 226.361L146.65 285.16C146.811 285.6 147.08 285.962 147.418 286.193C147.755 286.424 148.142 286.512 148.522 286.443L215.28 273.886C215.67 273.811 216.03 273.574 216.301 273.211C216.573 272.848 216.74 272.381 216.778 271.884L220.154 225.66C220.18 225.35 220.153 225.036 220.076 224.739C219.999 224.443 219.874 224.17 219.708 223.938C219.543 223.707 219.34 223.522 219.115 223.395C218.889 223.268 218.645 223.203 218.398 223.204ZM216.468 224.532C216.704 224.532 216.937 224.594 217.152 224.715C217.367 224.835 217.561 225.011 217.719 225.231C217.878 225.451 217.998 225.711 218.073 225.993C218.148 226.275 218.175 226.574 218.153 226.871L217.138 240.892L211.097 241.238L210.83 224.532H216.468ZM134.561 247.28L139.09 247.025L146.506 268.181L142.301 268.754L134.561 247.28ZM140.393 246.953L145.685 246.652L152.741 267.317L147.773 267.999L140.393 246.953ZM197.186 261.147L192.146 261.839L189.576 244.114L195.444 243.786L197.186 261.147ZM196.733 243.704L202.493 243.377L203.53 260.265L198.49 260.965L196.733 243.704ZM190.8 262.057L185.609 262.776L182.362 244.578L188.208 244.25L190.8 262.057ZM184.32 262.967L179.28 263.659L175.334 244.969L181.044 244.641L184.32 262.967ZM178.006 263.832L172.829 264.55L168.35 245.369L174.038 245.042L178.006 263.832ZM171.526 264.742L166.73 265.406L161.309 245.788L167.018 245.46L171.526 264.742ZM165.456 265.588L160.301 266.297L154.246 246.188L160.006 245.861L165.456 265.588ZM159.026 266.498L153.986 267.198L146.988 246.589L152.971 246.243L159.026 266.498ZM153.266 268.973L158.234 283.531L153.475 284.441L148.32 269.591L153.266 268.973ZM154.534 268.8L159.509 268.108L163.829 282.467L159.509 283.286L154.534 268.8ZM160.783 267.935L165.902 267.226L169.805 281.338L165.089 282.248L160.783 267.935ZM167.184 267.025L171.907 266.37L175.19 280.256L171.094 281.029L167.184 267.025ZM173.189 266.197L178.337 265.488L181.217 279.136L176.422 280.046L173.189 266.197ZM179.626 265.287L184.601 264.605L186.991 278.054L182.498 278.9L179.626 265.287ZM185.897 264.423L191.03 263.713L192.96 276.916L188.287 277.826L185.897 264.423ZM192.334 263.513L197.323 262.831L198.72 275.833L194.306 276.671L192.334 263.513ZM198.634 262.603L203.609 261.912L204.422 274.796L199.987 275.633L198.634 262.603ZM204.926 261.693L210.067 260.984L210.269 273.568L205.704 274.423L204.926 261.693ZM204.826 260.028L203.789 243.249L209.772 242.912L210.038 259.291L204.826 260.028ZM211.097 242.831L216.986 242.494L215.827 258.509L211.363 259.127L211.097 242.831ZM209.52 224.532L209.794 241.311L203.738 241.657L202.687 224.532H209.52ZM201.362 224.532L202.414 241.73L196.56 242.039L194.767 224.505L201.362 224.532ZM193.442 224.532L195.235 242.139L189.295 242.476L186.689 224.532H193.442ZM185.357 224.532L187.978 242.558L182.081 242.885L178.812 224.532H185.357ZM177.487 224.532L180.778 242.949L175.018 243.276L171.058 224.514L177.487 224.532ZM169.718 224.532L173.693 243.367L167.969 243.695L163.498 224.532H169.718ZM162.166 224.532L166.658 243.768L160.898 244.095L155.491 224.532H162.166ZM154.138 224.532L159.566 244.168L153.806 244.496L147.802 224.532H154.138ZM146.434 224.532L152.467 244.55L146.419 244.896L139.45 224.505L146.434 224.532ZM138.125 224.532L145.109 244.996L139.81 245.296L132.53 224.532H138.125ZM128.981 224.532H131.206L138.506 245.369L133.956 245.624L127.476 227.562C127.359 227.239 127.307 226.884 127.325 226.529C127.344 226.174 127.432 225.83 127.583 225.53C127.733 225.229 127.94 224.98 128.185 224.806C128.431 224.632 128.707 224.538 128.988 224.532H128.981ZM147.751 283.895L142.877 270.365L147.067 269.792L152.258 284.614L149.544 285.124C149.18 285.192 148.809 285.109 148.486 284.887C148.162 284.666 147.905 284.318 147.751 283.895ZM214.942 271.156C214.907 271.634 214.746 272.083 214.485 272.432C214.223 272.78 213.877 273.007 213.502 273.076L211.615 273.431L211.414 260.92L215.734 260.328L214.942 271.156Z" fill="white"/>
<path d="M112.795 204.614L118.238 208.59L120.636 203.349L115.2 199.373C114.928 199.174 114.627 199.045 114.315 198.993C114.004 198.941 113.687 198.968 113.383 199.071C113.08 199.174 112.795 199.352 112.546 199.594C112.297 199.836 112.088 200.138 111.931 200.483C111.773 200.826 111.67 201.205 111.628 201.598C111.586 201.991 111.606 202.391 111.686 202.775C111.766 203.158 111.906 203.518 112.096 203.834C112.286 204.149 112.524 204.414 112.795 204.614Z" fill="#1F68BE"/>
<path d="M141.48 308.736V311.994H212.357V308.736H141.48Z" fill="#263238"/>
<path d="M153.563 285.567L153.957 288.786L166.615 286.306L166.22 283.087L153.563 285.567Z" fill="#263238"/>
<path d="M139.774 306.989C139.27 307.799 140.047 309.027 141.487 308.745V312.003C136.656 312.212 135.727 307.908 137.887 304.823L139.774 306.989Z" fill="#263238"/>
<path d="M151.567 290.265C152.193 289.414 153.038 288.872 153.95 288.736L153.562 285.515C152.072 285.821 150.701 286.727 149.652 288.099L151.567 290.265Z" fill="#263238"/>
<path d="M141.48 308.736V311.994H212.357V308.736H141.48Z" fill="#263238"/>
<path d="M153.563 285.567L153.957 288.786L166.615 286.306L166.22 283.087L153.563 285.567Z" fill="#263238"/>
<path d="M139.774 306.989C139.27 307.799 140.047 309.027 141.487 308.745V312.003C136.656 312.212 135.727 307.908 137.887 304.823L139.774 306.989Z" fill="#263238"/>
<path d="M151.567 290.265C152.193 289.414 153.038 288.872 153.95 288.736L153.562 285.515C152.072 285.821 150.701 286.727 149.652 288.099L151.567 290.265Z" fill="#263238"/>
<path d="M137.835 304.817L139.758 306.987L151.551 290.3L149.629 288.13L137.835 304.817Z" fill="#263238"/>
<path d="M137.835 304.817L139.758 306.987L151.551 290.3L149.629 288.13L137.835 304.817Z" fill="#263238"/>
<path opacity="0.4" d="M141.487 308.745C140.047 309.027 139.27 307.835 139.774 306.989L151.567 290.265C152.193 289.414 153.038 288.872 153.95 288.736L166.615 286.252L166.219 283.04L153.562 285.515C152.072 285.821 150.701 286.727 149.652 288.099L137.858 304.823C135.698 307.908 136.656 312.212 141.458 312.003H212.328V308.745H141.487Z" fill="white"/>
</svg>
