<svg width="85" height="85" viewBox="0 0 85 85" fill="none" xmlns="http://www.w3.org/2000/svg">
<g filter="url(#filter0_d_62_940)">
<path d="M42.5263 59.5205C52.0589 59.5205 59.7866 51.7928 59.7866 42.2603C59.7866 32.7277 52.0589 25 42.5263 25C32.9938 25 25.2661 32.7277 25.2661 42.2603C25.2661 51.7928 32.9938 59.5205 42.5263 59.5205Z" fill="white"/>
</g>
<mask id="mask0_62_940" style="mask-type:luminance" maskUnits="userSpaceOnUse" x="31" y="30" width="23" height="25">
<path d="M53.7135 40.2359H42.7927V44.764H49.0788C48.4928 47.6408 46.0423 49.2922 42.7927 49.2922C38.9571 49.2922 35.8673 46.2024 35.8673 42.3668C35.8673 38.5312 38.9571 35.4414 42.7927 35.4414C44.4441 35.4414 45.9357 36.0274 47.1077 36.9863L50.5172 33.5768C48.4396 31.7656 45.7759 30.6469 42.7927 30.6469C36.2935 30.6469 31.0728 35.8675 31.0728 42.3668C31.0728 48.866 36.2935 54.0867 42.7927 54.0867C48.6527 54.0867 53.9799 49.8249 53.9799 42.3668C53.9799 41.6742 53.8734 40.9284 53.7135 40.2359Z" fill="white"/>
</mask>
<g mask="url(#mask0_62_940)">
<path d="M30.0073 49.2922V35.4414L39.0636 42.3668L30.0073 49.2922Z" fill="#FBBC05"/>
</g>
<mask id="mask1_62_940" style="mask-type:luminance" maskUnits="userSpaceOnUse" x="31" y="30" width="23" height="25">
<path d="M53.7135 40.2359H42.7927V44.764H49.0788C48.4928 47.6408 46.0423 49.2922 42.7927 49.2922C38.9571 49.2922 35.8673 46.2024 35.8673 42.3668C35.8673 38.5312 38.9571 35.4414 42.7927 35.4414C44.4441 35.4414 45.9357 36.0274 47.1077 36.9863L50.5172 33.5768C48.4396 31.7656 45.7759 30.6469 42.7927 30.6469C36.2935 30.6469 31.0728 35.8675 31.0728 42.3668C31.0728 48.866 36.2935 54.0867 42.7927 54.0867C48.6527 54.0867 53.9799 49.8249 53.9799 42.3668C53.9799 41.6742 53.8734 40.9284 53.7135 40.2359Z" fill="white"/>
</mask>
<g mask="url(#mask1_62_940)">
<path d="M30.0073 35.4414L39.0636 42.3668L42.7927 39.1172L55.5781 37.0396V29.5814H30.0073V35.4414Z" fill="#EA4335"/>
</g>
<mask id="mask2_62_940" style="mask-type:luminance" maskUnits="userSpaceOnUse" x="31" y="30" width="23" height="25">
<path d="M53.7135 40.2359H42.7927V44.764H49.0788C48.4928 47.6408 46.0423 49.2922 42.7927 49.2922C38.9571 49.2922 35.8673 46.2024 35.8673 42.3668C35.8673 38.5312 38.9571 35.4414 42.7927 35.4414C44.4441 35.4414 45.9357 36.0274 47.1077 36.9863L50.5172 33.5768C48.4396 31.7656 45.7759 30.6469 42.7927 30.6469C36.2935 30.6469 31.0728 35.8675 31.0728 42.3668C31.0728 48.866 36.2935 54.0867 42.7927 54.0867C48.6527 54.0867 53.9799 49.8249 53.9799 42.3668C53.9799 41.6742 53.8734 40.9284 53.7135 40.2359Z" fill="white"/>
</mask>
<g mask="url(#mask2_62_940)">
<path d="M30.0073 49.2922L45.989 37.0396L50.1975 37.5723L55.5781 29.5814V55.1522H30.0073V49.2922Z" fill="#34A853"/>
</g>
<mask id="mask3_62_940" style="mask-type:luminance" maskUnits="userSpaceOnUse" x="31" y="30" width="23" height="25">
<path d="M53.7135 40.2359H42.7927V44.764H49.0788C48.4928 47.6408 46.0423 49.2922 42.7927 49.2922C38.9571 49.2922 35.8673 46.2024 35.8673 42.3668C35.8673 38.5312 38.9571 35.4414 42.7927 35.4414C44.4441 35.4414 45.9357 36.0274 47.1077 36.9863L50.5172 33.5768C48.4396 31.7656 45.7759 30.6469 42.7927 30.6469C36.2935 30.6469 31.0728 35.8675 31.0728 42.3668C31.0728 48.866 36.2935 54.0867 42.7927 54.0867C48.6527 54.0867 53.9799 49.8249 53.9799 42.3668C53.9799 41.6742 53.8734 40.9284 53.7135 40.2359Z" fill="white"/>
</mask>
<g mask="url(#mask3_62_940)">
<path d="M55.5781 55.1522L39.0636 42.3668L36.9327 40.7686L55.5781 35.4414V55.1522Z" fill="#4285F4"/>
</g>
<defs>
<filter id="filter0_d_62_940" x="0.266052" y="0" width="84.5206" height="84.5205" filterUnits="userSpaceOnUse" color-interpolation-filters="sRGB">
<feFlood flood-opacity="0" result="BackgroundImageFix"/>
<feColorMatrix in="SourceAlpha" type="matrix" values="0 0 0 0 0 0 0 0 0 0 0 0 0 0 0 0 0 0 127 0" result="hardAlpha"/>
<feOffset/>
<feGaussianBlur stdDeviation="12.5"/>
<feComposite in2="hardAlpha" operator="out"/>
<feColorMatrix type="matrix" values="0 0 0 0 0.031023 0 0 0 0 0.352529 0 0 0 0 0.729948 0 0 0 0.2 0"/>
<feBlend mode="normal" in2="BackgroundImageFix" result="effect1_dropShadow_62_940"/>
<feBlend mode="normal" in="SourceGraphic" in2="effect1_dropShadow_62_940" result="shape"/>
</filter>
</defs>
</svg>
