<svg width="85" height="85" viewBox="0 0 85 85" fill="none" xmlns="http://www.w3.org/2000/svg">
<g filter="url(#filter0_d_62_937)">
<path d="M42.4998 59.9997C52.1647 59.9997 59.9997 52.1647 59.9997 42.4998C59.9997 32.8349 52.1647 25 42.4998 25C32.8349 25 25 32.8349 25 42.4998C25 52.1647 32.8349 59.9997 42.4998 59.9997Z" fill="#55ACEE"/>
</g>
<path d="M53.2185 37.5765C52.455 37.9148 51.6451 38.1366 50.8158 38.2345C51.6895 37.712 52.3433 36.8896 52.6554 35.9207C51.8343 36.4079 50.9359 36.7511 49.9991 36.9355C49.6076 36.518 49.1346 36.1853 48.6092 35.9582C48.0839 35.731 47.5175 35.6142 46.9451 35.615C44.6354 35.615 42.7622 37.4883 42.7622 39.798C42.7622 40.1258 42.7993 40.4449 42.871 40.7513C39.3947 40.5769 36.3123 38.9117 34.249 36.3802C33.877 37.0186 33.6814 37.7445 33.6825 38.4834C33.6825 39.9343 34.4215 41.2151 35.5433 41.9651C34.879 41.9446 34.2293 41.765 33.6488 41.4413L33.6485 41.4943C33.6485 43.5211 35.091 45.2116 37.0042 45.5956C36.6451 45.6935 36.2745 45.7429 35.9024 45.7425C35.6322 45.7425 35.3705 45.7166 35.1153 45.6679C35.6475 47.3294 37.192 48.5388 39.0228 48.5728C37.541 49.7359 35.711 50.3665 33.8273 50.3634C33.4904 50.3634 33.1566 50.3438 32.83 50.3048C34.7422 51.5342 36.9681 52.1867 39.2415 52.1843C46.9355 52.1843 51.1431 45.8105 51.1431 40.2824C51.1431 40.1012 51.139 39.9205 51.1309 39.7415C51.9502 39.1499 52.6571 38.4168 53.2185 37.5765Z" fill="#F1F2F2"/>
<defs>
<filter id="filter0_d_62_937" x="0" y="0" width="84.9997" height="84.9996" filterUnits="userSpaceOnUse" color-interpolation-filters="sRGB">
<feFlood flood-opacity="0" result="BackgroundImageFix"/>
<feColorMatrix in="SourceAlpha" type="matrix" values="0 0 0 0 0 0 0 0 0 0 0 0 0 0 0 0 0 0 127 0" result="hardAlpha"/>
<feOffset/>
<feGaussianBlur stdDeviation="12.5"/>
<feComposite in2="hardAlpha" operator="out"/>
<feColorMatrix type="matrix" values="0 0 0 0 0.031023 0 0 0 0 0.352529 0 0 0 0 0.729948 0 0 0 0.2 0"/>
<feBlend mode="normal" in2="BackgroundImageFix" result="effect1_dropShadow_62_937"/>
<feBlend mode="normal" in="SourceGraphic" in2="effect1_dropShadow_62_937" result="shape"/>
</filter>
</defs>
</svg>
