<svg width="40" height="40" viewBox="0 0 40 40" fill="none" xmlns="http://www.w3.org/2000/svg">
<circle cx="20" cy="20" r="20" fill="url(#paint0_linear_21_243)"/>
<path d="M27.5 15V27.5C27.5 27.8451 27.4349 28.1673 27.3047 28.4668C27.1745 28.7663 26.9954 29.0299 26.7676 29.2578C26.5397 29.4857 26.2728 29.6647 25.9668 29.7949C25.6608 29.9251 25.3385 29.9935 25 30H13.75C13.4049 30 13.0827 29.9349 12.7832 29.8047C12.4837 29.6745 12.2201 29.4954 11.9922 29.2676C11.7643 29.0397 11.5853 28.776 11.4551 28.4766C11.3249 28.1771 11.2565 27.8516 11.25 27.5V15H13.75V13.75C13.75 13.2357 13.8477 12.7507 14.043 12.2949C14.2383 11.8392 14.5085 11.4421 14.8535 11.1035C15.1986 10.765 15.5957 10.498 16.0449 10.3027C16.4941 10.1074 16.9792 10.0065 17.5 10C18.1771 10 18.8053 10.1693 19.3848 10.5078C19.9642 10.1693 20.5859 10 21.25 10C21.7643 10 22.2493 10.0977 22.7051 10.293C23.1608 10.4883 23.5579 10.7585 23.8965 11.1035C24.235 11.4486 24.502 11.8457 24.6973 12.2949C24.8926 12.7441 24.9935 13.2292 25 13.75V15H27.5ZM23.75 13.75C23.75 13.4115 23.6849 13.0892 23.5547 12.7832C23.4245 12.4772 23.2454 12.2135 23.0176 11.9922C22.7897 11.7708 22.5228 11.5918 22.2168 11.4551C21.9108 11.3184 21.5885 11.25 21.25 11.25C20.957 11.25 20.6803 11.2988 20.4199 11.3965C20.6087 11.6309 20.7585 11.862 20.8691 12.0898C20.9798 12.3177 21.0612 12.5456 21.1133 12.7734C21.1654 13.0013 21.2012 13.2324 21.2207 13.4668C21.2402 13.7012 21.25 13.9518 21.25 14.2188V15H23.75V13.75ZM15 15H20V13.75C20 13.4115 19.9349 13.0892 19.8047 12.7832C19.6745 12.4772 19.4954 12.2135 19.2676 11.9922C19.0397 11.7708 18.7728 11.5918 18.4668 11.4551C18.1608 11.3184 17.8385 11.25 17.5 11.25C17.1549 11.25 16.8327 11.3151 16.5332 11.4453C16.2337 11.5755 15.9701 11.7546 15.7422 11.9824C15.5143 12.2103 15.3353 12.4772 15.2051 12.7832C15.0749 13.0892 15.0065 13.4115 15 13.75V15ZM22.832 28.75C22.6107 28.3594 22.5 27.9427 22.5 27.5V16.25H12.5V27.5C12.5 27.6758 12.5326 27.8385 12.5977 27.9883C12.6628 28.138 12.7507 28.2682 12.8613 28.3789C12.972 28.4896 13.1055 28.5807 13.2617 28.6523C13.418 28.724 13.5807 28.7565 13.75 28.75H22.832ZM26.25 16.25H23.75V27.5C23.75 27.6758 23.7826 27.8385 23.8477 27.9883C23.9128 28.138 24.0007 28.2682 24.1113 28.3789C24.222 28.4896 24.3555 28.5807 24.5117 28.6523C24.668 28.724 24.8307 28.7565 25 28.75C25.1758 28.75 25.3385 28.7174 25.4883 28.6523C25.638 28.5872 25.7682 28.4993 25.8789 28.3887C25.9896 28.278 26.0807 28.1445 26.1523 27.9883C26.224 27.832 26.2565 27.6693 26.25 27.5V16.25Z" fill="#F6F6F6"/>
<defs>
<linearGradient id="paint0_linear_21_243" x1="0" y1="0" x2="40" y2="40" gradientUnits="userSpaceOnUse">
<stop stop-color="#1F68BE"/>
<stop offset="1" stop-color="#59ACE0"/>
</linearGradient>
</defs>
</svg>
