<svg width="137" height="45" viewBox="0 0 137 45" fill="none" xmlns="http://www.w3.org/2000/svg">
<rect width="137" height="45" rx="5" fill="#1F68BE"/>
<path d="M36.792 22.24C37.4427 22.3787 37.9653 22.704 38.36 23.216C38.7547 23.7173 38.952 24.2933 38.952 24.944C38.952 25.8827 38.6213 26.6293 37.96 27.184C37.3093 27.728 36.3973 28 35.224 28H29.992V16.768H35.048C36.1893 16.768 37.08 17.0293 37.72 17.552C38.3707 18.0747 38.696 18.784 38.696 19.68C38.696 20.3413 38.52 20.8907 38.168 21.328C37.8267 21.7653 37.368 22.0693 36.792 22.24ZM32.728 21.312H34.52C34.968 21.312 35.3093 21.216 35.544 21.024C35.7893 20.8213 35.912 20.528 35.912 20.144C35.912 19.76 35.7893 19.4667 35.544 19.264C35.3093 19.0613 34.968 18.96 34.52 18.96H32.728V21.312ZM34.744 25.792C35.2027 25.792 35.5547 25.6907 35.8 25.488C36.056 25.2747 36.184 24.9707 36.184 24.576C36.184 24.1813 36.0507 23.872 35.784 23.648C35.528 23.424 35.1707 23.312 34.712 23.312H32.728V25.792H34.744ZM43.2269 16.768V23.488C43.2269 24.16 43.3922 24.6773 43.7229 25.04C44.0535 25.4027 44.5389 25.584 45.1789 25.584C45.8189 25.584 46.3095 25.4027 46.6509 25.04C46.9922 24.6773 47.1629 24.16 47.1629 23.488V16.768H49.8989V23.472C49.8989 24.4747 49.6855 25.3227 49.2589 26.016C48.8322 26.7093 48.2562 27.232 47.5309 27.584C46.8162 27.936 46.0162 28.112 45.1309 28.112C44.2455 28.112 43.4509 27.9413 42.7469 27.6C42.0535 27.248 41.5042 26.7253 41.0989 26.032C40.6935 25.328 40.4909 24.4747 40.4909 23.472V16.768H43.2269ZM61.4521 16.768L57.5641 24.288V28H54.8281V24.288L50.9401 16.768H54.0441L56.2201 21.472L58.3801 16.768H61.4521ZM75.9931 28H73.2571L68.6811 21.072V28H65.9451V16.768H68.6811L73.2571 23.728V16.768H75.9931V28ZM83.2884 28.112C82.2324 28.112 81.2617 27.8667 80.3764 27.376C79.5017 26.8853 78.803 26.2027 78.2804 25.328C77.7684 24.4427 77.5124 23.4507 77.5124 22.352C77.5124 21.2533 77.7684 20.2667 78.2804 19.392C78.803 18.5173 79.5017 17.8347 80.3764 17.344C81.2617 16.8533 82.2324 16.608 83.2884 16.608C84.3444 16.608 85.3097 16.8533 86.1844 17.344C87.0697 17.8347 87.763 18.5173 88.2644 19.392C88.7764 20.2667 89.0324 21.2533 89.0324 22.352C89.0324 23.4507 88.7764 24.4427 88.2644 25.328C87.7524 26.2027 87.059 26.8853 86.1844 27.376C85.3097 27.8667 84.3444 28.112 83.2884 28.112ZM83.2884 25.616C84.1844 25.616 84.899 25.3173 85.4324 24.72C85.9764 24.1227 86.2484 23.3333 86.2484 22.352C86.2484 21.36 85.9764 20.5707 85.4324 19.984C84.899 19.3867 84.1844 19.088 83.2884 19.088C82.3817 19.088 81.6564 19.3813 81.1124 19.968C80.579 20.5547 80.3124 21.3493 80.3124 22.352C80.3124 23.344 80.579 24.1387 81.1124 24.736C81.6564 25.3227 82.3817 25.616 83.2884 25.616ZM106.01 16.768L103.083 28H99.7705L97.9785 20.608L96.1225 28H92.8105L89.9625 16.768H92.8905L94.5065 24.944L96.5065 16.768H99.5145L101.435 24.944L103.067 16.768H106.01Z" fill="white"/>
</svg>
