<svg width="25" height="25" viewBox="0 0 25 25" fill="none" xmlns="http://www.w3.org/2000/svg">
<path d="M0 5C0 2.23858 2.23858 0 5 0H25V20C25 22.7614 22.7614 25 20 25H0V5Z" fill="#1F68BE"/>
<path d="M18.125 8.75V18.125C18.125 18.3838 18.0762 18.6255 17.9785 18.8501C17.8809 19.0747 17.7466 19.2725 17.5757 19.4434C17.4048 19.6143 17.2046 19.7485 16.9751 19.8462C16.7456 19.9438 16.5039 19.9951 16.25 20H7.8125C7.55371 20 7.31201 19.9512 7.0874 19.8535C6.86279 19.7559 6.66504 19.6216 6.49414 19.4507C6.32324 19.2798 6.18896 19.082 6.09131 18.8574C5.99365 18.6328 5.94238 18.3887 5.9375 18.125V8.75H7.8125V7.8125C7.8125 7.42676 7.88574 7.06299 8.03223 6.72119C8.17871 6.37939 8.38135 6.08154 8.64014 5.82764C8.89893 5.57373 9.19678 5.37354 9.53369 5.22705C9.87061 5.08057 10.2344 5.00488 10.625 5C11.1328 5 11.604 5.12695 12.0386 5.38086C12.4731 5.12695 12.9395 5 13.4375 5C13.8232 5 14.187 5.07324 14.5288 5.21973C14.8706 5.36621 15.1685 5.56885 15.4224 5.82764C15.6763 6.08643 15.8765 6.38428 16.0229 6.72119C16.1694 7.05811 16.2451 7.42188 16.25 7.8125V8.75H18.125ZM15.3125 7.8125C15.3125 7.55859 15.2637 7.31689 15.166 7.0874C15.0684 6.85791 14.9341 6.66016 14.7632 6.49414C14.5923 6.32812 14.3921 6.19385 14.1626 6.09131C13.9331 5.98877 13.6914 5.9375 13.4375 5.9375C13.2178 5.9375 13.0103 5.97412 12.8149 6.04736C12.9565 6.22314 13.0688 6.39648 13.1519 6.56738C13.2349 6.73828 13.2959 6.90918 13.335 7.08008C13.374 7.25098 13.4009 7.42432 13.4155 7.6001C13.4302 7.77588 13.4375 7.96387 13.4375 8.16406V8.75H15.3125V7.8125ZM8.75 8.75H12.5V7.8125C12.5 7.55859 12.4512 7.31689 12.3535 7.0874C12.2559 6.85791 12.1216 6.66016 11.9507 6.49414C11.7798 6.32812 11.5796 6.19385 11.3501 6.09131C11.1206 5.98877 10.8789 5.9375 10.625 5.9375C10.3662 5.9375 10.1245 5.98633 9.8999 6.08398C9.67529 6.18164 9.47754 6.31592 9.30664 6.48682C9.13574 6.65771 9.00146 6.85791 8.90381 7.0874C8.80615 7.31689 8.75488 7.55859 8.75 7.8125V8.75ZM14.624 19.0625C14.458 18.7695 14.375 18.457 14.375 18.125V9.6875H6.875V18.125C6.875 18.2568 6.89941 18.3789 6.94824 18.4912C6.99707 18.6035 7.06299 18.7012 7.146 18.7842C7.229 18.8672 7.3291 18.9355 7.44629 18.9893C7.56348 19.043 7.68555 19.0674 7.8125 19.0625H14.624ZM17.1875 9.6875H15.3125V18.125C15.3125 18.2568 15.3369 18.3789 15.3857 18.4912C15.4346 18.6035 15.5005 18.7012 15.5835 18.7842C15.6665 18.8672 15.7666 18.9355 15.8838 18.9893C16.001 19.043 16.123 19.0674 16.25 19.0625C16.3818 19.0625 16.5039 19.0381 16.6162 18.9893C16.7285 18.9404 16.8262 18.8745 16.9092 18.7915C16.9922 18.7085 17.0605 18.6084 17.1143 18.4912C17.168 18.374 17.1924 18.252 17.1875 18.125V9.6875Z" fill="#F6F6F6"/>
</svg>
