<svg width="321" height="50" viewBox="0 0 321 50" fill="none" xmlns="http://www.w3.org/2000/svg">
<rect width="321" height="50" rx="5" fill="#1F68BE"/>
<path d="M123.94 29.34H118.38L117.46 32H114.52L119.54 18.02H122.8L127.82 32H124.86L123.94 29.34ZM123.18 27.1L121.16 21.26L119.14 27.1H123.18ZM128.976 26.42C128.976 25.3 129.196 24.3067 129.636 23.44C130.09 22.5733 130.703 21.9067 131.476 21.44C132.25 20.9733 133.11 20.74 134.056 20.74C134.776 20.74 135.463 20.9 136.116 21.22C136.77 21.5267 137.29 21.94 137.676 22.46V17.2H140.516V32H137.676V30.36C137.33 30.9067 136.843 31.3467 136.216 31.68C135.59 32.0133 134.863 32.18 134.036 32.18C133.103 32.18 132.25 31.94 131.476 31.46C130.703 30.98 130.09 30.3067 129.636 29.44C129.196 28.56 128.976 27.5533 128.976 26.42ZM137.696 26.46C137.696 25.78 137.563 25.2 137.296 24.72C137.03 24.2267 136.67 23.8533 136.216 23.6C135.763 23.3333 135.276 23.2 134.756 23.2C134.236 23.2 133.756 23.3267 133.316 23.58C132.876 23.8333 132.516 24.2067 132.236 24.7C131.97 25.18 131.836 25.7533 131.836 26.42C131.836 27.0867 131.97 27.6733 132.236 28.18C132.516 28.6733 132.876 29.0533 133.316 29.32C133.77 29.5867 134.25 29.72 134.756 29.72C135.276 29.72 135.763 29.5933 136.216 29.34C136.67 29.0733 137.03 28.7 137.296 28.22C137.563 27.7267 137.696 27.14 137.696 26.46ZM142.531 26.42C142.531 25.3 142.751 24.3067 143.191 23.44C143.644 22.5733 144.258 21.9067 145.031 21.44C145.804 20.9733 146.664 20.74 147.611 20.74C148.331 20.74 149.018 20.9 149.671 21.22C150.324 21.5267 150.844 21.94 151.231 22.46V17.2H154.071V32H151.231V30.36C150.884 30.9067 150.398 31.3467 149.771 31.68C149.144 32.0133 148.418 32.18 147.591 32.18C146.658 32.18 145.804 31.94 145.031 31.46C144.258 30.98 143.644 30.3067 143.191 29.44C142.751 28.56 142.531 27.5533 142.531 26.42ZM151.251 26.46C151.251 25.78 151.118 25.2 150.851 24.72C150.584 24.2267 150.224 23.8533 149.771 23.6C149.318 23.3333 148.831 23.2 148.311 23.2C147.791 23.2 147.311 23.3267 146.871 23.58C146.431 23.8333 146.071 24.2067 145.791 24.7C145.524 25.18 145.391 25.7533 145.391 26.42C145.391 27.0867 145.524 27.6733 145.791 28.18C146.071 28.6733 146.431 29.0533 146.871 29.32C147.324 29.5867 147.804 29.72 148.311 29.72C148.831 29.72 149.318 29.5933 149.771 29.34C150.224 29.0733 150.584 28.7 150.851 28.22C151.118 27.7267 151.251 27.14 151.251 26.46ZM160.891 25C160.891 23.6267 161.198 22.4 161.811 21.32C162.438 20.2267 163.285 19.38 164.351 18.78C165.431 18.1667 166.638 17.86 167.971 17.86C169.531 17.86 170.898 18.26 172.071 19.06C173.245 19.86 174.065 20.9667 174.531 22.38H171.311C170.991 21.7133 170.538 21.2133 169.951 20.88C169.378 20.5467 168.711 20.38 167.951 20.38C167.138 20.38 166.411 20.5733 165.771 20.96C165.145 21.3333 164.651 21.8667 164.291 22.56C163.945 23.2533 163.771 24.0667 163.771 25C163.771 25.92 163.945 26.7333 164.291 27.44C164.651 28.1333 165.145 28.6733 165.771 29.06C166.411 29.4333 167.138 29.62 167.951 29.62C168.711 29.62 169.378 29.4533 169.951 29.12C170.538 28.7733 170.991 28.2667 171.311 27.6H174.531C174.065 29.0267 173.245 30.14 172.071 30.94C170.911 31.7267 169.545 32.12 167.971 32.12C166.638 32.12 165.431 31.82 164.351 31.22C163.285 30.6067 162.438 29.76 161.811 28.68C161.198 27.6 160.891 26.3733 160.891 25ZM176.203 26.42C176.203 25.3 176.423 24.3067 176.863 23.44C177.316 22.5733 177.923 21.9067 178.683 21.44C179.456 20.9733 180.316 20.74 181.263 20.74C182.09 20.74 182.81 20.9067 183.423 21.24C184.05 21.5733 184.55 21.9933 184.923 22.5V20.92H187.743V32H184.923V30.38C184.563 30.9 184.063 31.3333 183.423 31.68C182.796 32.0133 182.07 32.18 181.243 32.18C180.31 32.18 179.456 31.94 178.683 31.46C177.923 30.98 177.316 30.3067 176.863 29.44C176.423 28.56 176.203 27.5533 176.203 26.42ZM184.923 26.46C184.923 25.78 184.79 25.2 184.523 24.72C184.256 24.2267 183.896 23.8533 183.443 23.6C182.99 23.3333 182.503 23.2 181.983 23.2C181.463 23.2 180.983 23.3267 180.543 23.58C180.103 23.8333 179.743 24.2067 179.463 24.7C179.196 25.18 179.063 25.7533 179.063 26.42C179.063 27.0867 179.196 27.6733 179.463 28.18C179.743 28.6733 180.103 29.0533 180.543 29.32C180.996 29.5867 181.476 29.72 181.983 29.72C182.503 29.72 182.99 29.5933 183.443 29.34C183.896 29.0733 184.256 28.7 184.523 28.22C184.79 27.7267 184.923 27.14 184.923 26.46ZM193.278 22.64C193.638 22.0533 194.104 21.5933 194.678 21.26C195.264 20.9267 195.931 20.76 196.678 20.76V23.7H195.938C195.058 23.7 194.391 23.9067 193.938 24.32C193.498 24.7333 193.278 25.4533 193.278 26.48V32H190.478V20.92H193.278V22.64ZM201.824 23.22V28.58C201.824 28.9533 201.91 29.2267 202.084 29.4C202.27 29.56 202.577 29.64 203.004 29.64H204.304V32H202.544C200.184 32 199.004 30.8533 199.004 28.56V23.22H197.684V20.92H199.004V18.18H201.824V20.92H204.304V23.22H201.824Z" fill="white"/>
</svg>
