<svg width="72" height="25" viewBox="0 0 72 25" fill="none" xmlns="http://www.w3.org/2000/svg">
<path d="M0 5C0 2.23858 2.23858 0 5 0H72V20C72 22.7614 69.7614 25 67 25H0V5Z" fill="#1F68BE"/>
<path d="M41.125 8.75V18.125C41.125 18.3838 41.0762 18.6255 40.9785 18.8501C40.8809 19.0747 40.7466 19.2725 40.5757 19.4434C40.4048 19.6143 40.2046 19.7485 39.9751 19.8462C39.7456 19.9438 39.5039 19.9951 39.25 20H30.8125C30.5537 20 30.312 19.9512 30.0874 19.8535C29.8628 19.7559 29.665 19.6216 29.4941 19.4507C29.3232 19.2798 29.189 19.082 29.0913 18.8574C28.9937 18.6328 28.9424 18.3887 28.9375 18.125V8.75H30.8125V7.8125C30.8125 7.42676 30.8857 7.06299 31.0322 6.72119C31.1787 6.37939 31.3813 6.08154 31.6401 5.82764C31.8989 5.57373 32.1968 5.37354 32.5337 5.22705C32.8706 5.08057 33.2344 5.00488 33.625 5C34.1328 5 34.604 5.12695 35.0386 5.38086C35.4731 5.12695 35.9395 5 36.4375 5C36.8232 5 37.187 5.07324 37.5288 5.21973C37.8706 5.36621 38.1685 5.56885 38.4224 5.82764C38.6763 6.08643 38.8765 6.38428 39.0229 6.72119C39.1694 7.05811 39.2451 7.42188 39.25 7.8125V8.75H41.125ZM38.3125 7.8125C38.3125 7.55859 38.2637 7.31689 38.166 7.0874C38.0684 6.85791 37.9341 6.66016 37.7632 6.49414C37.5923 6.32812 37.3921 6.19385 37.1626 6.09131C36.9331 5.98877 36.6914 5.9375 36.4375 5.9375C36.2178 5.9375 36.0103 5.97412 35.8149 6.04736C35.9565 6.22314 36.0688 6.39648 36.1519 6.56738C36.2349 6.73828 36.2959 6.90918 36.335 7.08008C36.374 7.25098 36.4009 7.42432 36.4155 7.6001C36.4302 7.77588 36.4375 7.96387 36.4375 8.16406V8.75H38.3125V7.8125ZM31.75 8.75H35.5V7.8125C35.5 7.55859 35.4512 7.31689 35.3535 7.0874C35.2559 6.85791 35.1216 6.66016 34.9507 6.49414C34.7798 6.32812 34.5796 6.19385 34.3501 6.09131C34.1206 5.98877 33.8789 5.9375 33.625 5.9375C33.3662 5.9375 33.1245 5.98633 32.8999 6.08398C32.6753 6.18164 32.4775 6.31592 32.3066 6.48682C32.1357 6.65771 32.0015 6.85791 31.9038 7.0874C31.8062 7.31689 31.7549 7.55859 31.75 7.8125V8.75ZM37.624 19.0625C37.458 18.7695 37.375 18.457 37.375 18.125V9.6875H29.875V18.125C29.875 18.2568 29.8994 18.3789 29.9482 18.4912C29.9971 18.6035 30.063 18.7012 30.146 18.7842C30.229 18.8672 30.3291 18.9355 30.4463 18.9893C30.5635 19.043 30.6855 19.0674 30.8125 19.0625H37.624ZM40.1875 9.6875H38.3125V18.125C38.3125 18.2568 38.3369 18.3789 38.3857 18.4912C38.4346 18.6035 38.5005 18.7012 38.5835 18.7842C38.6665 18.8672 38.7666 18.9355 38.8838 18.9893C39.001 19.043 39.123 19.0674 39.25 19.0625C39.3818 19.0625 39.5039 19.0381 39.6162 18.9893C39.7285 18.9404 39.8262 18.8745 39.9092 18.7915C39.9922 18.7085 40.0605 18.6084 40.1143 18.4912C40.168 18.374 40.1924 18.252 40.1875 18.125V9.6875Z" fill="#F6F6F6"/>
</svg>
