<svg width="50" height="30" viewBox="0 0 50 30" fill="none" xmlns="http://www.w3.org/2000/svg">
<rect width="49.4118" height="30" rx="15" fill="url(#paint0_linear_62_928)"/>
<path d="M16.7647 15C16.7647 15.5482 17.2091 15.9926 17.7574 15.9926L28.8452 15.9926L24.0036 20.8343C23.6157 21.2221 23.6157 21.851 24.0036 22.2389C24.3915 22.6267 25.0203 22.6267 25.4082 22.2389L32.3162 15.3309C32.4989 15.1481 32.4989 14.8518 32.3162 14.6691L25.4082 7.76111C25.0203 7.37324 24.3915 7.37324 24.0036 7.76111C23.6157 8.14898 23.6157 8.77784 24.0036 9.1657L28.8452 14.0073L17.7574 14.0073C17.2091 14.0073 16.7647 14.4518 16.7647 15Z" fill="white"/>
<defs>
<linearGradient id="paint0_linear_62_928" x1="0" y1="0" x2="26.617" y2="43.8397" gradientUnits="userSpaceOnUse">
<stop stop-color="#005CC9"/>
<stop offset="1" stop-color="#62B5E4"/>
</linearGradient>
</defs>
</svg>
