<svg width="50" height="30" viewBox="0 0 50 30" fill="none" xmlns="http://www.w3.org/2000/svg">
<rect width="49.4118" height="30" rx="15" fill="url(#paint0_linear_46_125)"/>
<path d="M32.647 14.9999C32.647 14.4517 32.2026 14.0073 31.6544 14.0073H20.5665L25.4081 9.16565C25.796 8.77779 25.796 8.14893 25.4081 7.76106C25.0203 7.37319 24.3914 7.37319 24.0035 7.76106L17.0955 14.6691C16.9128 14.8518 16.9128 15.1481 17.0955 15.3308L24.0035 22.2388C24.3914 22.6267 25.0203 22.6267 25.4081 22.2388C25.796 21.8509 25.796 21.2221 25.4081 20.8342L20.5665 15.9926H31.6544C32.2026 15.9926 32.647 15.5482 32.647 14.9999Z" fill="white"/>
<defs>
<linearGradient id="paint0_linear_46_125" x1="0" y1="0" x2="26.617" y2="43.8397" gradientUnits="userSpaceOnUse">
<stop stop-color="#005CC9"/>
<stop offset="1" stop-color="#62B5E4"/>
</linearGradient>
</defs>
</svg>
