<svg width="85" height="85" viewBox="0 0 85 85" fill="none" xmlns="http://www.w3.org/2000/svg">
<g filter="url(#filter0_d_62_934)">
<g filter="url(#filter1_d_62_934)">
<path d="M42.5 60C52.165 60 60 52.165 60 42.5C60 32.835 52.165 25 42.5 25C32.835 25 25 32.835 25 42.5C25 52.165 32.835 60 42.5 60Z" fill="#3B5998"/>
</g>
<path d="M46.6778 42.6597H44.305V51.3528H40.7098V42.6597H39V39.6046H40.7098V37.6276C40.7098 36.2138 41.3814 34 44.337 34L47 34.0111V36.9766H45.0678C44.7509 36.9766 44.3052 37.135 44.3052 37.8094V39.6074H46.9919L46.6778 42.6597Z" fill="white"/>
</g>
<defs>
<filter id="filter0_d_62_934" x="0" y="0" width="85" height="85" filterUnits="userSpaceOnUse" color-interpolation-filters="sRGB">
<feFlood flood-opacity="0" result="BackgroundImageFix"/>
<feColorMatrix in="SourceAlpha" type="matrix" values="0 0 0 0 0 0 0 0 0 0 0 0 0 0 0 0 0 0 127 0" result="hardAlpha"/>
<feOffset/>
<feGaussianBlur stdDeviation="12.5"/>
<feComposite in2="hardAlpha" operator="out"/>
<feColorMatrix type="matrix" values="0 0 0 0 0.031023 0 0 0 0 0.352529 0 0 0 0 0.729948 0 0 0 0.2 0"/>
<feBlend mode="normal" in2="BackgroundImageFix" result="effect1_dropShadow_62_934"/>
<feBlend mode="normal" in="SourceGraphic" in2="effect1_dropShadow_62_934" result="shape"/>
</filter>
<filter id="filter1_d_62_934" x="0" y="0" width="85" height="85" filterUnits="userSpaceOnUse" color-interpolation-filters="sRGB">
<feFlood flood-opacity="0" result="BackgroundImageFix"/>
<feColorMatrix in="SourceAlpha" type="matrix" values="0 0 0 0 0 0 0 0 0 0 0 0 0 0 0 0 0 0 127 0" result="hardAlpha"/>
<feOffset/>
<feGaussianBlur stdDeviation="12.5"/>
<feComposite in2="hardAlpha" operator="out"/>
<feColorMatrix type="matrix" values="0 0 0 0 0.031023 0 0 0 0 0.352529 0 0 0 0 0.729948 0 0 0 0.2 0"/>
<feBlend mode="normal" in2="BackgroundImageFix" result="effect1_dropShadow_62_934"/>
<feBlend mode="normal" in="SourceGraphic" in2="effect1_dropShadow_62_934" result="shape"/>
</filter>
</defs>
</svg>
